<?xml version="1.0" encoding="UTF-8"?>
<svg width="309px" height="83px" viewBox="0 0 309 83" version="1.1" xmlns="http://www.w3.org/2000/svg" xmlns:xlink="http://www.w3.org/1999/xlink">
    <!-- Generator: Sketch 51.3 (57544) - http://www.bohemiancoding.com/sketch -->
    <title>SICC PICCS</title>
    <desc>Created with Sketch.</desc>
    <defs>
        <linearGradient x1="50%" y1="0%" x2="50%" y2="100%" id="linearGradient-1">
            <stop stop-color="#24F236" offset="0%"></stop>
            <stop stop-color="#BD10E0" offset="100%"></stop>
        </linearGradient>
        <path d="M39.75,46.96875 C39.7083331,47.5520863 39.6041675,48.1041641 39.4375,48.625 C39.2708325,49.1458359 39.1875,49.6666641 39.1875,50.1875 C39.1875,50.4375012 39.2083331,50.7604147 39.25,51.15625 C39.2916669,51.5520853 39.3125,51.9791644 39.3125,52.4375 C39.3125,53.2291706 39.1250019,53.9374969 38.75,54.5625 C38.3749981,55.1875031 37.8958363,55.7708306 37.3125,56.3125 C36.7291637,56.8541694 36.0781286,57.3802058 35.359375,57.890625 C34.6406214,58.4010442 33.9270869,58.9270806 33.21875,59.46875 C32.7187475,59.8645853 32.302085,60.2604147 31.96875,60.65625 C31.635415,61.0520853 31.2500022,61.4062484 30.8125,61.71875 C30.3749978,62.0312516 29.82292,62.2864573 29.15625,62.484375 C28.48958,62.6822927 27.5625059,62.78125 26.375,62.78125 C25.7291634,62.78125 25.0677117,62.7343755 24.390625,62.640625 C23.7135383,62.5468745 23.04167,62.4375006 22.375,62.3125 C21.70833,62.1874994 21.0677114,62.0781255 20.453125,61.984375 C19.8385386,61.8906245 19.2708359,61.84375 18.75,61.84375 C18.3124978,61.84375 17.8958353,61.8854163 17.5,61.96875 C17.1041647,62.0520837 16.7083353,62.09375 16.3125,62.09375 C16.1458325,62.09375 15.8541687,62.0260423 15.4375,61.890625 C15.0208313,61.7552077 14.5729191,61.5677095 14.09375,61.328125 C13.6145809,61.0885405 13.1354191,60.7968767 12.65625,60.453125 C12.1770809,60.1093733 11.7812516,59.7187522 11.46875,59.28125 C11.1770819,58.8854147 10.994792,58.4635439 10.921875,58.015625 C10.848958,57.5677061 10.7083344,57.1354187 10.5,56.71875 C10.2083319,56.1979141 9.82812734,55.6979191 9.359375,55.21875 C8.89062266,54.7395809 8.47916844,54.16667 8.125,53.5 C7.81249844,52.8958303 7.54166781,52.1666709 7.3125,51.3125 C7.08333219,50.4583291 6.82291813,49.6145875 6.53125,48.78125 C6.15624813,47.6770778 5.78646016,46.6875044 5.421875,45.8125 C5.05728984,44.9374956 4.875,44.1979197 4.875,43.59375 C4.875,42.9062466 4.96874906,42.1718789 5.15625,41.390625 C5.34375094,40.6093711 5.59374844,39.8802117 5.90625,39.203125 C6.21875156,38.5260383 6.57812297,37.9687522 6.984375,37.53125 C7.39062703,37.0937478 7.81249781,36.875 8.25,36.875 C8.47916781,36.875 8.71874875,36.9166662 8.96875,37 C9.21875125,37.0833338 9.47916531,37.125 9.75,37.125 C10.1041684,37.0833331 10.4010405,36.9791675 10.640625,36.8125 C10.8802095,36.6458325 11.1354153,36.5625 11.40625,36.5625 C11.6770847,36.5625 12.0624975,36.6093745 12.5625,36.703125 C13.0625025,36.7968755 13.5781223,36.9166659 14.109375,37.0625 C14.6406277,37.2083341 15.1406227,37.3541659 15.609375,37.5 C16.0781273,37.6458341 16.4270822,37.7812494 16.65625,37.90625 C16.989585,38.0729175 17.3437481,38.3645813 17.71875,38.78125 C18.0937519,39.1979187 18.4374984,39.6562475 18.75,40.15625 C19.0625016,40.6562525 19.3229156,41.1770806 19.53125,41.71875 C19.7395844,42.2604194 19.84375,42.7395813 19.84375,43.15625 C19.84375,43.3854178 19.8333334,43.6197905 19.8125,43.859375 C19.7916666,44.0989595 19.78125,44.3333322 19.78125,44.5625 C19.78125,44.9791687 19.8541659,45.4010395 20,45.828125 C20.1458341,46.2552105 20.2708328,46.7291641 20.375,47.25 C20.4583338,47.8333363 20.5156248,48.3854141 20.546875,48.90625 C20.5781252,49.4270859 20.6249997,49.9114561 20.6875,50.359375 C20.7500003,50.8072939 20.8385411,51.2291647 20.953125,51.625 C21.0677089,52.0208353 21.2708319,52.3958316 21.5625,52.75 C21.9791687,53.2916694 22.5624962,53.7239567 23.3125,54.046875 C24.0625038,54.3697933 24.8020797,54.53125 25.53125,54.53125 C25.9895856,54.53125 26.3593736,54.4583341 26.640625,54.3125 C26.9218764,54.1666659 27.1666656,53.9895844 27.375,53.78125 C27.5833344,53.5729156 27.7864573,53.3593761 27.984375,53.140625 C28.1822927,52.9218739 28.4166653,52.7291675 28.6875,52.5625 C29.1041687,52.3124988 29.4999981,52.1197923 29.875,51.984375 C30.2500019,51.8489577 30.5833319,51.6718761 30.875,51.453125 C31.1666681,51.2343739 31.3958325,50.9375019 31.5625,50.5625 C31.7291675,50.1874981 31.8125,49.6354203 31.8125,48.90625 C31.8125,48.3229137 31.7031261,47.7031283 31.484375,47.046875 C31.2656239,46.3906217 31.1250003,45.72917 31.0625,45.0625 C30.9999997,44.4791637 30.9583334,43.984377 30.9375,43.578125 C30.9166666,43.171873 30.8802086,42.7864602 30.828125,42.421875 C30.7760414,42.0572898 30.6875006,41.6927102 30.5625,41.328125 C30.4374994,40.9635398 30.2187516,40.5416691 29.90625,40.0625 C29.8229162,39.9791662 29.6354181,39.7656267 29.34375,39.421875 C29.0520819,39.0781233 28.7135436,38.7187519 28.328125,38.34375 C27.9427064,37.9687481 27.5312522,37.6302098 27.09375,37.328125 C26.6562478,37.0260402 26.2500019,36.875 25.875,36.875 C25.7083325,36.875 25.5468758,36.8854166 25.390625,36.90625 C25.2343742,36.9270834 25.0729175,36.9375 24.90625,36.9375 C24.23958,36.9375 23.5572952,36.7916681 22.859375,36.5 C22.1614548,36.2083319 21.4479203,35.8489605 20.71875,35.421875 C19.9895797,34.9947895 19.2500038,34.5416691 18.5,34.0625 C17.7499962,33.5833309 17.0000038,33.1562519 16.25,32.78125 C15.6249969,32.4687484 14.9218789,32.1770847 14.140625,31.90625 C13.3593711,31.6354153 12.6250034,31.333335 11.9375,31 C11.2499966,30.666665 10.6770856,30.2760439 10.21875,29.828125 C9.76041437,29.3802061 9.53125,28.82292 9.53125,28.15625 C9.53125,28.0312494 9.55729141,27.7812519 9.609375,27.40625 C9.66145859,27.0312481 9.72916625,26.5989608 9.8125,26.109375 C9.89583375,25.6197892 9.99999938,25.0885445 10.125,24.515625 C10.2500006,23.9427055 10.3958325,23.3906277 10.5625,22.859375 C10.7291675,22.3281223 10.9010408,21.8437522 11.078125,21.40625 C11.2552092,20.9687478 11.4479156,20.6250012 11.65625,20.375 C11.9479181,20.0208316 12.3177061,19.677085 12.765625,19.34375 C13.2135439,19.010415 13.6562478,18.713543 14.09375,18.453125 C14.5312522,18.192707 14.9218733,17.9843758 15.265625,17.828125 C15.6093767,17.6718742 15.8333328,17.59375 15.9375,17.59375 C16.1250009,17.59375 16.3072908,17.6093748 16.484375,17.640625 C16.6614592,17.6718752 16.8437491,17.6875 17.03125,17.6875 C17.4270853,17.6875 17.7656236,17.6406255 18.046875,17.546875 C18.3281264,17.4531245 18.5781239,17.3333341 18.796875,17.1875 C19.0156261,17.0416659 19.2291656,16.9010423 19.4375,16.765625 C19.6458344,16.6302077 19.8854153,16.5104172 20.15625,16.40625 C20.5104184,16.2604159 20.9427058,16.1822917 21.453125,16.171875 C21.9635442,16.1614583 22.4687475,16.1041672 22.96875,16 C23.5520863,15.8749994 24.2864539,15.7239592 25.171875,15.546875 C26.0572961,15.3697908 26.9531205,15.2031258 27.859375,15.046875 C28.7656295,14.8906242 29.6145794,14.7604172 30.40625,14.65625 C31.1979206,14.5520828 31.7916647,14.5104166 32.1875,14.53125 C32.3958344,14.53125 32.6197905,14.5833328 32.859375,14.6875 C33.0989595,14.7916672 33.2812494,15.0208316 33.40625,15.375 C33.6770847,15.5625009 33.9895816,15.6979162 34.34375,15.78125 C34.6979184,15.8645838 34.9895822,15.9999991 35.21875,16.1875 C35.5312516,16.4583347 35.8593733,16.8124978 36.203125,17.25 C36.5468767,17.6875022 36.8749984,18.0624984 37.1875,18.375 L38.015625,19.203125 C38.2552095,19.4427095 38.4531242,19.6718739 38.609375,19.890625 C38.7656258,20.1093761 38.880208,20.3385405 38.953125,20.578125 C39.026042,20.8177095 39.0625,21.104165 39.0625,21.4375 C39.0625,22.10417 38.9895841,22.7499969 38.84375,23.375 C38.6979159,24.0000031 38.4531267,24.5572892 38.109375,25.046875 C37.7656233,25.5364608 37.3072945,25.9322902 36.734375,26.234375 C36.1614555,26.5364598 35.4375044,26.6875 34.5625,26.6875 C34.0416641,26.6875 33.4791697,26.6302089 32.875,26.515625 C32.2708303,26.4010411 31.7291691,26.2500009 31.25,26.0625 C30.9999988,25.9791662 30.7500012,25.8437509 30.5,25.65625 C30.2499988,25.4687491 30.0000012,25.2760427 29.75,25.078125 C29.4999988,24.8802073 29.2395847,24.6875009 28.96875,24.5 C28.6979153,24.3124991 28.4062516,24.1666672 28.09375,24.0625 C27.7812484,23.9583328 27.3750025,23.8593755 26.875,23.765625 C26.3749975,23.6718745 25.8593777,23.5937503 25.328125,23.53125 C24.7968723,23.4687497 24.2812525,23.4166669 23.78125,23.375 C23.2812475,23.3333331 22.864585,23.3125 22.53125,23.3125 C22.0937478,23.3125 21.6666687,23.3385414 21.25,23.390625 C20.8333313,23.4427086 20.4635433,23.5468742 20.140625,23.703125 C19.8177067,23.8593758 19.5520844,24.0729153 19.34375,24.34375 C19.1354156,24.6145847 19.03125,24.9687478 19.03125,25.40625 C19.03125,25.6562512 19.0781245,25.8749991 19.171875,26.0625 C19.2656255,26.2500009 19.4010408,26.4218742 19.578125,26.578125 C19.7552092,26.7343758 19.9791653,26.8958325 20.25,27.0625 C20.5208347,27.2291675 20.8333316,27.4270822 21.1875,27.65625 C21.5000016,27.8645844 21.8072902,28.0937488 22.109375,28.34375 C22.4114598,28.5937512 22.7135402,28.8333322 23.015625,29.0625 C23.3177098,29.2916678 23.6249984,29.5104156 23.9375,29.71875 C24.2500016,29.9270844 24.572915,30.0937494 24.90625,30.21875 C25.3020853,30.3437506 25.7135395,30.4218748 26.140625,30.453125 C26.5677105,30.4843752 26.947915,30.5312497 27.28125,30.59375 C28.5104228,30.8854181 29.661453,31.3072889 30.734375,31.859375 C31.807297,32.4114611 32.8020787,33.0520797 33.71875,33.78125 C34.6354213,34.5104203 35.463538,35.2968708 36.203125,36.140625 C36.942712,36.9843792 37.5937472,37.8437456 38.15625,38.71875 C38.4270847,39.1562522 38.6458325,39.5468733 38.8125,39.890625 C38.9791675,40.2343767 39.1041662,40.5781233 39.1875,40.921875 C39.2708338,41.2656267 39.3229166,41.6354147 39.34375,42.03125 C39.3645834,42.4270853 39.375,42.9062472 39.375,43.46875 C39.375,44.1145866 39.4374994,44.7395803 39.5625,45.34375 C39.6875006,45.9479197 39.75,46.4895809 39.75,46.96875 Z M57.31525,29.3125 C57.2735831,29.7083353 57.2006672,30.072915 57.0965,30.40625 C56.9923328,30.739585 56.94025,31.1458309 56.94025,31.625 C56.94025,32.2291697 56.9610831,32.8437469 57.00275,33.46875 C57.0444169,34.0937531 57.06525,34.6770806 57.06525,35.21875 C57.06525,35.7812528 57.0079589,36.2395816 56.893375,36.59375 C56.7787911,36.9479184 56.6329592,37.255207 56.455875,37.515625 C56.2787908,37.776043 56.0860844,38.0208322 55.87775,38.25 C55.6694156,38.4791678 55.4767092,38.7499984 55.299625,39.0625 C55.1225408,39.3750016 54.9767089,39.7708309 54.862125,40.25 C54.7475411,40.7291691 54.69025,41.3333297 54.69025,42.0625 C54.69025,43.5416741 54.7319163,45.0677005 54.81525,46.640625 C54.8985838,48.2135495 54.94025,49.8854078 54.94025,51.65625 C54.94025,52.2395863 54.9142086,52.7916641 54.862125,53.3125 C54.8100414,53.8333359 54.7423338,54.3489558 54.659,54.859375 C54.5756663,55.3697942 54.4767089,55.8802058 54.362125,56.390625 C54.2475411,56.9010442 54.1277506,57.4374972 54.00275,58 C53.8569159,58.6458366 53.7215006,59.2135392 53.5965,59.703125 C53.4714994,60.1927108 53.2683764,60.604165 52.987125,60.9375 C52.7058736,61.270835 52.2996277,61.5260408 51.768375,61.703125 C51.2371224,61.8802092 50.5027547,61.96875 49.56525,61.96875 C48.8777466,61.96875 48.3777516,61.8177098 48.06525,61.515625 C47.7527484,61.2135402 47.5183758,60.8177108 47.362125,60.328125 C47.2058742,59.8385392 47.0756672,59.2864614 46.9715,58.671875 C46.8673328,58.0572886 46.6902513,57.4270866 46.44025,56.78125 C46.2735825,56.4062481 46.0965009,56.1093761 45.909,55.890625 C45.7214991,55.6718739 45.5496258,55.4427095 45.393375,55.203125 C45.2371242,54.9635405 45.1069172,54.6614602 45.00275,54.296875 C44.8985828,53.9322898 44.8465,53.41667 44.8465,52.75 C44.8465,52.2083306 44.8725414,51.6250031 44.924625,51 C44.9767086,50.3749969 45.0339997,49.7343783 45.0965,49.078125 C45.1590003,48.4218717 45.2162914,47.7552117 45.268375,47.078125 C45.3204586,46.4010383 45.3465,45.72917 45.3465,45.0625 C45.3465,44.4791637 45.3048338,43.9687522 45.2215,43.53125 C45.1381663,43.0937478 45.0496255,42.6770853 44.955875,42.28125 C44.8621245,41.8854147 44.7735838,41.4739605 44.69025,41.046875 C44.6069163,40.6197895 44.56525,40.1041697 44.56525,39.5 C44.56525,38.9166637 44.601708,38.4479184 44.674625,38.09375 C44.747542,37.7395816 44.8308745,37.4270847 44.924625,37.15625 C45.0183755,36.8854153 45.101708,36.6250012 45.174625,36.375 C45.247542,36.1249988 45.284,35.8229184 45.284,35.46875 C45.284,35.0937481 45.1746261,34.7343767 44.955875,34.390625 C44.7371239,34.0468733 44.497543,33.7187516 44.237125,33.40625 C43.976707,33.0937484 43.7423344,32.7864598 43.534,32.484375 C43.3256656,32.1822902 43.2423331,31.8958347 43.284,31.625 C43.284,31.4583325 43.3152497,31.2604178 43.37775,31.03125 C43.4402503,30.8020822 43.507958,30.557293 43.580875,30.296875 C43.653792,30.036457 43.7214997,29.776043 43.784,29.515625 C43.8465003,29.255207 43.87775,29.0000012 43.87775,28.75 C43.87775,27.8958291 43.7683761,27.0729206 43.549625,26.28125 C43.3308739,25.4895794 43.2215,24.7291703 43.2215,24 L43.2215,23.6875 C43.2215,23.5833328 43.2423331,23.4791672 43.284,23.375 C43.3256669,23.1249988 43.4610822,22.796877 43.69025,22.390625 C43.9194178,21.984373 44.1798319,21.5885436 44.4715,21.203125 C44.7631681,20.8177064 45.0548319,20.4843764 45.3465,20.203125 C45.6381681,19.9218736 45.8569159,19.78125 46.00275,19.78125 C46.1277506,19.78125 46.2475411,19.7916666 46.362125,19.8125 C46.4767089,19.8333334 46.5860828,19.84375 46.69025,19.84375 C47.1069188,19.84375 47.6433717,19.8020837 48.299625,19.71875 C48.9558783,19.6354163 49.6381631,19.59375 50.3465,19.59375 C50.8673359,19.59375 51.3881641,19.6093748 51.909,19.640625 C52.4298359,19.6718752 52.9142061,19.7187497 53.362125,19.78125 C53.8100439,19.8437503 54.2058733,19.9270828 54.549625,20.03125 C54.8933767,20.1354172 55.1589991,20.2708325 55.3465,20.4375 C55.4090003,20.4791669 55.5287908,20.6770816 55.705875,21.03125 C55.8829592,21.3854184 56.0756656,21.7760395 56.284,22.203125 C56.4923344,22.6302105 56.6746242,23.0364564 56.830875,23.421875 C56.9871258,23.8072936 57.0860831,24.0624994 57.12775,24.1875 C57.1902503,24.5416684 57.2475414,25.0416634 57.299625,25.6875 C57.3517086,26.3333366 57.37775,27.0104131 57.37775,27.71875 C57.37775,27.9687512 57.3673334,28.2343736 57.3465,28.515625 C57.3256666,28.7968764 57.31525,29.0624988 57.31525,29.3125 Z M93.8805,28.75 L93.8805,28.9375 C93.8805,29.2500016 93.8388338,29.7447883 93.7555,30.421875 C93.6721663,31.0989617 93.536751,31.8177045 93.34925,32.578125 C93.1617491,33.3385455 92.9325847,34.0729131 92.66175,34.78125 C92.3909153,35.4895869 92.0680019,36.0416647 91.693,36.4375 C91.3388316,36.7916684 90.864878,37.0312494 90.271125,37.15625 C89.677372,37.2812506 89.1096694,37.4374991 88.568,37.625 C88.1304978,37.7916675 87.6669608,38.0104153 87.177375,38.28125 C86.6877892,38.5520847 86.1982108,38.8124988 85.708625,39.0625 C85.2190392,39.3125012 84.7294608,39.5312491 84.239875,39.71875 C83.7502892,39.9062509 83.2763356,40 82.818,40 C82.5054985,40 82.1565436,39.9218758 81.771125,39.765625 C81.3857064,39.6093742 81.026335,39.3541684 80.693,39 C80.359665,38.6458316 80.0836261,38.1875028 79.864875,37.625 C79.6461239,37.0624972 79.53675,36.3645875 79.53675,35.53125 C79.53675,35.0104141 79.5575831,34.4687528 79.59925,33.90625 C79.6409169,33.3437472 79.66175,32.7916694 79.66175,32.25 C79.66175,31.6666637 79.6148755,31.005212 79.521125,30.265625 C79.4273745,29.526038 79.2971675,28.8333366 79.1305,28.1875 C78.9638325,27.5416634 78.7763344,26.9947939 78.568,26.546875 C78.3596656,26.0989561 78.1305013,25.875 77.8805,25.875 C77.6929991,25.875 77.4794595,25.9166663 77.239875,26 C77.0002905,26.0833337 76.7242516,26.125 76.41175,26.125 C76.0367481,26.125 75.7502927,26.0833337 75.552375,26 C75.3544574,25.9166663 75.1930006,25.8281255 75.068,25.734375 C74.9429994,25.6406245 74.8284172,25.5520837 74.72425,25.46875 C74.6200828,25.3854163 74.474251,25.34375 74.28675,25.34375 C73.7867475,25.34375 73.406543,25.4531239 73.146125,25.671875 C72.885707,25.8906261 72.6930006,26.1874981 72.568,26.5625 C72.4429994,26.9375019 72.344042,27.3645809 72.271125,27.84375 C72.198208,28.3229191 72.0888341,28.8124975 71.943,29.3125 C71.8388328,29.6666684 71.6513347,30.0624978 71.3805,30.5 C71.1096653,30.9375022 70.9117506,31.3958309 70.78675,31.875 C70.6200825,32.3541691 70.4846672,32.8802055 70.3805,33.453125 C70.2763328,34.0260445 70.130501,34.6145803 69.943,35.21875 C69.7763325,35.7395859 69.5836261,36.3958294 69.364875,37.1875 C69.1461239,37.9791706 68.9325844,38.8124956 68.72425,39.6875 C68.5159156,40.5625044 68.3388341,41.4374956 68.193,42.3125 C68.047166,43.1875044 67.97425,43.95833 67.97425,44.625 C67.97425,45.5833381 68.2867469,46.5156205 68.91175,47.421875 C69.5367531,48.3281295 70.349245,49.0833303 71.34925,49.6875 C71.6409181,49.8541675 72.0523724,49.9947911 72.583625,50.109375 C73.1148777,50.2239589 73.620081,50.3958322 74.09925,50.625 C74.5575856,50.8541678 74.953415,51.0781239 75.28675,51.296875 C75.620085,51.5156261 75.9742481,51.7135408 76.34925,51.890625 C76.7242519,52.0677092 77.1669558,52.2135411 77.677375,52.328125 C78.1877942,52.4427089 78.849246,52.5 79.66175,52.5 C80.4117538,52.5 81.1773711,52.4218758 81.958625,52.265625 C82.7398789,52.1093742 83.4846631,51.9062512 84.193,51.65625 C84.9013369,51.4062488 85.5471638,51.1250016 86.1305,50.8125 C86.7138363,50.4999984 87.1825816,50.1875016 87.53675,49.875 C87.6617506,49.7708328 87.8648736,49.5468767 88.146125,49.203125 C88.4273764,48.8593733 88.7554981,48.5000019 89.1305,48.125 C89.5055019,47.7499981 89.9221644,47.4114598 90.3805,47.109375 C90.8388356,46.8072902 91.3284141,46.65625 91.84925,46.65625 C91.9534172,46.65625 92.1148739,46.6822914 92.333625,46.734375 C92.5523761,46.7864586 92.7711239,46.8906242 92.989875,47.046875 C93.2086261,47.2031258 93.4013325,47.4270819 93.568,47.71875 C93.7346675,48.0104181 93.818,48.3854144 93.818,48.84375 C93.818,49.4479197 93.7346675,50.0729134 93.568,50.71875 C93.4013325,51.3645866 93.318,51.9791637 93.318,52.5625 C93.318,52.8125012 93.3284166,53.1249981 93.34925,53.5 C93.3700835,53.8750019 93.3805,54.2395816 93.3805,54.59375 C93.3805,55.3229203 93.1565439,56.0624962 92.708625,56.8125 C92.2607061,57.5625038 91.4742556,58.3437459 90.34925,59.15625 C89.9950816,59.4062513 89.557586,59.6302073 89.03675,59.828125 C88.5159141,60.0260427 88.0159191,60.2708319 87.53675,60.5625 C87.0367475,60.8750016 86.5055028,61.1874984 85.943,61.5 C85.3804972,61.8125016 84.932585,61.96875 84.59925,61.96875 C84.2867485,61.96875 83.963835,61.9270837 83.6305,61.84375 C83.297165,61.7604163 82.9221688,61.71875 82.5055,61.71875 C81.83883,61.71875 81.1877949,61.7395831 80.552375,61.78125 C79.9169552,61.8229169 79.26592,61.84375 78.59925,61.84375 C78.265915,61.84375 77.896127,61.8385417 77.489875,61.828125 C77.083623,61.8177083 76.6721688,61.7968752 76.2555,61.765625 C75.8388313,61.7343748 75.427377,61.6979169 75.021125,61.65625 C74.614873,61.6145831 74.245085,61.5625003 73.91175,61.5 C73.6617488,61.4791666 73.3752933,61.4531252 73.052375,61.421875 C72.7294567,61.3906248 72.4117516,61.3593752 72.09925,61.328125 C71.7867485,61.2968748 71.5107095,61.2656252 71.271125,61.234375 C71.0315405,61.2031248 70.8700838,61.1666669 70.78675,61.125 C70.640916,61.0624997 70.5055006,60.9479175 70.3805,60.78125 C70.2554994,60.6145825 70.1252924,60.4218761 69.989875,60.203125 C69.8544577,59.9843739 69.7086258,59.7656261 69.552375,59.546875 C69.3961242,59.3281239 69.2034178,59.1250009 68.97425,58.9375 C68.7242488,58.7499991 68.4430016,58.619792 68.1305,58.546875 C67.8179985,58.473958 67.568001,58.3541675 67.3805,58.1875 C67.1304988,57.854165 66.8440433,57.4895853 66.521125,57.09375 C66.1982067,56.6979147 65.8909181,56.333335 65.59925,56 C65.265915,55.4791641 65.005501,54.9375028 64.818,54.375 C64.6304991,53.8124972 64.3805016,53.3541684 64.068,53 C63.9429994,52.8749994 63.7711261,52.7552089 63.552375,52.640625 C63.3336239,52.5260411 63.0992513,52.4010423 62.84925,52.265625 C62.5992488,52.1302077 62.3544595,51.9843758 62.114875,51.828125 C61.8752905,51.6718742 61.6721675,51.4895844 61.5055,51.28125 C61.4221663,51.2187497 61.3023758,51.0520847 61.146125,50.78125 C60.9898742,50.5104153 60.8336258,50.2291681 60.677375,49.9375 C60.5211242,49.6458319 60.3857089,49.3906261 60.271125,49.171875 C60.1565411,48.9531239 60.09925,48.8645831 60.09925,48.90625 C60.09925,48.7812494 60.1461245,48.6197927 60.239875,48.421875 C60.3336255,48.2239573 60.4429994,48.0208344 60.568,47.8125 C60.6930006,47.6041656 60.8023745,47.3958344 60.896125,47.1875 C60.9898755,46.9791656 61.03675,46.8020841 61.03675,46.65625 C61.03675,46.3020816 60.9846672,45.9843764 60.8805,45.703125 C60.7763328,45.4218736 60.7034169,45.1041684 60.66175,44.75 C60.66175,44.0416631 60.6929997,43.1197973 60.7555,41.984375 C60.8180003,40.8489527 60.9169577,39.6354231 61.052375,38.34375 C61.1877924,37.0520769 61.3544574,35.7552148 61.552375,34.453125 C61.7502927,33.1510352 61.9846653,31.9687553 62.2555,30.90625 C62.4846678,30.0729125 62.7450819,29.2187544 63.03675,28.34375 C63.3284181,27.4687456 63.47425,26.6458372 63.47425,25.875 C63.47425,25.6041653 63.4534169,25.3333347 63.41175,25.0625 C63.3700831,24.7916653 63.34925,24.5208347 63.34925,24.25 C63.34925,23.6874972 63.515915,23.2500016 63.84925,22.9375 C64.182585,22.6249984 64.588831,22.3489595 65.068,22.109375 C65.5471691,21.8697905 66.0575806,21.6354178 66.59925,21.40625 C67.1409194,21.1770822 67.6200813,20.8541688 68.03675,20.4375 C68.1409172,20.3124994 68.2242497,20.1354178 68.28675,19.90625 C68.3492503,19.6770822 68.4013331,19.4479178 68.443,19.21875 C68.4846669,18.9895822 68.5263331,18.7656261 68.568,18.546875 C68.6096669,18.3281239 68.6825828,18.1666672 68.78675,18.0625 C68.8492503,17.9791663 68.9377911,17.9270834 69.052375,17.90625 C69.1669589,17.8854166 69.3023742,17.8645834 69.458625,17.84375 C69.6148758,17.8229166 69.7919574,17.7864586 69.989875,17.734375 C70.1877927,17.6822914 70.3909156,17.5937506 70.59925,17.46875 C70.8075844,17.3437494 70.9690411,17.2135423 71.083625,17.078125 C71.1982089,16.9427077 71.3075828,16.8229172 71.41175,16.71875 C71.5159172,16.6145828 71.640916,16.5312503 71.78675,16.46875 C71.9325841,16.4062497 72.1304988,16.3854166 72.3805,16.40625 C72.6096678,16.40625 72.8440405,16.4166666 73.083625,16.4375 C73.3232095,16.4583334 73.5367491,16.46875 73.72425,16.46875 C74.0367516,16.46875 74.3648733,16.4583334 74.708625,16.4375 C75.0523767,16.4166666 75.4013316,16.40625 75.7555,16.40625 C76.3388363,16.40625 76.8179981,16.4687494 77.193,16.59375 C77.5680019,16.7187506 77.9013319,16.8593742 78.193,17.015625 C78.4846681,17.1718758 78.7659153,17.3333325 79.03675,17.5 C79.3075847,17.6666675 79.6513313,17.7916662 80.068,17.875 C80.6305028,17.9791672 81.1982055,18.0364583 81.771125,18.046875 C82.3440445,18.0572917 82.9013306,18.0677083 83.443,18.078125 C83.9846694,18.0885417 84.5211224,18.130208 85.052375,18.203125 C85.5836277,18.276042 86.0992475,18.4166656 86.59925,18.625 C86.8909181,18.7500006 87.1982067,18.9739567 87.521125,19.296875 C87.8440433,19.6197933 88.1929981,19.9270819 88.568,20.21875 C88.9221685,20.4895847 89.302373,20.7239573 89.708625,20.921875 C90.114877,21.1197927 90.4013325,21.3333322 90.568,21.5625 C90.6930006,21.7916678 90.8023745,22.1354144 90.896125,22.59375 C90.9898755,23.0520856 91.1304991,23.4374984 91.318,23.75 C91.505501,24.083335 91.7398736,24.4322898 92.021125,24.796875 C92.3023764,25.1614602 92.5784153,25.546873 92.84925,25.953125 C93.1200847,26.359377 93.3492491,26.7968727 93.53675,27.265625 C93.724251,27.7343773 93.8388331,28.2291641 93.8805,28.75 Z M130.19575,28.75 L130.19575,28.9375 C130.19575,29.2500016 130.154084,29.7447883 130.07075,30.421875 C129.987416,31.0989617 129.852001,31.8177045 129.6645,32.578125 C129.476999,33.3385455 129.247835,34.0729131 128.977,34.78125 C128.706165,35.4895869 128.383252,36.0416647 128.00825,36.4375 C127.654082,36.7916684 127.180128,37.0312494 126.586375,37.15625 C125.992622,37.2812506 125.424919,37.4374991 124.88325,37.625 C124.445748,37.7916675 123.982211,38.0104153 123.492625,38.28125 C123.003039,38.5520847 122.513461,38.8124988 122.023875,39.0625 C121.534289,39.3125012 121.044711,39.5312491 120.555125,39.71875 C120.065539,39.9062509 119.591586,40 119.13325,40 C118.820748,40 118.471794,39.9218758 118.086375,39.765625 C117.700956,39.6093742 117.341585,39.3541684 117.00825,39 C116.674915,38.6458316 116.398876,38.1875028 116.180125,37.625 C115.961374,37.0624972 115.852,36.3645875 115.852,35.53125 C115.852,35.0104141 115.872833,34.4687528 115.9145,33.90625 C115.956167,33.3437472 115.977,32.7916694 115.977,32.25 C115.977,31.6666637 115.930125,31.005212 115.836375,30.265625 C115.742625,29.526038 115.612418,28.8333366 115.44575,28.1875 C115.279083,27.5416634 115.091584,26.9947939 114.88325,26.546875 C114.674916,26.0989561 114.445751,25.875 114.19575,25.875 C114.008249,25.875 113.79471,25.9166663 113.555125,26 C113.31554,26.0833337 113.039502,26.125 112.727,26.125 C112.351998,26.125 112.065543,26.0833337 111.867625,26 C111.669707,25.9166663 111.508251,25.8281255 111.38325,25.734375 C111.258249,25.6406245 111.143667,25.5520837 111.0395,25.46875 C110.935333,25.3854163 110.789501,25.34375 110.602,25.34375 C110.101998,25.34375 109.721793,25.4531239 109.461375,25.671875 C109.200957,25.8906261 109.008251,26.1874981 108.88325,26.5625 C108.758249,26.9375019 108.659292,27.3645809 108.586375,27.84375 C108.513458,28.3229191 108.404084,28.8124975 108.25825,29.3125 C108.154083,29.6666684 107.966585,30.0624978 107.69575,30.5 C107.424915,30.9375022 107.227001,31.3958309 107.102,31.875 C106.935333,32.3541691 106.799917,32.8802055 106.69575,33.453125 C106.591583,34.0260445 106.445751,34.6145803 106.25825,35.21875 C106.091583,35.7395859 105.898876,36.3958294 105.680125,37.1875 C105.461374,37.9791706 105.247834,38.8124956 105.0395,39.6875 C104.831166,40.5625044 104.654084,41.4374956 104.50825,42.3125 C104.362416,43.1875044 104.2895,43.95833 104.2895,44.625 C104.2895,45.5833381 104.601997,46.5156205 105.227,47.421875 C105.852003,48.3281295 106.664495,49.0833303 107.6645,49.6875 C107.956168,49.8541675 108.367622,49.9947911 108.898875,50.109375 C109.430128,50.2239589 109.935331,50.3958322 110.4145,50.625 C110.872836,50.8541678 111.268665,51.0781239 111.602,51.296875 C111.935335,51.5156261 112.289498,51.7135408 112.6645,51.890625 C113.039502,52.0677092 113.482206,52.2135411 113.992625,52.328125 C114.503044,52.4427089 115.164496,52.5 115.977,52.5 C116.727004,52.5 117.492621,52.4218758 118.273875,52.265625 C119.055129,52.1093742 119.799913,51.9062512 120.50825,51.65625 C121.216587,51.4062488 121.862414,51.1250016 122.44575,50.8125 C123.029086,50.4999984 123.497832,50.1875016 123.852,49.875 C123.977001,49.7708328 124.180124,49.5468767 124.461375,49.203125 C124.742626,48.8593733 125.070748,48.5000019 125.44575,48.125 C125.820752,47.7499981 126.237414,47.4114598 126.69575,47.109375 C127.154086,46.8072902 127.643664,46.65625 128.1645,46.65625 C128.268667,46.65625 128.430124,46.6822914 128.648875,46.734375 C128.867626,46.7864586 129.086374,46.8906242 129.305125,47.046875 C129.523876,47.2031258 129.716583,47.4270819 129.88325,47.71875 C130.049918,48.0104181 130.13325,48.3854144 130.13325,48.84375 C130.13325,49.4479197 130.049918,50.0729134 129.88325,50.71875 C129.716583,51.3645866 129.63325,51.9791637 129.63325,52.5625 C129.63325,52.8125012 129.643667,53.1249981 129.6645,53.5 C129.685333,53.8750019 129.69575,54.2395816 129.69575,54.59375 C129.69575,55.3229203 129.471794,56.0624962 129.023875,56.8125 C128.575956,57.5625038 127.789506,58.3437459 126.6645,59.15625 C126.310332,59.4062513 125.872836,59.6302073 125.352,59.828125 C124.831164,60.0260427 124.331169,60.2708319 123.852,60.5625 C123.351998,60.8750016 122.820753,61.1874984 122.25825,61.5 C121.695747,61.8125016 121.247835,61.96875 120.9145,61.96875 C120.601998,61.96875 120.279085,61.9270837 119.94575,61.84375 C119.612415,61.7604163 119.237419,61.71875 118.82075,61.71875 C118.15408,61.71875 117.503045,61.7395831 116.867625,61.78125 C116.232205,61.8229169 115.58117,61.84375 114.9145,61.84375 C114.581165,61.84375 114.211377,61.8385417 113.805125,61.828125 C113.398873,61.8177083 112.987419,61.7968752 112.57075,61.765625 C112.154081,61.7343748 111.742627,61.6979169 111.336375,61.65625 C110.930123,61.6145831 110.560335,61.5625003 110.227,61.5 C109.976999,61.4791666 109.690543,61.4531252 109.367625,61.421875 C109.044707,61.3906248 108.727002,61.3593752 108.4145,61.328125 C108.101998,61.2968748 107.82596,61.2656252 107.586375,61.234375 C107.34679,61.2031248 107.185334,61.1666669 107.102,61.125 C106.956166,61.0624997 106.820751,60.9479175 106.69575,60.78125 C106.570749,60.6145825 106.440542,60.4218761 106.305125,60.203125 C106.169708,59.9843739 106.023876,59.7656261 105.867625,59.546875 C105.711374,59.3281239 105.518668,59.1250009 105.2895,58.9375 C105.039499,58.7499991 104.758252,58.619792 104.44575,58.546875 C104.133248,58.473958 103.883251,58.3541675 103.69575,58.1875 C103.445749,57.854165 103.159293,57.4895853 102.836375,57.09375 C102.513457,56.6979147 102.206168,56.333335 101.9145,56 C101.581165,55.4791641 101.320751,54.9375028 101.13325,54.375 C100.945749,53.8124972 100.695752,53.3541684 100.38325,53 C100.258249,52.8749994 100.086376,52.7552089 99.867625,52.640625 C99.6488739,52.5260411 99.4145013,52.4010423 99.1645,52.265625 C98.9144988,52.1302077 98.6697096,51.9843758 98.430125,51.828125 C98.1905405,51.6718742 97.9874175,51.4895844 97.82075,51.28125 C97.7374163,51.2187497 97.6176258,51.0520847 97.461375,50.78125 C97.3051242,50.5104153 97.1488758,50.2291681 96.992625,49.9375 C96.8363742,49.6458319 96.7009589,49.3906261 96.586375,49.171875 C96.4717911,48.9531239 96.4145,48.8645831 96.4145,48.90625 C96.4145,48.7812494 96.4613746,48.6197927 96.555125,48.421875 C96.6488755,48.2239573 96.7582494,48.0208344 96.88325,47.8125 C97.0082507,47.6041656 97.1176246,47.3958344 97.211375,47.1875 C97.3051255,46.9791656 97.352,46.8020841 97.352,46.65625 C97.352,46.3020816 97.2999172,45.9843764 97.19575,45.703125 C97.0915828,45.4218736 97.0186669,45.1041684 96.977,44.75 C96.977,44.0416631 97.0082497,43.1197973 97.07075,41.984375 C97.1332503,40.8489527 97.2322077,39.6354231 97.367625,38.34375 C97.5030424,37.0520769 97.6697074,35.7552148 97.867625,34.453125 C98.0655427,33.1510352 98.2999153,31.9687553 98.57075,30.90625 C98.7999178,30.0729125 99.0603319,29.2187544 99.352,28.34375 C99.6436682,27.4687456 99.7895,26.6458372 99.7895,25.875 C99.7895,25.6041653 99.7686669,25.3333347 99.727,25.0625 C99.6853332,24.7916653 99.6645,24.5208347 99.6645,24.25 C99.6645,23.6874972 99.831165,23.2500016 100.1645,22.9375 C100.497835,22.6249984 100.904081,22.3489595 101.38325,22.109375 C101.862419,21.8697905 102.372831,21.6354178 102.9145,21.40625 C103.456169,21.1770822 103.935331,20.8541688 104.352,20.4375 C104.456167,20.3124994 104.5395,20.1354178 104.602,19.90625 C104.6645,19.6770822 104.716583,19.4479178 104.75825,19.21875 C104.799917,18.9895822 104.841583,18.7656261 104.88325,18.546875 C104.924917,18.3281239 104.997833,18.1666672 105.102,18.0625 C105.1645,17.9791663 105.253041,17.9270834 105.367625,17.90625 C105.482209,17.8854166 105.617624,17.8645834 105.773875,17.84375 C105.930126,17.8229166 106.107207,17.7864586 106.305125,17.734375 C106.503043,17.6822914 106.706166,17.5937506 106.9145,17.46875 C107.122834,17.3437494 107.284291,17.2135423 107.398875,17.078125 C107.513459,16.9427077 107.622833,16.8229172 107.727,16.71875 C107.831167,16.6145828 107.956166,16.5312503 108.102,16.46875 C108.247834,16.4062497 108.445749,16.3854166 108.69575,16.40625 C108.924918,16.40625 109.15929,16.4166666 109.398875,16.4375 C109.63846,16.4583334 109.851999,16.46875 110.0395,16.46875 C110.352002,16.46875 110.680123,16.4583334 111.023875,16.4375 C111.367627,16.4166666 111.716582,16.40625 112.07075,16.40625 C112.654086,16.40625 113.133248,16.4687494 113.50825,16.59375 C113.883252,16.7187506 114.216582,16.8593742 114.50825,17.015625 C114.799918,17.1718758 115.081165,17.3333325 115.352,17.5 C115.622835,17.6666675 115.966581,17.7916662 116.38325,17.875 C116.945753,17.9791672 117.513455,18.0364583 118.086375,18.046875 C118.659295,18.0572917 119.216581,18.0677083 119.75825,18.078125 C120.299919,18.0885417 120.836372,18.130208 121.367625,18.203125 C121.898878,18.276042 122.414498,18.4166656 122.9145,18.625 C123.206168,18.7500006 123.513457,18.9739567 123.836375,19.296875 C124.159293,19.6197933 124.508248,19.9270819 124.88325,20.21875 C125.237418,20.4895847 125.617623,20.7239573 126.023875,20.921875 C126.430127,21.1197927 126.716583,21.3333322 126.88325,21.5625 C127.008251,21.7916678 127.117625,22.1354144 127.211375,22.59375 C127.305125,23.0520856 127.445749,23.4374984 127.63325,23.75 C127.820751,24.083335 128.055124,24.4322898 128.336375,24.796875 C128.617626,25.1614602 128.893665,25.546873 129.1645,25.953125 C129.435335,26.359377 129.664499,26.7968727 129.852,27.265625 C130.039501,27.7343773 130.154083,28.2291641 130.19575,28.75 Z M178.57625,35.21875 C178.57625,35.6562522 178.503334,35.9947905 178.3575,36.234375 C178.211666,36.4739595 178.086667,36.7916647 177.9825,37.1875 C177.774166,38.1041712 177.591876,39.1406192 177.435625,40.296875 C177.279374,41.4531308 177.060626,42.567703 176.779375,43.640625 C176.498124,44.713547 176.102294,45.6614542 175.591875,46.484375 C175.081456,47.3072958 174.367921,47.8333322 173.45125,48.0625 C173.222082,48.1250003 172.935627,48.1666666 172.591875,48.1875 C172.248123,48.2083334 171.873127,48.2291666 171.466875,48.25 C171.060623,48.2708334 170.638752,48.2968748 170.20125,48.328125 C169.763748,48.3593752 169.336669,48.4062497 168.92,48.46875 C168.31583,48.5729172 167.768961,48.7187491 167.279375,48.90625 C166.789789,49.0937509 166.347085,49.2187497 165.95125,49.28125 C165.617915,49.3229169 165.222086,49.3489583 164.76375,49.359375 C164.305414,49.3697917 163.873127,49.3802083 163.466875,49.390625 C163.060623,49.4010417 162.711668,49.4322914 162.42,49.484375 C162.128332,49.5364586 161.9825,49.6249994 161.9825,49.75 C161.9825,50.6875047 162.065833,51.6718698 162.2325,52.703125 C162.399168,53.7343802 162.576249,54.7656198 162.76375,55.796875 C162.951251,56.8281302 163.128333,57.8385367 163.295,58.828125 C163.461668,59.8177133 163.545,60.7499956 163.545,61.625 C163.545,61.8541678 163.529375,62.1145819 163.498125,62.40625 C163.466875,62.6979181 163.404376,62.9999984 163.310625,63.3125 C163.216875,63.6250016 163.081459,63.9374984 162.904375,64.25 C162.727291,64.5625016 162.492918,64.8437488 162.20125,65.09375 C161.930415,65.2812509 161.555419,65.3906248 161.07625,65.421875 C160.597081,65.4531252 160.117919,65.6041653 159.63875,65.875 C159.430416,65.9791672 159.268959,66.1041659 159.154375,66.25 C159.039791,66.3958341 158.914792,66.5364577 158.779375,66.671875 C158.643958,66.8072923 158.482501,66.9218745 158.295,67.015625 C158.107499,67.1093755 157.826252,67.15625 157.45125,67.15625 C157.138748,67.15625 156.867918,67.1145837 156.63875,67.03125 C156.409582,66.9479163 156.190834,66.8489589 155.9825,66.734375 C155.774166,66.6197911 155.571043,66.5000006 155.373125,66.375 C155.175207,66.2499994 154.951251,66.1458337 154.70125,66.0625 C154.159581,65.8749991 153.649169,65.7239589 153.17,65.609375 C152.690831,65.4947911 152.263752,65.3385427 151.88875,65.140625 C151.513748,64.9427073 151.216876,64.6614602 150.998125,64.296875 C150.779374,63.9322898 150.67,63.3854203 150.67,62.65625 C150.67,62.2812481 150.711666,61.8750022 150.795,61.4375 C150.878334,60.9999978 150.92,60.5729187 150.92,60.15625 C150.92,59.156245 150.857501,58.2135461 150.7325,57.328125 C150.607499,56.4427039 150.545,55.7291694 150.545,55.1875 C150.545,54.9374988 150.612708,54.6406267 150.748125,54.296875 C150.883542,53.9531233 151.034583,53.6041684 151.20125,53.25 C151.367918,52.8958316 151.518958,52.5625016 151.654375,52.25 C151.789792,51.9374984 151.867917,51.6770844 151.88875,51.46875 C151.930417,51.1979153 151.961667,50.9479178 151.9825,50.71875 C152.003333,50.4895822 152.01375,50.2500012 152.01375,50 C152.01375,49.4374972 151.977292,48.8750028 151.904375,48.3125 C151.831458,47.7499972 151.748126,47.1979194 151.654375,46.65625 C151.560625,46.1145806 151.477292,45.5833359 151.404375,45.0625 C151.331458,44.5416641 151.295,44.0312525 151.295,43.53125 C151.295,42.1145762 151.331458,40.6406327 151.404375,39.109375 C151.477292,37.5781173 151.550208,36.0260495 151.623125,34.453125 C151.696042,32.8802005 151.768958,31.2864664 151.841875,29.671875 C151.914792,28.0572836 151.95125,26.4479247 151.95125,24.84375 C151.95125,24.4895816 151.925209,24.2083344 151.873125,24 C151.821041,23.7916656 151.680418,23.6875 151.45125,23.6875 C151.263749,23.6875 151.05021,23.7187497 150.810625,23.78125 C150.571041,23.8437503 150.310626,23.9062497 150.029375,23.96875 C149.748124,24.0312503 149.472085,24.0937497 149.20125,24.15625 C148.930415,24.2187503 148.670001,24.25 148.42,24.25 C148.211666,24.25 148.065834,24.2291669 147.9825,24.1875 C147.899166,24.1666666 147.768959,24.1041672 147.591875,24 C147.414791,23.8958328 147.237709,23.7708341 147.060625,23.625 C146.883541,23.4791659 146.727292,23.3177092 146.591875,23.140625 C146.456458,22.9635408 146.38875,22.7812509 146.38875,22.59375 C146.38875,22.3437488 146.466874,22.0625016 146.623125,21.75 C146.779376,21.4374984 146.88875,21.1250016 146.95125,20.8125 C147.076251,20.3333309 147.123125,19.9479181 147.091875,19.65625 C147.060625,19.3645819 147.138749,19.0833347 147.32625,18.8125 C147.492918,18.6458325 147.72729,18.5052089 148.029375,18.390625 C148.33146,18.2760411 148.649165,18.182292 148.9825,18.109375 C149.315835,18.036458 149.643957,17.9843752 149.966875,17.953125 C150.289793,17.9218748 150.544999,17.8958334 150.7325,17.875 C151.940839,17.7499994 153.326242,17.6875 154.88875,17.6875 C155.888755,17.6875 156.914786,17.7135414 157.966875,17.765625 C159.018964,17.8177086 160.050203,17.8906245 161.060625,17.984375 C162.071047,18.0781255 163.044995,18.1979159 163.9825,18.34375 C164.920005,18.4895841 165.774163,18.6458325 166.545,18.8125 C167.336671,19.0000009 168.086663,19.2916647 168.795,19.6875 C169.503337,20.0833353 170.169997,20.5468723 170.795,21.078125 C171.420003,21.6093777 172.013747,22.1822886 172.57625,22.796875 C173.138753,23.4114614 173.690831,24.0104137 174.2325,24.59375 C174.503335,24.9062516 174.763749,25.1979153 175.01375,25.46875 C175.263751,25.7395847 175.487707,25.9947905 175.685625,26.234375 C175.883543,26.4739595 176.039791,26.7187488 176.154375,26.96875 C176.268959,27.2187512 176.32625,27.4895819 176.32625,27.78125 L176.32625,28.5 C176.32625,28.833335 176.367916,29.1041656 176.45125,29.3125 C176.534584,29.5208344 176.628333,29.7031242 176.7325,29.859375 C176.836667,30.0156258 176.951249,30.1718742 177.07625,30.328125 C177.201251,30.4843758 177.315833,30.6770822 177.42,30.90625 C177.4825,31.1145844 177.503333,31.385415 177.4825,31.71875 C177.461667,32.052085 177.503333,32.3645819 177.6075,32.65625 C177.774168,33.2395863 177.977291,33.7135398 178.216875,34.078125 C178.45646,34.4427102 178.57625,34.8229147 178.57625,35.21875 Z M167.76375,34.25 C167.76375,34.0624991 167.685626,33.7760436 167.529375,33.390625 C167.373124,33.0052064 167.295,32.5416694 167.295,32 L167.295,30.71875 C167.295,29.6979116 167.154376,28.7708375 166.873125,27.9375 C166.591874,27.1041625 166.227294,26.390628 165.779375,25.796875 C165.331456,25.203122 164.831461,24.7447933 164.279375,24.421875 C163.727289,24.0989567 163.180419,23.9375 162.63875,23.9375 C162.305415,23.9375 161.98771,23.9583331 161.685625,24 C161.38354,24.0416669 161.034585,24.0625 160.63875,24.0625 C160.388749,24.0625 160.11271,24.0416669 159.810625,24 C159.50854,23.9583331 159.190835,23.8750006 158.8575,23.75 C158.878333,23.9791678 158.904375,24.3958303 158.935625,25 C158.966875,25.6041697 159.003333,26.3333291 159.045,27.1875 C159.086667,28.0416709 159.13875,28.9739533 159.20125,29.984375 C159.26375,30.9947967 159.32625,32.0104116 159.38875,33.03125 C159.45125,34.0520884 159.51375,35.0416619 159.57625,36 C159.63875,36.9583381 159.70125,37.8020797 159.76375,38.53125 C159.82625,39.2604203 159.88875,39.8489561 159.95125,40.296875 C160.01375,40.7447939 160.07625,40.96875 160.13875,40.96875 C160.388751,40.96875 160.623124,40.932292 160.841875,40.859375 C161.060626,40.786458 161.268957,40.6979172 161.466875,40.59375 C161.664793,40.4895828 161.867916,40.3854172 162.07625,40.28125 C162.284584,40.1770828 162.513749,40.0833338 162.76375,40 C163.013751,39.9166662 163.294998,39.8541669 163.6075,39.8125 C163.920002,39.7708331 164.232498,39.7187503 164.545,39.65625 C164.857502,39.5937497 165.154374,39.5104172 165.435625,39.40625 C165.716876,39.3020828 165.961666,39.1562509 166.17,38.96875 C166.420001,38.7187488 166.560625,38.3437525 166.591875,37.84375 C166.623125,37.3437475 166.732499,36.7395869 166.92,36.03125 C167.024167,35.6770816 167.180416,35.3489598 167.38875,35.046875 C167.597084,34.7447902 167.722083,34.4791678 167.76375,34.25 Z M194.79775,29.3125 C194.756083,29.7083353 194.683167,30.072915 194.579,30.40625 C194.474833,30.739585 194.42275,31.1458309 194.42275,31.625 C194.42275,32.2291697 194.443583,32.8437469 194.48525,33.46875 C194.526917,34.0937531 194.54775,34.6770806 194.54775,35.21875 C194.54775,35.7812528 194.490459,36.2395816 194.375875,36.59375 C194.261291,36.9479184 194.115459,37.255207 193.938375,37.515625 C193.761291,37.776043 193.568584,38.0208322 193.36025,38.25 C193.151916,38.4791678 192.959209,38.7499984 192.782125,39.0625 C192.605041,39.3750016 192.459209,39.7708309 192.344625,40.25 C192.230041,40.7291691 192.17275,41.3333297 192.17275,42.0625 C192.17275,43.5416741 192.214416,45.0677005 192.29775,46.640625 C192.381084,48.2135495 192.42275,49.8854078 192.42275,51.65625 C192.42275,52.2395863 192.396709,52.7916641 192.344625,53.3125 C192.292541,53.8333359 192.224834,54.3489558 192.1415,54.859375 C192.058166,55.3697942 191.959209,55.8802058 191.844625,56.390625 C191.730041,56.9010442 191.610251,57.4374972 191.48525,58 C191.339416,58.6458366 191.204001,59.2135392 191.079,59.703125 C190.953999,60.1927108 190.750876,60.604165 190.469625,60.9375 C190.188374,61.270835 189.782128,61.5260408 189.250875,61.703125 C188.719622,61.8802092 187.985255,61.96875 187.04775,61.96875 C186.360247,61.96875 185.860252,61.8177098 185.54775,61.515625 C185.235248,61.2135402 185.000876,60.8177108 184.844625,60.328125 C184.688374,59.8385392 184.558167,59.2864614 184.454,58.671875 C184.349833,58.0572886 184.172751,57.4270866 183.92275,56.78125 C183.756083,56.4062481 183.579001,56.1093761 183.3915,55.890625 C183.203999,55.6718739 183.032126,55.4427095 182.875875,55.203125 C182.719624,54.9635405 182.589417,54.6614602 182.48525,54.296875 C182.381083,53.9322898 182.329,53.41667 182.329,52.75 C182.329,52.2083306 182.355041,51.6250031 182.407125,51 C182.459209,50.3749969 182.5165,49.7343783 182.579,49.078125 C182.6415,48.4218717 182.698791,47.7552117 182.750875,47.078125 C182.802959,46.4010383 182.829,45.72917 182.829,45.0625 C182.829,44.4791637 182.787334,43.9687522 182.704,43.53125 C182.620666,43.0937478 182.532126,42.6770853 182.438375,42.28125 C182.344625,41.8854147 182.256084,41.4739605 182.17275,41.046875 C182.089416,40.6197895 182.04775,40.1041697 182.04775,39.5 C182.04775,38.9166637 182.084208,38.4479184 182.157125,38.09375 C182.230042,37.7395816 182.313375,37.4270847 182.407125,37.15625 C182.500876,36.8854153 182.584208,36.6250012 182.657125,36.375 C182.730042,36.1249988 182.7665,35.8229184 182.7665,35.46875 C182.7665,35.0937481 182.657126,34.7343767 182.438375,34.390625 C182.219624,34.0468733 181.980043,33.7187516 181.719625,33.40625 C181.459207,33.0937484 181.224834,32.7864598 181.0165,32.484375 C180.808166,32.1822902 180.724833,31.8958347 180.7665,31.625 C180.7665,31.4583325 180.79775,31.2604178 180.86025,31.03125 C180.92275,30.8020822 180.990458,30.557293 181.063375,30.296875 C181.136292,30.036457 181.204,29.776043 181.2665,29.515625 C181.329,29.255207 181.36025,29.0000012 181.36025,28.75 C181.36025,27.8958291 181.250876,27.0729206 181.032125,26.28125 C180.813374,25.4895794 180.704,24.7291703 180.704,24 L180.704,23.6875 C180.704,23.5833328 180.724833,23.4791672 180.7665,23.375 C180.808167,23.1249988 180.943582,22.796877 181.17275,22.390625 C181.401918,21.984373 181.662332,21.5885436 181.954,21.203125 C182.245668,20.8177064 182.537332,20.4843764 182.829,20.203125 C183.120668,19.9218736 183.339416,19.78125 183.48525,19.78125 C183.610251,19.78125 183.730041,19.7916666 183.844625,19.8125 C183.959209,19.8333334 184.068583,19.84375 184.17275,19.84375 C184.589419,19.84375 185.125872,19.8020837 185.782125,19.71875 C186.438378,19.6354163 187.120663,19.59375 187.829,19.59375 C188.349836,19.59375 188.870664,19.6093748 189.3915,19.640625 C189.912336,19.6718752 190.396706,19.7187497 190.844625,19.78125 C191.292544,19.8437503 191.688373,19.9270828 192.032125,20.03125 C192.375877,20.1354172 192.641499,20.2708325 192.829,20.4375 C192.8915,20.4791669 193.011291,20.6770816 193.188375,21.03125 C193.365459,21.3854184 193.558166,21.7760395 193.7665,22.203125 C193.974834,22.6302105 194.157124,23.0364564 194.313375,23.421875 C194.469626,23.8072936 194.568583,24.0624994 194.61025,24.1875 C194.67275,24.5416684 194.730041,25.0416634 194.782125,25.6875 C194.834209,26.3333366 194.86025,27.0104131 194.86025,27.71875 C194.86025,27.9687512 194.849833,28.2343736 194.829,28.515625 C194.808167,28.7968764 194.79775,29.0624988 194.79775,29.3125 Z M231.363,28.75 L231.363,28.9375 C231.363,29.2500016 231.321334,29.7447883 231.238,30.421875 C231.154666,31.0989617 231.019251,31.8177045 230.83175,32.578125 C230.644249,33.3385455 230.415085,34.0729131 230.14425,34.78125 C229.873415,35.4895869 229.550502,36.0416647 229.1755,36.4375 C228.821332,36.7916684 228.347378,37.0312494 227.753625,37.15625 C227.159872,37.2812506 226.592169,37.4374991 226.0505,37.625 C225.612998,37.7916675 225.149461,38.0104153 224.659875,38.28125 C224.170289,38.5520847 223.680711,38.8124988 223.191125,39.0625 C222.701539,39.3125012 222.211961,39.5312491 221.722375,39.71875 C221.232789,39.9062509 220.758836,40 220.3005,40 C219.987999,40 219.639044,39.9218758 219.253625,39.765625 C218.868206,39.6093742 218.508835,39.3541684 218.1755,39 C217.842165,38.6458316 217.566126,38.1875028 217.347375,37.625 C217.128624,37.0624972 217.01925,36.3645875 217.01925,35.53125 C217.01925,35.0104141 217.040083,34.4687528 217.08175,33.90625 C217.123417,33.3437472 217.14425,32.7916694 217.14425,32.25 C217.14425,31.6666637 217.097376,31.005212 217.003625,30.265625 C216.909875,29.526038 216.779668,28.8333366 216.613,28.1875 C216.446333,27.5416634 216.258834,26.9947939 216.0505,26.546875 C215.842166,26.0989561 215.613001,25.875 215.363,25.875 C215.175499,25.875 214.96196,25.9166663 214.722375,26 C214.482791,26.0833337 214.206752,26.125 213.89425,26.125 C213.519248,26.125 213.232793,26.0833337 213.034875,26 C212.836957,25.9166663 212.675501,25.8281255 212.5505,25.734375 C212.425499,25.6406245 212.310917,25.5520837 212.20675,25.46875 C212.102583,25.3854163 211.956751,25.34375 211.76925,25.34375 C211.269248,25.34375 210.889043,25.4531239 210.628625,25.671875 C210.368207,25.8906261 210.175501,26.1874981 210.0505,26.5625 C209.925499,26.9375019 209.826542,27.3645809 209.753625,27.84375 C209.680708,28.3229191 209.571334,28.8124975 209.4255,29.3125 C209.321333,29.6666684 209.133835,30.0624978 208.863,30.5 C208.592165,30.9375022 208.394251,31.3958309 208.26925,31.875 C208.102583,32.3541691 207.967167,32.8802055 207.863,33.453125 C207.758833,34.0260445 207.613001,34.6145803 207.4255,35.21875 C207.258833,35.7395859 207.066126,36.3958294 206.847375,37.1875 C206.628624,37.9791706 206.415084,38.8124956 206.20675,39.6875 C205.998416,40.5625044 205.821334,41.4374956 205.6755,42.3125 C205.529666,43.1875044 205.45675,43.95833 205.45675,44.625 C205.45675,45.5833381 205.769247,46.5156205 206.39425,47.421875 C207.019253,48.3281295 207.831745,49.0833303 208.83175,49.6875 C209.123418,49.8541675 209.534872,49.9947911 210.066125,50.109375 C210.597378,50.2239589 211.102581,50.3958322 211.58175,50.625 C212.040086,50.8541678 212.435915,51.0781239 212.76925,51.296875 C213.102585,51.5156261 213.456748,51.7135408 213.83175,51.890625 C214.206752,52.0677092 214.649456,52.2135411 215.159875,52.328125 C215.670294,52.4427089 216.331746,52.5 217.14425,52.5 C217.894254,52.5 218.659871,52.4218758 219.441125,52.265625 C220.222379,52.1093742 220.967163,51.9062512 221.6755,51.65625 C222.383837,51.4062488 223.029664,51.1250016 223.613,50.8125 C224.196336,50.4999984 224.665082,50.1875016 225.01925,49.875 C225.144251,49.7708328 225.347374,49.5468767 225.628625,49.203125 C225.909876,48.8593733 226.237998,48.5000019 226.613,48.125 C226.988002,47.7499981 227.404664,47.4114598 227.863,47.109375 C228.321336,46.8072902 228.810914,46.65625 229.33175,46.65625 C229.435917,46.65625 229.597374,46.6822914 229.816125,46.734375 C230.034876,46.7864586 230.253624,46.8906242 230.472375,47.046875 C230.691126,47.2031258 230.883833,47.4270819 231.0505,47.71875 C231.217168,48.0104181 231.3005,48.3854144 231.3005,48.84375 C231.3005,49.4479197 231.217168,50.0729134 231.0505,50.71875 C230.883833,51.3645866 230.8005,51.9791637 230.8005,52.5625 C230.8005,52.8125012 230.810917,53.1249981 230.83175,53.5 C230.852584,53.8750019 230.863,54.2395816 230.863,54.59375 C230.863,55.3229203 230.639044,56.0624962 230.191125,56.8125 C229.743206,57.5625038 228.956756,58.3437459 227.83175,59.15625 C227.477582,59.4062513 227.040086,59.6302073 226.51925,59.828125 C225.998414,60.0260427 225.498419,60.2708319 225.01925,60.5625 C224.519248,60.8750016 223.988003,61.1874984 223.4255,61.5 C222.862997,61.8125016 222.415085,61.96875 222.08175,61.96875 C221.769249,61.96875 221.446335,61.9270837 221.113,61.84375 C220.779665,61.7604163 220.404669,61.71875 219.988,61.71875 C219.32133,61.71875 218.670295,61.7395831 218.034875,61.78125 C217.399455,61.8229169 216.74842,61.84375 216.08175,61.84375 C215.748415,61.84375 215.378627,61.8385417 214.972375,61.828125 C214.566123,61.8177083 214.154669,61.7968752 213.738,61.765625 C213.321331,61.7343748 212.909877,61.6979169 212.503625,61.65625 C212.097373,61.6145831 211.727585,61.5625003 211.39425,61.5 C211.144249,61.4791666 210.857793,61.4531252 210.534875,61.421875 C210.211957,61.3906248 209.894252,61.3593752 209.58175,61.328125 C209.269249,61.2968748 208.99321,61.2656252 208.753625,61.234375 C208.514041,61.2031248 208.352584,61.1666669 208.26925,61.125 C208.123416,61.0624997 207.988001,60.9479175 207.863,60.78125 C207.737999,60.6145825 207.607792,60.4218761 207.472375,60.203125 C207.336958,59.9843739 207.191126,59.7656261 207.034875,59.546875 C206.878624,59.3281239 206.685918,59.1250009 206.45675,58.9375 C206.206749,58.7499991 205.925502,58.619792 205.613,58.546875 C205.300499,58.473958 205.050501,58.3541675 204.863,58.1875 C204.612999,57.854165 204.326543,57.4895853 204.003625,57.09375 C203.680707,56.6979147 203.373418,56.333335 203.08175,56 C202.748415,55.4791641 202.488001,54.9375028 202.3005,54.375 C202.112999,53.8124972 201.863002,53.3541684 201.5505,53 C201.425499,52.8749994 201.253626,52.7552089 201.034875,52.640625 C200.816124,52.5260411 200.581751,52.4010423 200.33175,52.265625 C200.081749,52.1302077 199.83696,51.9843758 199.597375,51.828125 C199.357791,51.6718742 199.154668,51.4895844 198.988,51.28125 C198.904666,51.2187497 198.784876,51.0520847 198.628625,50.78125 C198.472374,50.5104153 198.316126,50.2291681 198.159875,49.9375 C198.003624,49.6458319 197.868209,49.3906261 197.753625,49.171875 C197.639041,48.9531239 197.58175,48.8645831 197.58175,48.90625 C197.58175,48.7812494 197.628625,48.6197927 197.722375,48.421875 C197.816126,48.2239573 197.925499,48.0208344 198.0505,47.8125 C198.175501,47.6041656 198.284875,47.3958344 198.378625,47.1875 C198.472376,46.9791656 198.51925,46.8020841 198.51925,46.65625 C198.51925,46.3020816 198.467167,45.9843764 198.363,45.703125 C198.258833,45.4218736 198.185917,45.1041684 198.14425,44.75 C198.14425,44.0416631 198.1755,43.1197973 198.238,41.984375 C198.3005,40.8489527 198.399458,39.6354231 198.534875,38.34375 C198.670292,37.0520769 198.836957,35.7552148 199.034875,34.453125 C199.232793,33.1510352 199.467165,31.9687553 199.738,30.90625 C199.967168,30.0729125 200.227582,29.2187544 200.51925,28.34375 C200.810918,27.4687456 200.95675,26.6458372 200.95675,25.875 C200.95675,25.6041653 200.935917,25.3333347 200.89425,25.0625 C200.852583,24.7916653 200.83175,24.5208347 200.83175,24.25 C200.83175,23.6874972 200.998415,23.2500016 201.33175,22.9375 C201.665085,22.6249984 202.071331,22.3489595 202.5505,22.109375 C203.029669,21.8697905 203.540081,21.6354178 204.08175,21.40625 C204.623419,21.1770822 205.102581,20.8541688 205.51925,20.4375 C205.623417,20.3124994 205.70675,20.1354178 205.76925,19.90625 C205.83175,19.6770822 205.883833,19.4479178 205.9255,19.21875 C205.967167,18.9895822 206.008833,18.7656261 206.0505,18.546875 C206.092167,18.3281239 206.165083,18.1666672 206.26925,18.0625 C206.33175,17.9791663 206.420291,17.9270834 206.534875,17.90625 C206.649459,17.8854166 206.784874,17.8645834 206.941125,17.84375 C207.097376,17.8229166 207.274457,17.7864586 207.472375,17.734375 C207.670293,17.6822914 207.873416,17.5937506 208.08175,17.46875 C208.290084,17.3437494 208.451541,17.2135423 208.566125,17.078125 C208.680709,16.9427077 208.790083,16.8229172 208.89425,16.71875 C208.998417,16.6145828 209.123416,16.5312503 209.26925,16.46875 C209.415084,16.4062497 209.612999,16.3854166 209.863,16.40625 C210.092168,16.40625 210.326541,16.4166666 210.566125,16.4375 C210.80571,16.4583334 211.019249,16.46875 211.20675,16.46875 C211.519252,16.46875 211.847373,16.4583334 212.191125,16.4375 C212.534877,16.4166666 212.883832,16.40625 213.238,16.40625 C213.821336,16.40625 214.300498,16.4687494 214.6755,16.59375 C215.050502,16.7187506 215.383832,16.8593742 215.6755,17.015625 C215.967168,17.1718758 216.248415,17.3333325 216.51925,17.5 C216.790085,17.6666675 217.133831,17.7916662 217.5505,17.875 C218.113003,17.9791672 218.680706,18.0364583 219.253625,18.046875 C219.826545,18.0572917 220.383831,18.0677083 220.9255,18.078125 C221.467169,18.0885417 222.003622,18.130208 222.534875,18.203125 C223.066128,18.276042 223.581748,18.4166656 224.08175,18.625 C224.373418,18.7500006 224.680707,18.9739567 225.003625,19.296875 C225.326543,19.6197933 225.675498,19.9270819 226.0505,20.21875 C226.404669,20.4895847 226.784873,20.7239573 227.191125,20.921875 C227.597377,21.1197927 227.883833,21.3333322 228.0505,21.5625 C228.175501,21.7916678 228.284875,22.1354144 228.378625,22.59375 C228.472376,23.0520856 228.612999,23.4374984 228.8005,23.75 C228.988001,24.083335 229.222374,24.4322898 229.503625,24.796875 C229.784876,25.1614602 230.060915,25.546873 230.33175,25.953125 C230.602585,26.359377 230.831749,26.7968727 231.01925,27.265625 C231.206751,27.7343773 231.321333,28.2291641 231.363,28.75 Z M267.67825,28.75 L267.67825,28.9375 C267.67825,29.2500016 267.636584,29.7447883 267.55325,30.421875 C267.469916,31.0989617 267.334501,31.8177045 267.147,32.578125 C266.959499,33.3385455 266.730335,34.0729131 266.4595,34.78125 C266.188665,35.4895869 265.865752,36.0416647 265.49075,36.4375 C265.136582,36.7916684 264.662628,37.0312494 264.068875,37.15625 C263.475122,37.2812506 262.907419,37.4374991 262.36575,37.625 C261.928248,37.7916675 261.464711,38.0104153 260.975125,38.28125 C260.485539,38.5520847 259.995961,38.8124988 259.506375,39.0625 C259.016789,39.3125012 258.527211,39.5312491 258.037625,39.71875 C257.548039,39.9062509 257.074086,40 256.61575,40 C256.303249,40 255.954294,39.9218758 255.568875,39.765625 C255.183456,39.6093742 254.824085,39.3541684 254.49075,39 C254.157415,38.6458316 253.881376,38.1875028 253.662625,37.625 C253.443874,37.0624972 253.3345,36.3645875 253.3345,35.53125 C253.3345,35.0104141 253.355333,34.4687528 253.397,33.90625 C253.438667,33.3437472 253.4595,32.7916694 253.4595,32.25 C253.4595,31.6666637 253.412626,31.005212 253.318875,30.265625 C253.225125,29.526038 253.094918,28.8333366 252.92825,28.1875 C252.761583,27.5416634 252.574084,26.9947939 252.36575,26.546875 C252.157416,26.0989561 251.928251,25.875 251.67825,25.875 C251.490749,25.875 251.27721,25.9166663 251.037625,26 C250.798041,26.0833337 250.522002,26.125 250.2095,26.125 C249.834498,26.125 249.548043,26.0833337 249.350125,26 C249.152207,25.9166663 248.990751,25.8281255 248.86575,25.734375 C248.740749,25.6406245 248.626167,25.5520837 248.522,25.46875 C248.417833,25.3854163 248.272001,25.34375 248.0845,25.34375 C247.584498,25.34375 247.204293,25.4531239 246.943875,25.671875 C246.683457,25.8906261 246.490751,26.1874981 246.36575,26.5625 C246.240749,26.9375019 246.141792,27.3645809 246.068875,27.84375 C245.995958,28.3229191 245.886584,28.8124975 245.74075,29.3125 C245.636583,29.6666684 245.449085,30.0624978 245.17825,30.5 C244.907415,30.9375022 244.709501,31.3958309 244.5845,31.875 C244.417833,32.3541691 244.282417,32.8802055 244.17825,33.453125 C244.074083,34.0260445 243.928251,34.6145803 243.74075,35.21875 C243.574083,35.7395859 243.381376,36.3958294 243.162625,37.1875 C242.943874,37.9791706 242.730334,38.8124956 242.522,39.6875 C242.313666,40.5625044 242.136584,41.4374956 241.99075,42.3125 C241.844916,43.1875044 241.772,43.95833 241.772,44.625 C241.772,45.5833381 242.084497,46.5156205 242.7095,47.421875 C243.334503,48.3281295 244.146995,49.0833303 245.147,49.6875 C245.438668,49.8541675 245.850122,49.9947911 246.381375,50.109375 C246.912628,50.2239589 247.417831,50.3958322 247.897,50.625 C248.355336,50.8541678 248.751165,51.0781239 249.0845,51.296875 C249.417835,51.5156261 249.771998,51.7135408 250.147,51.890625 C250.522002,52.0677092 250.964706,52.2135411 251.475125,52.328125 C251.985544,52.4427089 252.646996,52.5 253.4595,52.5 C254.209504,52.5 254.975121,52.4218758 255.756375,52.265625 C256.537629,52.1093742 257.282413,51.9062512 257.99075,51.65625 C258.699087,51.4062488 259.344914,51.1250016 259.92825,50.8125 C260.511586,50.4999984 260.980332,50.1875016 261.3345,49.875 C261.459501,49.7708328 261.662624,49.5468767 261.943875,49.203125 C262.225126,48.8593733 262.553248,48.5000019 262.92825,48.125 C263.303252,47.7499981 263.719914,47.4114598 264.17825,47.109375 C264.636586,46.8072902 265.126164,46.65625 265.647,46.65625 C265.751167,46.65625 265.912624,46.6822914 266.131375,46.734375 C266.350126,46.7864586 266.568874,46.8906242 266.787625,47.046875 C267.006376,47.2031258 267.199083,47.4270819 267.36575,47.71875 C267.532418,48.0104181 267.61575,48.3854144 267.61575,48.84375 C267.61575,49.4479197 267.532418,50.0729134 267.36575,50.71875 C267.199083,51.3645866 267.11575,51.9791637 267.11575,52.5625 C267.11575,52.8125012 267.126167,53.1249981 267.147,53.5 C267.167834,53.8750019 267.17825,54.2395816 267.17825,54.59375 C267.17825,55.3229203 266.954294,56.0624962 266.506375,56.8125 C266.058456,57.5625038 265.272006,58.3437459 264.147,59.15625 C263.792832,59.4062513 263.355336,59.6302073 262.8345,59.828125 C262.313664,60.0260427 261.813669,60.2708319 261.3345,60.5625 C260.834498,60.8750016 260.303253,61.1874984 259.74075,61.5 C259.178247,61.8125016 258.730335,61.96875 258.397,61.96875 C258.084499,61.96875 257.761585,61.9270837 257.42825,61.84375 C257.094915,61.7604163 256.719919,61.71875 256.30325,61.71875 C255.63658,61.71875 254.985545,61.7395831 254.350125,61.78125 C253.714705,61.8229169 253.06367,61.84375 252.397,61.84375 C252.063665,61.84375 251.693877,61.8385417 251.287625,61.828125 C250.881373,61.8177083 250.469919,61.7968752 250.05325,61.765625 C249.636581,61.7343748 249.225127,61.6979169 248.818875,61.65625 C248.412623,61.6145831 248.042835,61.5625003 247.7095,61.5 C247.459499,61.4791666 247.173043,61.4531252 246.850125,61.421875 C246.527207,61.3906248 246.209502,61.3593752 245.897,61.328125 C245.584499,61.2968748 245.30846,61.2656252 245.068875,61.234375 C244.829291,61.2031248 244.667834,61.1666669 244.5845,61.125 C244.438666,61.0624997 244.303251,60.9479175 244.17825,60.78125 C244.053249,60.6145825 243.923042,60.4218761 243.787625,60.203125 C243.652208,59.9843739 243.506376,59.7656261 243.350125,59.546875 C243.193874,59.3281239 243.001168,59.1250009 242.772,58.9375 C242.521999,58.7499991 242.240752,58.619792 241.92825,58.546875 C241.615749,58.473958 241.365751,58.3541675 241.17825,58.1875 C240.928249,57.854165 240.641793,57.4895853 240.318875,57.09375 C239.995957,56.6979147 239.688668,56.333335 239.397,56 C239.063665,55.4791641 238.803251,54.9375028 238.61575,54.375 C238.428249,53.8124972 238.178252,53.3541684 237.86575,53 C237.740749,52.8749994 237.568876,52.7552089 237.350125,52.640625 C237.131374,52.5260411 236.897001,52.4010423 236.647,52.265625 C236.396999,52.1302077 236.15221,51.9843758 235.912625,51.828125 C235.673041,51.6718742 235.469918,51.4895844 235.30325,51.28125 C235.219916,51.2187497 235.100126,51.0520847 234.943875,50.78125 C234.787624,50.5104153 234.631376,50.2291681 234.475125,49.9375 C234.318874,49.6458319 234.183459,49.3906261 234.068875,49.171875 C233.954291,48.9531239 233.897,48.8645831 233.897,48.90625 C233.897,48.7812494 233.943875,48.6197927 234.037625,48.421875 C234.131376,48.2239573 234.240749,48.0208344 234.36575,47.8125 C234.490751,47.6041656 234.600125,47.3958344 234.693875,47.1875 C234.787626,46.9791656 234.8345,46.8020841 234.8345,46.65625 C234.8345,46.3020816 234.782417,45.9843764 234.67825,45.703125 C234.574083,45.4218736 234.501167,45.1041684 234.4595,44.75 C234.4595,44.0416631 234.49075,43.1197973 234.55325,41.984375 C234.61575,40.8489527 234.714708,39.6354231 234.850125,38.34375 C234.985542,37.0520769 235.152207,35.7552148 235.350125,34.453125 C235.548043,33.1510352 235.782415,31.9687553 236.05325,30.90625 C236.282418,30.0729125 236.542832,29.2187544 236.8345,28.34375 C237.126168,27.4687456 237.272,26.6458372 237.272,25.875 C237.272,25.6041653 237.251167,25.3333347 237.2095,25.0625 C237.167833,24.7916653 237.147,24.5208347 237.147,24.25 C237.147,23.6874972 237.313665,23.2500016 237.647,22.9375 C237.980335,22.6249984 238.386581,22.3489595 238.86575,22.109375 C239.344919,21.8697905 239.855331,21.6354178 240.397,21.40625 C240.938669,21.1770822 241.417831,20.8541688 241.8345,20.4375 C241.938667,20.3124994 242.022,20.1354178 242.0845,19.90625 C242.147,19.6770822 242.199083,19.4479178 242.24075,19.21875 C242.282417,18.9895822 242.324083,18.7656261 242.36575,18.546875 C242.407417,18.3281239 242.480333,18.1666672 242.5845,18.0625 C242.647,17.9791663 242.735541,17.9270834 242.850125,17.90625 C242.964709,17.8854166 243.100124,17.8645834 243.256375,17.84375 C243.412626,17.8229166 243.589707,17.7864586 243.787625,17.734375 C243.985543,17.6822914 244.188666,17.5937506 244.397,17.46875 C244.605334,17.3437494 244.766791,17.2135423 244.881375,17.078125 C244.995959,16.9427077 245.105333,16.8229172 245.2095,16.71875 C245.313667,16.6145828 245.438666,16.5312503 245.5845,16.46875 C245.730334,16.4062497 245.928249,16.3854166 246.17825,16.40625 C246.407418,16.40625 246.641791,16.4166666 246.881375,16.4375 C247.12096,16.4583334 247.334499,16.46875 247.522,16.46875 C247.834502,16.46875 248.162623,16.4583334 248.506375,16.4375 C248.850127,16.4166666 249.199082,16.40625 249.55325,16.40625 C250.136586,16.40625 250.615748,16.4687494 250.99075,16.59375 C251.365752,16.7187506 251.699082,16.8593742 251.99075,17.015625 C252.282418,17.1718758 252.563665,17.3333325 252.8345,17.5 C253.105335,17.6666675 253.449081,17.7916662 253.86575,17.875 C254.428253,17.9791672 254.995956,18.0364583 255.568875,18.046875 C256.141795,18.0572917 256.699081,18.0677083 257.24075,18.078125 C257.782419,18.0885417 258.318872,18.130208 258.850125,18.203125 C259.381378,18.276042 259.896998,18.4166656 260.397,18.625 C260.688668,18.7500006 260.995957,18.9739567 261.318875,19.296875 C261.641793,19.6197933 261.990748,19.9270819 262.36575,20.21875 C262.719919,20.4895847 263.100123,20.7239573 263.506375,20.921875 C263.912627,21.1197927 264.199083,21.3333322 264.36575,21.5625 C264.490751,21.7916678 264.600125,22.1354144 264.693875,22.59375 C264.787626,23.0520856 264.928249,23.4374984 265.11575,23.75 C265.303251,24.083335 265.537624,24.4322898 265.818875,24.796875 C266.100126,25.1614602 266.376165,25.546873 266.647,25.953125 C266.917835,26.359377 267.146999,26.7968727 267.3345,27.265625 C267.522001,27.7343773 267.636583,28.2291641 267.67825,28.75 Z M303.9935,46.96875 C303.951833,47.5520863 303.847668,48.1041641 303.681,48.625 C303.514333,49.1458359 303.431,49.6666641 303.431,50.1875 C303.431,50.4375012 303.451833,50.7604147 303.4935,51.15625 C303.535167,51.5520853 303.556,51.9791644 303.556,52.4375 C303.556,53.2291706 303.368502,53.9374969 302.9935,54.5625 C302.618498,55.1875031 302.139336,55.7708306 301.556,56.3125 C300.972664,56.8541694 300.321629,57.3802058 299.602875,57.890625 C298.884121,58.4010442 298.170587,58.9270806 297.46225,59.46875 C296.962248,59.8645853 296.545585,60.2604147 296.21225,60.65625 C295.878915,61.0520853 295.493502,61.4062484 295.056,61.71875 C294.618498,62.0312516 294.06642,62.2864573 293.39975,62.484375 C292.73308,62.6822927 291.806006,62.78125 290.6185,62.78125 C289.972664,62.78125 289.311212,62.7343755 288.634125,62.640625 C287.957038,62.5468745 287.28517,62.4375006 286.6185,62.3125 C285.95183,62.1874994 285.311211,62.0781255 284.696625,61.984375 C284.082039,61.8906245 283.514336,61.84375 282.9935,61.84375 C282.555998,61.84375 282.139335,61.8854163 281.7435,61.96875 C281.347665,62.0520837 280.951835,62.09375 280.556,62.09375 C280.389333,62.09375 280.097669,62.0260423 279.681,61.890625 C279.264331,61.7552077 278.816419,61.5677095 278.33725,61.328125 C277.858081,61.0885405 277.378919,60.7968767 276.89975,60.453125 C276.420581,60.1093733 276.024752,59.7187522 275.71225,59.28125 C275.420582,58.8854147 275.238292,58.4635439 275.165375,58.015625 C275.092458,57.5677061 274.951834,57.1354187 274.7435,56.71875 C274.451832,56.1979141 274.071627,55.6979191 273.602875,55.21875 C273.134123,54.7395809 272.722669,54.16667 272.3685,53.5 C272.055999,52.8958303 271.785168,52.1666709 271.556,51.3125 C271.326832,50.4583291 271.066418,49.6145875 270.77475,48.78125 C270.399748,47.6770778 270.02996,46.6875044 269.665375,45.8125 C269.30079,44.9374956 269.1185,44.1979197 269.1185,43.59375 C269.1185,42.9062466 269.212249,42.1718789 269.39975,41.390625 C269.587251,40.6093711 269.837249,39.8802117 270.14975,39.203125 C270.462252,38.5260383 270.821623,37.9687522 271.227875,37.53125 C271.634127,37.0937478 272.055998,36.875 272.4935,36.875 C272.722668,36.875 272.962249,36.9166662 273.21225,37 C273.462251,37.0833338 273.722665,37.125 273.9935,37.125 C274.347669,37.0833331 274.644541,36.9791675 274.884125,36.8125 C275.12371,36.6458325 275.378915,36.5625 275.64975,36.5625 C275.920585,36.5625 276.305998,36.6093745 276.806,36.703125 C277.306003,36.7968755 277.821622,36.9166659 278.352875,37.0625 C278.884128,37.2083341 279.384123,37.3541659 279.852875,37.5 C280.321627,37.6458341 280.670582,37.7812494 280.89975,37.90625 C281.233085,38.0729175 281.587248,38.3645813 281.96225,38.78125 C282.337252,39.1979187 282.680999,39.6562475 282.9935,40.15625 C283.306002,40.6562525 283.566416,41.1770806 283.77475,41.71875 C283.983084,42.2604194 284.08725,42.7395813 284.08725,43.15625 C284.08725,43.3854178 284.076834,43.6197905 284.056,43.859375 C284.035167,44.0989595 284.02475,44.3333322 284.02475,44.5625 C284.02475,44.9791687 284.097666,45.4010395 284.2435,45.828125 C284.389334,46.2552105 284.514333,46.7291641 284.6185,47.25 C284.701834,47.8333363 284.759125,48.3854141 284.790375,48.90625 C284.821625,49.4270859 284.8685,49.9114561 284.931,50.359375 C284.9935,50.8072939 285.082041,51.2291647 285.196625,51.625 C285.311209,52.0208353 285.514332,52.3958316 285.806,52.75 C286.222669,53.2916694 286.805996,53.7239567 287.556,54.046875 C288.306004,54.3697933 289.04558,54.53125 289.77475,54.53125 C290.233086,54.53125 290.602874,54.4583341 290.884125,54.3125 C291.165376,54.1666659 291.410166,53.9895844 291.6185,53.78125 C291.826834,53.5729156 292.029957,53.3593761 292.227875,53.140625 C292.425793,52.9218739 292.660165,52.7291675 292.931,52.5625 C293.347669,52.3124988 293.743498,52.1197923 294.1185,51.984375 C294.493502,51.8489577 294.826832,51.6718761 295.1185,51.453125 C295.410168,51.2343739 295.639333,50.9375019 295.806,50.5625 C295.972668,50.1874981 296.056,49.6354203 296.056,48.90625 C296.056,48.3229137 295.946626,47.7031283 295.727875,47.046875 C295.509124,46.3906217 295.3685,45.72917 295.306,45.0625 C295.2435,44.4791637 295.201834,43.984377 295.181,43.578125 C295.160167,43.171873 295.123709,42.7864602 295.071625,42.421875 C295.019541,42.0572898 294.931001,41.6927102 294.806,41.328125 C294.680999,40.9635398 294.462252,40.5416691 294.14975,40.0625 C294.066416,39.9791662 293.878918,39.7656267 293.58725,39.421875 C293.295582,39.0781233 292.957044,38.7187519 292.571625,38.34375 C292.186206,37.9687481 291.774752,37.6302098 291.33725,37.328125 C290.899748,37.0260402 290.493502,36.875 290.1185,36.875 C289.951833,36.875 289.790376,36.8854166 289.634125,36.90625 C289.477874,36.9270834 289.316418,36.9375 289.14975,36.9375 C288.48308,36.9375 287.800795,36.7916681 287.102875,36.5 C286.404955,36.2083319 285.69142,35.8489605 284.96225,35.421875 C284.23308,34.9947895 283.493504,34.5416691 282.7435,34.0625 C281.993496,33.5833309 281.243504,33.1562519 280.4935,32.78125 C279.868497,32.4687484 279.165379,32.1770847 278.384125,31.90625 C277.602871,31.6354153 276.868504,31.333335 276.181,31 C275.493497,30.666665 274.920586,30.2760439 274.46225,29.828125 C274.003914,29.3802061 273.77475,28.82292 273.77475,28.15625 C273.77475,28.0312494 273.800791,27.7812519 273.852875,27.40625 C273.904959,27.0312481 273.972666,26.5989608 274.056,26.109375 C274.139334,25.6197892 274.243499,25.0885445 274.3685,24.515625 C274.493501,23.9427055 274.639333,23.3906277 274.806,22.859375 C274.972668,22.3281223 275.144541,21.8437522 275.321625,21.40625 C275.498709,20.9687478 275.691416,20.6250012 275.89975,20.375 C276.191418,20.0208316 276.561206,19.677085 277.009125,19.34375 C277.457044,19.010415 277.899748,18.713543 278.33725,18.453125 C278.774752,18.192707 279.165373,17.9843758 279.509125,17.828125 C279.852877,17.6718742 280.076833,17.59375 280.181,17.59375 C280.368501,17.59375 280.550791,17.6093748 280.727875,17.640625 C280.904959,17.6718752 281.087249,17.6875 281.27475,17.6875 C281.670585,17.6875 282.009124,17.6406255 282.290375,17.546875 C282.571626,17.4531245 282.821624,17.3333341 283.040375,17.1875 C283.259126,17.0416659 283.472666,16.9010423 283.681,16.765625 C283.889334,16.6302077 284.128915,16.5104172 284.39975,16.40625 C284.753919,16.2604159 285.186206,16.1822917 285.696625,16.171875 C286.207044,16.1614583 286.712248,16.1041672 287.21225,16 C287.795586,15.8749994 288.529954,15.7239592 289.415375,15.546875 C290.300796,15.3697908 291.196621,15.2031258 292.102875,15.046875 C293.00913,14.8906242 293.858079,14.7604172 294.64975,14.65625 C295.441421,14.5520828 296.035165,14.5104166 296.431,14.53125 C296.639334,14.53125 296.863291,14.5833328 297.102875,14.6875 C297.34246,14.7916672 297.524749,15.0208316 297.64975,15.375 C297.920585,15.5625009 298.233082,15.6979162 298.58725,15.78125 C298.941419,15.8645838 299.233082,15.9999991 299.46225,16.1875 C299.774752,16.4583347 300.102873,16.8124978 300.446625,17.25 C300.790377,17.6875022 301.118499,18.0624984 301.431,18.375 L302.259125,19.203125 C302.49871,19.4427095 302.696624,19.6718739 302.852875,19.890625 C303.009126,20.1093761 303.123708,20.3385405 303.196625,20.578125 C303.269542,20.8177095 303.306,21.104165 303.306,21.4375 C303.306,22.10417 303.233084,22.7499969 303.08725,23.375 C302.941416,24.0000031 302.696627,24.5572892 302.352875,25.046875 C302.009123,25.5364608 301.550795,25.9322902 300.977875,26.234375 C300.404956,26.5364598 299.681004,26.6875 298.806,26.6875 C298.285164,26.6875 297.72267,26.6302089 297.1185,26.515625 C296.51433,26.4010411 295.972669,26.2500009 295.4935,26.0625 C295.243499,25.9791662 294.993501,25.8437509 294.7435,25.65625 C294.493499,25.4687491 294.243501,25.2760427 293.9935,25.078125 C293.743499,24.8802073 293.483085,24.6875009 293.21225,24.5 C292.941415,24.3124991 292.649752,24.1666672 292.33725,24.0625 C292.024749,23.9583328 291.618503,23.8593755 291.1185,23.765625 C290.618498,23.6718745 290.102878,23.5937503 289.571625,23.53125 C289.040372,23.4687497 288.524753,23.4166669 288.02475,23.375 C287.524748,23.3333331 287.108085,23.3125 286.77475,23.3125 C286.337248,23.3125 285.910169,23.3385414 285.4935,23.390625 C285.076831,23.4427086 284.707043,23.5468742 284.384125,23.703125 C284.061207,23.8593758 283.795584,24.0729153 283.58725,24.34375 C283.378916,24.6145847 283.27475,24.9687478 283.27475,25.40625 C283.27475,25.6562512 283.321625,25.8749991 283.415375,26.0625 C283.509126,26.2500009 283.644541,26.4218742 283.821625,26.578125 C283.998709,26.7343758 284.222665,26.8958325 284.4935,27.0625 C284.764335,27.2291675 285.076832,27.4270822 285.431,27.65625 C285.743502,27.8645844 286.05079,28.0937488 286.352875,28.34375 C286.65496,28.5937512 286.95704,28.8333322 287.259125,29.0625 C287.56121,29.2916678 287.868499,29.5104156 288.181,29.71875 C288.493502,29.9270844 288.816415,30.0937494 289.14975,30.21875 C289.545585,30.3437506 289.95704,30.4218748 290.384125,30.453125 C290.811211,30.4843752 291.191415,30.5312497 291.52475,30.59375 C292.753923,30.8854181 293.904953,31.3072889 294.977875,31.859375 C296.050797,32.4114611 297.045579,33.0520797 297.96225,33.78125 C298.878921,34.5104203 299.707038,35.2968708 300.446625,36.140625 C301.186212,36.9843792 301.837247,37.8437456 302.39975,38.71875 C302.670585,39.1562522 302.889333,39.5468733 303.056,39.890625 C303.222668,40.2343767 303.347666,40.5781233 303.431,40.921875 C303.514334,41.2656267 303.566417,41.6354147 303.58725,42.03125 C303.608084,42.4270853 303.6185,42.9062472 303.6185,43.46875 C303.6185,44.1145866 303.680999,44.7395803 303.806,45.34375 C303.931001,45.9479197 303.9935,46.4895809 303.9935,46.96875 Z" id="path-2"></path>
        <filter x="-2.7%" y="-11.4%" width="105.3%" height="130.4%" filterUnits="objectBoundingBox" id="filter-3">
            <feMorphology radius="1" operator="dilate" in="SourceAlpha" result="shadowSpreadOuter1"></feMorphology>
            <feOffset dx="0" dy="2" in="shadowSpreadOuter1" result="shadowOffsetOuter1"></feOffset>
            <feGaussianBlur stdDeviation="2" in="shadowOffsetOuter1" result="shadowBlurOuter1"></feGaussianBlur>
            <feComposite in="shadowBlurOuter1" in2="SourceAlpha" operator="out" result="shadowBlurOuter1"></feComposite>
            <feColorMatrix values="0 0 0 0 0   0 0 0 0 0   0 0 0 0 0  0 0 0 0.25 0" type="matrix" in="shadowBlurOuter1"></feColorMatrix>
        </filter>
    </defs>
    <g id="Page-1" stroke="none" stroke-width="1" fill="none" fill-rule="evenodd">
        <g id="SICC-PICCS" transform="translate(154.434250, 40.841146) rotate(5.286273) translate(-154.434250, -40.841146) ">
            <use fill="black" fill-opacity="1" filter="url(#filter-3)" xlink:href="#path-2"></use>
            <use fill="url(#linearGradient-1)" fill-rule="evenodd" xlink:href="#path-2"></use>
        </g>
    </g>
</svg>