<?xml version="1.0" encoding="UTF-8"?>
<svg width="150px" height="75px" viewBox="0 0 150 75" version="1.1" xmlns="http://www.w3.org/2000/svg" xmlns:xlink="http://www.w3.org/1999/xlink">
    <!-- Generator: Sketch 51.3 (57544) - http://www.bohemiancoding.com/sketch -->
    <title>favicon</title>
    <desc>Created with Sketch.</desc>
    <defs>
        <linearGradient x1="67.4464742%" y1="-73.4980137%" x2="39.7829712%" y2="287.251145%" id="linearGradient-1">
            <stop stop-color="#24F236" offset="0%"></stop>
            <stop stop-color="#BD10E0" offset="100%"></stop>
        </linearGradient>
        <path d="M46.8611838,43.6706581 C46.8195334,44.258093 46.715409,44.8140499 46.5488076,45.3385453 C46.3822061,45.8630407 46.2989066,46.3875283 46.2989066,46.9120238 C46.2989066,47.1637816 46.3197315,47.4889639 46.3613819,47.8875804 C46.4030322,48.286197 46.4238571,48.7162768 46.4238571,49.1778328 C46.4238571,49.9750659 46.2364332,50.688369 45.8615799,51.3177635 C45.4867266,51.947158 45.0077546,52.5345841 44.4246494,53.0800594 C43.8415443,53.6255347 43.190767,54.1552671 42.4722982,54.6692727 C41.7538293,55.1832782 41.0405775,55.7130106 40.3325212,56.2584859 C39.8327168,56.6571024 39.4162194,57.055713 39.0830164,57.4543295 C38.7498135,57.8529461 38.3645534,58.2095976 37.9272245,58.5242949 C37.4898956,58.8389922 36.9380365,59.0959911 36.2716306,59.2952994 C35.6052247,59.4946076 34.678518,59.5942603 33.4914825,59.5942603 C32.8459018,59.5942603 32.1847121,59.5470564 31.5078936,59.4526472 C30.8310751,59.358238 30.159473,59.2480956 29.4930671,59.1222167 C28.8266612,58.9963378 28.1862964,58.8861954 27.5719535,58.7917863 C26.9576106,58.6973771 26.3901328,58.6501732 25.8695032,58.6501732 C25.4321744,58.6501732 25.0156769,58.6921322 24.6199984,58.7760515 C24.2243199,58.8599707 23.8286474,58.9019297 23.4329689,58.9019297 C23.2663674,58.9019297 22.9748192,58.8337464 22.5583155,58.6973775 C22.1418118,58.5610087 21.6940771,58.3721932 21.2150979,58.1309253 C20.7361186,57.8896574 20.2571466,57.5959443 19.7781673,57.2497773 C19.2991881,56.9036104 18.9035156,56.5102447 18.5911378,56.0696685 C18.2995852,55.671052 18.1173676,55.246217 18.0444794,54.7951509 C17.9715913,54.3440848 17.8310234,53.9087602 17.6227716,53.4891638 C17.331219,52.9646683 16.9511651,52.4611603 16.4825985,51.9786245 C16.0140318,51.4960886 15.6027406,50.9191523 15.2487125,50.2477981 C14.9363347,49.6393834 14.6656114,48.9051008 14.4365343,48.0449283 C14.2074573,47.1847557 13.9471464,46.3350859 13.6555939,45.4958931 C13.2807405,44.3839628 12.9110991,43.3874364 12.5466583,42.506284 C12.1822176,41.6251317 12,40.8803593 12,40.2719446 C12,39.5796106 12.0937119,38.8400831 12.2811386,38.05334 C12.4685652,37.2665968 12.7184637,36.5323142 13.0308415,35.8504701 C13.3432192,35.168626 13.7024483,34.6074243 14.1085393,34.1668481 C14.5146304,33.726272 14.9363341,33.5059872 15.3736629,33.5059872 C15.60274,33.5059872 15.842226,33.5479462 16.0921282,33.6318655 C16.3420304,33.7157847 16.6023413,33.7577437 16.8730687,33.7577437 C17.2270968,33.7157841 17.5238512,33.6108866 17.7633409,33.443048 C18.0028305,33.2752095 18.2579352,33.1912915 18.5286626,33.1912915 C18.7993899,33.1912915 19.1846501,33.2384954 19.6844545,33.3329045 C20.1842589,33.4273137 20.6996745,33.5479459 21.2307167,33.6948046 C21.7617589,33.8416633 22.2615558,33.9885198 22.7301224,34.1353786 C23.1986891,34.2822373 23.5475057,34.4186041 23.7765827,34.544483 C24.1097856,34.7123215 24.4638085,35.0060346 24.8386618,35.4256309 C25.2135151,35.8452273 25.5571255,36.3067763 25.8695032,36.810292 C26.181881,37.3138076 26.4421919,37.8382952 26.6504437,38.3837704 C26.8586956,38.9292457 26.9628199,39.4117743 26.9628199,39.8313706 C26.9628199,40.0621486 26.9524075,40.298168 26.9315823,40.539436 C26.9107571,40.7807039 26.9003447,41.0167233 26.9003447,41.2475013 C26.9003447,41.6670976 26.9732317,42.0919326 27.119008,42.5220188 C27.2647843,42.9521051 27.3897335,43.4293888 27.4938595,43.9538842 C27.5771602,44.5413191 27.6344286,45.097276 27.6656664,45.6217714 C27.6969041,46.1462669 27.7437601,46.6340403 27.8062357,47.0851064 C27.8687112,47.5361725 27.9572169,47.9610074 28.0717554,48.359624 C28.1862939,48.7582405 28.3893364,49.1358716 28.680889,49.4925285 C29.0973927,50.0380037 29.6804891,50.4733284 30.4301957,50.7985156 C31.1799023,51.1237028 31.9191853,51.2862939 32.6480667,51.2862939 C33.1062208,51.2862939 33.4758623,51.2128657 33.7570022,51.0660069 C34.0381422,50.9191482 34.2828345,50.7408224 34.4910863,50.5310243 C34.6993381,50.3212261 34.9023806,50.1061862 35.1002199,49.8858981 C35.2980591,49.66561 35.5323389,49.4715496 35.8030663,49.3037111 C36.21957,49.0519532 36.6152426,48.8578928 36.9900959,48.721524 C37.3649492,48.5851552 37.6981472,48.4068294 37.9896997,48.1865413 C38.2812523,47.9662533 38.5103259,47.6672953 38.6769274,47.2896586 C38.8435288,46.9120219 38.9268283,46.3560651 38.9268283,45.6217714 C38.9268283,45.0343365 38.8174977,44.4101963 38.5988333,43.749332 C38.3801689,43.0884678 38.239601,42.4223686 38.1771254,41.7510144 C38.1146499,41.1635795 38.0730002,40.6653163 38.052175,40.2562098 C38.0313498,39.8471034 37.9949063,39.4589826 37.9428433,39.0918358 C37.8907803,38.7246889 37.8022746,38.3575476 37.6773235,37.9904008 C37.5523724,37.623254 37.3337113,37.1984191 37.0213335,36.7158833 C36.9380328,36.631964 36.7506089,36.4169241 36.4590564,36.0707571 C36.1675038,35.7245901 35.8290996,35.3626937 35.4438337,34.9850569 C35.0585678,34.6074202 34.6472766,34.2665033 34.2099477,33.9622959 C33.7726189,33.6580886 33.3665339,33.5059872 32.9916805,33.5059872 C32.8250791,33.5059872 32.6636863,33.5164769 32.5074974,33.5374567 C32.3513086,33.5584366 32.1899158,33.5689263 32.0233143,33.5689263 C31.3569084,33.5689263 30.6748939,33.4220698 29.9772502,33.1283523 C29.2796066,32.8346349 28.5663547,32.4727385 27.8374733,32.0426522 C27.1085918,31.6125659 26.3693089,31.1562617 25.6196023,30.6737259 C24.8698956,30.1911901 24.1202003,29.7611103 23.3704936,29.3834736 C22.7457381,29.0687763 22.0428987,28.7750633 21.2619543,28.5023256 C20.4810099,28.229588 19.7469332,27.9253852 19.0597021,27.5897081 C18.372471,27.254031 17.799787,26.8606653 17.341633,26.4095993 C16.8834789,25.9585332 16.6544054,25.3973315 16.6544054,24.7259773 C16.6544054,24.6000984 16.6804364,24.3483443 16.7324994,23.9707076 C16.7845624,23.5930709 16.8522432,23.1577462 16.9355439,22.6647205 C17.0188447,22.1716948 17.122969,21.6367174 17.2479201,21.0597724 C17.3728712,20.4828275 17.5186453,19.9268706 17.6852468,19.3918853 C17.8518483,18.8568999 18.0236535,18.3691265 18.2006675,17.9285503 C18.3776816,17.4879741 18.5703117,17.1418123 18.7785635,16.8900545 C19.0701161,16.5333976 19.4397576,16.1872358 19.887499,15.8515587 C20.3352405,15.5158816 20.777769,15.2169237 21.2150979,14.954676 C21.6524267,14.6924282 22.0428931,14.4826332 22.3865086,14.3252846 C22.7301241,14.1679359 22.9539915,14.0892628 23.0581174,14.0892628 C23.2455441,14.0892628 23.4277617,14.1049974 23.6047758,14.1364672 C23.7817898,14.1679369 23.9640075,14.1836715 24.1514341,14.1836715 C24.5471126,14.1836715 24.8855168,14.1364676 25.1666568,14.0420585 C25.4477968,13.9476493 25.6976952,13.8270171 25.9163596,13.6801584 C26.1350241,13.5332997 26.348479,13.391688 26.5567309,13.2553192 C26.7649827,13.1189504 27.0044687,12.9983183 27.2751961,12.8934192 C27.6292242,12.7465604 28.0613403,12.6678873 28.5715573,12.6573974 C29.0817743,12.6469075 29.5867775,12.5892139 30.0865819,12.4843148 C30.6696871,12.3584359 31.4037638,12.2063345 32.2888341,12.028006 C33.1739044,11.8496776 34.0693739,11.6818415 34.9752694,11.5244929 C35.8811649,11.3671443 36.7297784,11.2360224 37.5211354,11.1311233 C38.3124924,11.0262242 38.9060013,10.9842652 39.3016798,11.005245 C39.5099316,11.005245 39.733799,11.0576938 39.9732886,11.1625928 C40.2127782,11.2674919 40.3949958,11.4982665 40.5199469,11.8549234 C40.7906743,12.0437417 41.1030474,12.1801085 41.4570755,12.2640278 C41.8111037,12.3479471 42.1026519,12.4843138 42.3317289,12.6731322 C42.6441066,12.9458698 42.9720984,13.3025214 43.3157139,13.7430975 C43.6593295,14.1836737 43.9873212,14.5613048 44.2996989,14.876002 L45.1274959,15.7099456 C45.3669855,15.9512135 45.5648218,16.1819881 45.7210106,16.4022762 C45.8771995,16.6225643 45.9917363,16.8533388 46.0646245,17.0946067 C46.1375126,17.3358746 46.1739561,17.6243428 46.1739561,17.9600199 C46.1739561,18.631374 46.1010691,19.2817386 45.9552928,19.9111332 C45.8095165,20.5405277 45.5648243,21.1017294 45.2212087,21.5947551 C44.8775932,22.0877809 44.419446,22.4863914 43.8467535,22.7905988 C43.2740609,23.0948061 42.5503966,23.2469075 41.6757389,23.2469075 C41.1551093,23.2469075 40.5928377,23.1892139 39.9889074,23.0738249 C39.3849771,22.9584359 38.8435304,22.8063345 38.3645512,22.6175161 C38.114649,22.5335969 37.8647505,22.3972301 37.6148483,22.2084117 C37.3649461,22.0195934 37.1150476,21.825533 36.8651454,21.6262247 C36.6152432,21.4269164 36.3549323,21.232856 36.0842049,21.0440377 C35.8134775,20.8552193 35.5219293,20.7083628 35.2095516,20.6034637 C34.8971738,20.4985646 34.4910888,20.398912 33.9912844,20.3045028 C33.49148,20.2100936 32.9760644,20.1314205 32.4450222,20.068481 C31.91398,20.0055416 31.3985644,19.9530928 30.89876,19.9111332 C30.3989556,19.8691735 29.9824582,19.848194 29.6492552,19.848194 C29.2119264,19.848194 28.7850165,19.8744184 28.3685128,19.9268679 C27.9520091,19.9793175 27.5823677,20.084215 27.2595773,20.2415636 C26.936787,20.3989123 26.6712698,20.6139522 26.463018,20.8866898 C26.2547662,21.1594274 26.1506418,21.516079 26.1506418,21.9566552 C26.1506418,22.208413 26.1974978,22.4286978 26.2912111,22.6175161 C26.3849244,22.8063345 26.5202861,22.9794154 26.6973001,23.136764 C26.8743142,23.2941127 27.0981816,23.4567038 27.368909,23.6245424 C27.6396364,23.7923809 27.9520094,23.9916862 28.3060376,24.2224642 C28.6184153,24.4322624 28.9255822,24.6630369 29.2275474,24.9147947 C29.5295125,25.1665525 29.8314732,25.4078168 30.1334383,25.6385948 C30.4354035,25.8693728 30.7425704,26.0896576 31.0549481,26.2994558 C31.3673259,26.5092539 31.6901114,26.67709 32.0233143,26.8029689 C32.4189928,26.9288478 32.830284,27.0075209 33.2572003,27.0389906 C33.6841166,27.0704604 34.0641705,27.1176643 34.3973734,27.1806037 C35.6260593,27.4743212 36.7766335,27.8991561 37.8491304,28.4551213 C38.9216274,29.0110864 39.916015,29.6562062 40.8323231,30.3904998 C41.7486312,31.1247934 42.5764199,31.9167697 43.3157139,32.7664523 C44.0550079,33.6161349 44.7057852,34.4815394 45.2680652,35.3626918 C45.5387925,35.803268 45.7574537,36.1966336 45.9240552,36.5428006 C46.0906566,36.8889676 46.2156059,37.2351294 46.2989066,37.5812964 C46.3822073,37.9274634 46.4342695,38.2998496 46.4550947,38.6984661 C46.4759199,39.0970827 46.4863323,39.5796113 46.4863323,40.1460663 C46.4863323,40.7964407 46.5488069,41.4258258 46.673758,42.0342405 C46.7987092,42.6426552 46.8611838,43.1881223 46.8611838,43.6706581 Z M64.4194751,25.8903514 C64.3778247,26.2889679 64.3049376,26.6561092 64.2008117,26.9917863 C64.0966858,27.3274634 64.0446236,27.7365637 64.0446236,28.2190995 C64.0446236,28.8275142 64.0654485,29.4464096 64.1070989,30.0758041 C64.1487492,30.7051986 64.1695741,31.2926247 64.1695741,31.8381 C64.1695741,32.4045551 64.1123057,32.8661041 63.9977672,33.2227611 C63.8832287,33.579418 63.7374546,33.8888656 63.5604405,34.1511134 C63.3834264,34.4133611 63.1907964,34.6598702 62.9825445,34.8906482 C62.7742927,35.1214262 62.5816626,35.3941598 62.4046486,35.708857 C62.2276345,36.0235543 62.0818604,36.4221649 61.9673219,36.9047007 C61.8527834,37.3872365 61.795515,37.9956421 61.795515,38.7299357 C61.795515,40.2195028 61.8371647,41.7562514 61.9204655,43.3402276 C62.0037662,44.9242039 62.0454159,46.607809 62.0454159,48.3910935 C62.0454159,48.9785284 62.0193849,49.5344853 61.9673219,50.0589807 C61.9152589,50.5834762 61.8475781,51.1027189 61.7642774,51.6167244 C61.6809766,52.1307299 61.5820585,52.6447278 61.46752,53.1587333 C61.3529815,53.6727389 61.2332385,54.2129611 61.1082873,54.7794161 C60.9625111,55.4297905 60.8271494,56.001482 60.7021983,56.4945077 C60.5772472,56.9875334 60.3742047,57.4018786 60.0930647,57.7375557 C59.8119247,58.0732328 59.4058397,58.3302317 58.8747975,58.5085601 C58.3437553,58.6868886 57.6096786,58.7760515 56.6725453,58.7760515 C55.9853143,58.7760515 55.4855173,58.6239501 55.1731396,58.3197427 C54.8607618,58.0155354 54.626482,57.6169248 54.4702931,57.1238991 C54.3141042,56.6308733 54.1839488,56.0749165 54.0798229,55.4560119 C53.975697,54.8371073 53.7986855,54.2024773 53.5487833,53.5521029 C53.3821819,53.1744662 53.2051705,52.8755083 53.0177438,52.6552202 C52.8303171,52.4349321 52.658512,52.2041576 52.5023231,51.9628897 C52.3461342,51.7216218 52.2159787,51.417419 52.1118528,51.0502722 C52.0077269,50.6831253 51.9556647,50.1638826 51.9556647,49.4925285 C51.9556647,48.9470532 51.9816958,48.3596271 52.0337588,47.7302326 C52.0858217,47.100838 52.1430901,46.4557183 52.2055657,45.7948541 C52.2680412,45.1339898 52.3253096,44.4626457 52.3773726,43.7808016 C52.4294356,43.0989575 52.4554666,42.4223686 52.4554666,41.7510144 C52.4554666,41.1635795 52.4138169,40.6495817 52.3305162,40.2090055 C52.2472154,39.7684293 52.1587097,39.3488392 52.0649964,38.9502227 C51.9712831,38.5516062 51.8827774,38.137261 51.7994766,37.7071747 C51.7161759,37.2770884 51.6745261,36.7578457 51.6745261,36.149431 C51.6745261,35.5619961 51.7109697,35.0899573 51.7838578,34.7333004 C51.856746,34.3766435 51.9400454,34.0619509 52.0337588,33.7892133 C52.1274721,33.5164757 52.2107716,33.2542319 52.2836597,33.0024741 C52.3565479,32.7507163 52.3929914,32.4465135 52.3929914,32.0898566 C52.3929914,31.7122198 52.2836608,31.3503234 52.0649964,31.0041564 C51.846332,30.6579894 51.6068459,30.3275622 51.3465311,30.012865 C51.0862163,29.6981677 50.8519365,29.38872 50.6436847,29.0845127 C50.4354329,28.7803053 50.3521334,28.4918371 50.3937837,28.2190995 C50.3937837,28.051261 50.425021,27.8519557 50.4874966,27.6211777 C50.5499721,27.3903997 50.617653,27.1438905 50.6905411,26.8816428 C50.7634293,26.6193951 50.8311101,26.3571513 50.8935857,26.0949036 C50.9560612,25.8326558 50.9872985,25.5756569 50.9872985,25.3238991 C50.9872985,24.4637266 50.8779679,23.6350362 50.6593035,22.8378031 C50.4406391,22.04057 50.3313085,21.2748182 50.3313085,20.5405246 L50.3313085,20.2258289 C50.3313085,20.1209298 50.3521334,20.0160323 50.3937837,19.9111332 C50.4354341,19.6593753 50.5707958,19.3289482 50.7998728,18.9198417 C51.0289498,18.5107353 51.2892607,18.1121247 51.5808133,17.7239981 C51.8723659,17.3358715 52.1639141,17.0001994 52.4554666,16.7169719 C52.7470192,16.4337443 52.9656804,16.2921327 53.1114567,16.2921327 C53.2364078,16.2921327 53.3561508,16.3026224 53.4706893,16.3236022 C53.5852278,16.3445821 53.6945584,16.3550718 53.7986843,16.3550718 C54.215188,16.3550718 54.7514284,16.3131128 55.4074217,16.2291935 C56.063415,16.1452743 56.7454296,16.1033153 57.4534858,16.1033153 C57.9741154,16.1033153 58.4947372,16.1190499 59.0153668,16.1505196 C59.5359964,16.1819893 60.0201747,16.2291932 60.4679161,16.2921327 C60.9156576,16.3550721 61.3113302,16.4389901 61.6549457,16.5438892 C61.9985612,16.6487883 62.2640783,16.7851551 62.451505,16.9529936 C62.5139806,16.9949533 62.6337236,17.1942585 62.8107376,17.5509155 C62.9877517,17.9075724 63.1803818,18.300938 63.3886336,18.7310243 C63.5968854,19.1611106 63.7791031,19.5702109 63.9352919,19.9583375 C64.0914808,20.3464641 64.190399,20.6034631 64.2320493,20.729342 C64.2945249,21.0859989 64.3517933,21.5895069 64.4038562,22.2398813 C64.4559192,22.8902557 64.4819503,23.5720895 64.4819503,24.2854033 C64.4819503,24.5371611 64.4715379,24.8046498 64.4507127,25.0878773 C64.4298875,25.3711049 64.4194751,25.6385935 64.4194751,25.8903514 Z M100.970239,25.3238991 L100.970239,25.5127165 C100.970239,25.8274138 100.928589,26.325677 100.845289,27.0075211 C100.761988,27.6893652 100.626626,28.413158 100.4392,29.1789214 C100.251773,29.9446847 100.022699,30.6842122 99.751972,31.397526 C99.4812446,32.1108398 99.1584591,32.6667967 98.7836058,33.0654132 C98.4295777,33.4220701 97.9558119,33.6633344 97.3622941,33.7892133 C96.7687764,33.9150922 96.2012986,34.0724385 95.6598438,34.2612568 C95.222515,34.4290954 94.7591616,34.6493802 94.2697698,34.9221178 C93.7803779,35.1948554 93.2909934,35.4570992 92.8016016,35.708857 C92.3122098,35.9606149 91.8228253,36.1808996 91.3334335,36.369718 C90.8440417,36.5585364 90.3702758,36.6529441 89.9121218,36.6529441 C89.599744,36.6529441 89.2509274,36.574271 88.8656615,36.4169224 C88.4803956,36.2595737 88.1211666,36.0025748 87.7879636,35.6459179 C87.4547607,35.289261 87.1788311,34.8277119 86.9601667,34.2612568 C86.7415023,33.6948018 86.6321717,32.9919884 86.6321717,32.1527957 C86.6321717,31.6283002 86.6529966,31.0828332 86.6946469,30.5163781 C86.7362973,29.949923 86.7571222,29.3939662 86.7571222,28.8484909 C86.7571222,28.261056 86.7102662,27.5949568 86.6165529,26.8501732 C86.5228396,26.1053897 86.3926841,25.4078212 86.2260826,24.7574469 C86.0594812,24.1070725 85.8720573,23.5563605 85.6638055,23.1052945 C85.4555536,22.6542284 85.2264801,22.4286987 84.9765778,22.4286987 C84.7891512,22.4286987 84.5756963,22.4706577 84.3362066,22.554577 C84.096717,22.6384963 83.8207875,22.6804553 83.5084097,22.6804553 C83.1335564,22.6804553 82.8472144,22.6384963 82.6493752,22.554577 C82.4515359,22.4706577 82.2901432,22.3814948 82.1651921,22.2870857 C82.040241,22.1926765 81.9257042,22.1035136 81.8215782,22.0195943 C81.7174523,21.935675 81.5716782,21.893716 81.3842516,21.893716 C80.8844471,21.893716 80.5043932,22.0038584 80.2440784,22.2241465 C79.9837636,22.4444346 79.7911336,22.7433925 79.6661825,23.1210292 C79.5412314,23.498666 79.4423132,23.9287458 79.3694251,24.4112816 C79.2965369,24.8938174 79.1872064,25.3868357 79.0414301,25.8903514 C78.9373041,26.2470083 78.7498803,26.6456188 78.4791529,27.086195 C78.2084255,27.5267712 78.0105892,27.9883202 77.8856381,28.4708561 C77.7190367,28.9533919 77.583675,29.4831243 77.4795491,30.0600693 C77.3754232,30.6370143 77.2296491,31.2296853 77.0422224,31.8381 C76.8756209,32.3625954 76.6829909,33.0234498 76.4643264,33.8206829 C76.245662,34.617916 76.0322071,35.4570961 75.8239552,36.3382484 C75.6157034,37.2194008 75.438692,38.1005399 75.2929157,38.9816923 C75.1471394,39.8628446 75.0742523,40.6390862 75.0742523,41.3104404 C75.0742523,42.275512 75.3866254,43.2143448 76.0113809,44.1269669 C76.6361365,45.039589 77.4483065,45.8000959 78.4479153,46.4085107 C78.7394679,46.5763492 79.1507591,46.7179609 79.6818013,46.8333499 C80.2128435,46.9487388 80.7178466,47.1218198 81.1968258,47.3525977 C81.6549799,47.5833757 82.0506524,47.8089054 82.3838554,48.0291935 C82.7170583,48.2494816 83.0710812,48.4487869 83.4459345,48.6271153 C83.8207878,48.8054438 84.2633163,48.9523003 84.7735333,49.0676893 C85.2837503,49.1830783 85.94494,49.2407719 86.7571222,49.2407719 C87.5068288,49.2407719 88.2721428,49.1620988 89.0530872,49.0047501 C89.8340316,48.8474015 90.5785208,48.6428514 91.2865771,48.3910935 C91.9946333,48.1393357 92.6402043,47.8561124 93.2233095,47.5414152 C93.8064146,47.2267179 94.2749743,46.9120253 94.6290024,46.5973281 C94.7539535,46.492429 94.956996,46.2668993 95.238136,45.9207323 C95.519276,45.5745653 95.8472677,45.2126689 96.222121,44.8350322 C96.5969743,44.4573955 97.0134717,44.1164785 97.4716258,43.8122712 C97.9297798,43.5080638 98.4191643,43.3559624 98.9397939,43.3559624 C99.0439198,43.3559624 99.2053126,43.3821868 99.423977,43.4346363 C99.6426415,43.4870859 99.8613026,43.5919834 100.079967,43.749332 C100.298631,43.9066807 100.491262,44.1322103 100.657863,44.4259278 C100.824464,44.7196452 100.907764,45.0972763 100.907764,45.5588323 C100.907764,46.167247 100.824464,46.7966321 100.657863,47.4470065 C100.491262,48.0973808 100.407962,48.7162762 100.407962,49.3037111 C100.407962,49.5554689 100.418374,49.8701614 100.4392,50.2477981 C100.460025,50.6254349 100.470437,50.9925762 100.470437,51.3492331 C100.470437,52.0835267 100.24657,52.8282991 99.7988285,53.5835725 C99.351087,54.3388459 98.5649481,55.1255773 97.4403882,55.9437902 C97.08636,56.195548 96.6490377,56.4210777 96.1284081,56.620386 C95.6077785,56.8196942 95.1079816,57.0662034 94.6290024,57.3599208 C94.129198,57.6746181 93.5981637,57.9893107 93.0358838,58.3040079 C92.4736038,58.6187052 92.0258691,58.7760515 91.6926661,58.7760515 C91.3802884,58.7760515 91.0575028,58.7340925 90.7242999,58.6501732 C90.391097,58.5662539 90.0162493,58.5242949 89.5997456,58.5242949 C88.9333397,58.5242949 88.2825625,58.5452744 87.6473943,58.587234 C87.0122262,58.6291937 86.361449,58.6501732 85.6950431,58.6501732 C85.3618402,58.6501732 84.9921987,58.6449283 84.5861076,58.6344384 C84.1800165,58.6239485 83.7687253,58.602969 83.3522216,58.5714993 C82.9357179,58.5400295 82.5244267,58.5033154 82.1183356,58.4613558 C81.7122445,58.4193961 81.3426031,58.3669474 81.0094001,58.3040079 C80.7594979,58.2830281 80.4731559,58.2568037 80.1503656,58.225334 C79.8275752,58.1938643 79.5099959,58.162395 79.1976182,58.1309253 C78.8852404,58.0994556 78.6093109,58.0679863 78.3698212,58.0365166 C78.1303316,58.0050469 77.9689389,57.9683327 77.8856381,57.9263731 C77.7398618,57.8634336 77.6045002,57.7480464 77.4795491,57.5802078 C77.354598,57.4123693 77.2244425,57.2183089 77.0890788,56.9980208 C76.9537151,56.7777327 76.807941,56.5574479 76.6517521,56.3371598 C76.4955633,56.1168717 76.3029332,55.9123216 76.0738562,55.7235032 C75.823954,55.5346849 75.5428182,55.403563 75.2304404,55.3301336 C74.9180627,55.2567042 74.6681642,55.1360721 74.4807376,54.9682336 C74.2308354,54.6325565 73.9444934,54.2654152 73.621703,53.8667986 C73.2989127,53.4681821 72.9917458,53.1010408 72.7001932,52.7653637 C72.3669903,52.2408682 72.1066794,51.6954012 71.9192527,51.1289461 C71.7318261,50.562491 71.4819276,50.1009419 71.1695499,49.744285 C71.0445988,49.6184061 70.8727936,49.497774 70.6541291,49.382385 C70.4354647,49.266996 70.2011849,49.141119 69.9512827,49.0047501 C69.7013805,48.8683813 69.4566882,48.7215248 69.2171986,48.5641762 C68.977709,48.4068275 68.7746665,48.2232569 68.608065,48.0134587 C68.5247643,47.9505193 68.4050213,47.7826832 68.2488324,47.5099456 C68.0926435,47.237208 67.936457,46.9539847 67.7802681,46.6602672 C67.6240792,46.3665498 67.4887176,46.1095509 67.374179,45.8892628 C67.2596405,45.6689747 67.2023721,45.5798118 67.2023721,45.6217714 C67.2023721,45.4958925 67.2492281,45.3333014 67.3429414,45.1339931 C67.4366548,44.9346848 67.5459853,44.7301347 67.6709364,44.5203365 C67.7958875,44.3105383 67.9052181,44.1007433 67.9989314,43.8909451 C68.0926448,43.6811469 68.1395007,43.5028211 68.1395007,43.3559624 C68.1395007,42.9993055 68.0874386,42.6793681 67.9833126,42.3961406 C67.8791867,42.112913 67.8062997,41.7929756 67.7646493,41.4363187 C67.7646493,40.7230049 67.7958866,39.7946619 67.8583622,38.6512618 C67.9208377,37.5078617 68.0197558,36.2858057 68.1551195,34.9850569 C68.2904832,33.6843082 68.4570822,32.3783342 68.6549215,31.0670955 C68.8527607,29.7558569 69.0870405,28.5652701 69.3577679,27.4952994 C69.5868449,26.6561067 69.8471558,25.7959471 70.1387084,24.9147947 C70.430261,24.0336424 70.5760351,23.204952 70.5760351,22.4286987 C70.5760351,22.1559611 70.5552102,21.8832275 70.5135598,21.6104899 C70.4719095,21.3377523 70.4510846,21.0650187 70.4510846,20.7922811 C70.4510846,20.225826 70.6176836,19.7852565 70.9508865,19.4705592 C71.2840895,19.1558619 71.6901745,18.8778835 72.1691537,18.6366156 C72.6481329,18.3953477 73.1583423,18.1593283 73.6997971,17.9285503 C74.2412519,17.6977723 74.7202239,17.37259 75.1367276,16.9529936 C75.2408535,16.8271147 75.324153,16.6487889 75.3866285,16.418011 C75.4491041,16.187233 75.5011663,15.9564584 75.5428166,15.7256804 C75.584467,15.4949024 75.6261168,15.2693728 75.6677671,15.0490847 C75.7094175,14.8287966 75.7823045,14.6662054 75.8864305,14.5613064 C75.948906,14.4773871 76.0374117,14.4249383 76.1519502,14.4039585 C76.2664887,14.3829787 76.4018504,14.3619992 76.5580393,14.3410194 C76.7142282,14.3200395 76.8912396,14.2833254 77.0890788,14.2308759 C77.2869181,14.1784263 77.4899606,14.0892634 77.6982124,13.9633845 C77.9064643,13.8375056 78.067857,13.7063837 78.1823955,13.5700149 C78.296934,13.4336461 78.4062646,13.313014 78.5103905,13.2081149 C78.6145165,13.1032158 78.7394657,13.0192978 78.885242,12.9563583 C79.0310183,12.8934189 79.2288545,12.8724394 79.4787567,12.8934192 C79.7078338,12.8934192 79.9421136,12.9039089 80.1816032,12.9248887 C80.4210928,12.9458686 80.6345477,12.9563583 80.8219744,12.9563583 C81.1343522,12.9563583 81.4623439,12.9458686 81.8059594,12.9248887 C82.149575,12.9039089 82.4983916,12.8934192 82.8524197,12.8934192 C83.4355248,12.8934192 83.9144969,12.9563577 84.2893502,13.0822366 C84.6642035,13.2081155 84.9974015,13.3497271 85.288954,13.5070758 C85.5805066,13.6644244 85.8616424,13.8270156 86.1323698,13.9948541 C86.4030972,14.1626926 86.7467076,14.2885697 87.1632112,14.3724889 C87.7254912,14.477388 88.292969,14.5350817 88.8656615,14.5455716 C89.4383541,14.5560615 89.9954194,14.5665512 90.5368742,14.5770411 C91.078329,14.587531 91.6145694,14.6294901 92.1456116,14.7029194 C92.6766538,14.7763488 93.1920694,14.9179604 93.6918738,15.1277586 C93.9834264,15.2536375 94.2905932,15.4791672 94.6133836,15.8043543 C94.9361739,16.1295415 95.2849905,16.4389892 95.6598438,16.7327066 C96.013872,17.0054443 96.3939259,17.2414637 96.800017,17.440772 C97.2061081,17.6400802 97.49245,17.8551201 97.6590515,18.0858981 C97.7840026,18.3166761 97.8933332,18.6628379 97.9870465,19.1243939 C98.0807598,19.5859499 98.2213277,19.9740707 98.4087544,20.288768 C98.596181,20.6244451 98.8304608,20.9758518 99.1116008,21.3429986 C99.3927408,21.7101454 99.6686704,22.0982662 99.9393978,22.5073726 C100.210125,22.9164791 100.439199,23.3570487 100.626625,23.8290946 C100.814052,24.3011405 100.928589,24.7994037 100.970239,25.3238991 Z M137.271102,25.3238991 L137.271102,25.5127165 C137.271102,25.8274138 137.229453,26.325677 137.146152,27.0075211 C137.062851,27.6893652 136.92749,28.413158 136.740063,29.1789214 C136.552636,29.9446847 136.323563,30.6842122 136.052835,31.397526 C135.782108,32.1108398 135.459322,32.6667967 135.084469,33.0654132 C134.730441,33.4220701 134.256675,33.6633344 133.663157,33.7892133 C133.06964,33.9150922 132.502162,34.0724385 131.960707,34.2612568 C131.523378,34.4290954 131.060025,34.6493802 130.570633,34.9221178 C130.081241,35.1948554 129.591857,35.4570992 129.102465,35.708857 C128.613073,35.9606149 128.123689,36.1808996 127.634297,36.369718 C127.144905,36.5585364 126.671139,36.6529441 126.212985,36.6529441 C125.900607,36.6529441 125.551791,36.574271 125.166525,36.4169224 C124.781259,36.2595737 124.42203,36.0025748 124.088827,35.6459179 C123.755624,35.289261 123.479694,34.8277119 123.26103,34.2612568 C123.042365,33.6948018 122.933035,32.9919884 122.933035,32.1527957 C122.933035,31.6283002 122.95386,31.0828332 122.99551,30.5163781 C123.037161,29.949923 123.057985,29.3939662 123.057985,28.8484909 C123.057985,28.261056 123.011129,27.5949568 122.917416,26.8501732 C122.823703,26.1053897 122.693547,25.4078212 122.526946,24.7574469 C122.360344,24.1070725 122.172921,23.5563605 121.964669,23.1052945 C121.756417,22.6542284 121.527343,22.4286987 121.277441,22.4286987 C121.090014,22.4286987 120.876559,22.4706577 120.63707,22.554577 C120.39758,22.6384963 120.121651,22.6804553 119.809273,22.6804553 C119.43442,22.6804553 119.148078,22.6384963 118.950238,22.554577 C118.752399,22.4706577 118.591006,22.3814948 118.466055,22.2870857 C118.341104,22.1926765 118.226567,22.1035136 118.122441,22.0195943 C118.018316,21.935675 117.872541,21.893716 117.685115,21.893716 C117.18531,21.893716 116.805256,22.0038584 116.544942,22.2241465 C116.284627,22.4444346 116.091997,22.7433925 115.967046,23.1210292 C115.842095,23.498666 115.743176,23.9287458 115.670288,24.4112816 C115.5974,24.8938174 115.48807,25.3868357 115.342293,25.8903514 C115.238167,26.2470083 115.050744,26.6456188 114.780016,27.086195 C114.509289,27.5267712 114.311452,27.9883202 114.186501,28.4708561 C114.0199,28.9533919 113.884538,29.4831243 113.780412,30.0600693 C113.676286,30.6370143 113.530512,31.2296853 113.343086,31.8381 C113.176484,32.3625954 112.983854,33.0234498 112.76519,33.8206829 C112.546525,34.617916 112.33307,35.4570961 112.124818,36.3382484 C111.916567,37.2194008 111.739555,38.1005399 111.593779,38.9816923 C111.448003,39.8628446 111.375116,40.6390862 111.375116,41.3104404 C111.375116,42.275512 111.687489,43.2143448 112.312244,44.1269669 C112.937,45.039589 113.74917,45.8000959 114.748778,46.4085107 C115.040331,46.5763492 115.451622,46.7179609 115.982664,46.8333499 C116.513707,46.9487388 117.01871,47.1218198 117.497689,47.3525977 C117.955843,47.5833757 118.351516,47.8089054 118.684719,48.0291935 C119.017922,48.2494816 119.371944,48.4487869 119.746798,48.6271153 C120.121651,48.8054438 120.56418,48.9523003 121.074397,49.0676893 C121.584614,49.1830783 122.245803,49.2407719 123.057985,49.2407719 C123.807692,49.2407719 124.573006,49.1620988 125.35395,49.0047501 C126.134895,48.8474015 126.879384,48.6428514 127.58744,48.3910935 C128.295497,48.1393357 128.941068,47.8561124 129.524173,47.5414152 C130.107278,47.2267179 130.575837,46.9120253 130.929866,46.5973281 C131.054817,46.492429 131.257859,46.2668993 131.538999,45.9207323 C131.820139,45.5745653 132.148131,45.2126689 132.522984,44.8350322 C132.897838,44.4573955 133.314335,44.1164785 133.772489,43.8122712 C134.230643,43.5080638 134.720028,43.3559624 135.240657,43.3559624 C135.344783,43.3559624 135.506176,43.3821868 135.72484,43.4346363 C135.943505,43.4870859 136.162166,43.5919834 136.38083,43.749332 C136.599495,43.9066807 136.792125,44.1322103 136.958726,44.4259278 C137.125328,44.7196452 137.208627,45.0972763 137.208627,45.5588323 C137.208627,46.167247 137.125328,46.7966321 136.958726,47.4470065 C136.792125,48.0973808 136.708825,48.7162762 136.708825,49.3037111 C136.708825,49.5554689 136.719238,49.8701614 136.740063,50.2477981 C136.760888,50.6254349 136.7713,50.9925762 136.7713,51.3492331 C136.7713,52.0835267 136.547433,52.8282991 136.099692,53.5835725 C135.65195,54.3388459 134.865811,55.1255773 133.741251,55.9437902 C133.387223,56.195548 132.949901,56.4210777 132.429271,56.620386 C131.908642,56.8196942 131.408845,57.0662034 130.929866,57.3599208 C130.430061,57.6746181 129.899027,57.9893107 129.336747,58.3040079 C128.774467,58.6187052 128.326732,58.7760515 127.993529,58.7760515 C127.681152,58.7760515 127.358366,58.7340925 127.025163,58.6501732 C126.69196,58.5662539 126.317112,58.5242949 125.900609,58.5242949 C125.234203,58.5242949 124.583426,58.5452744 123.948258,58.587234 C123.313089,58.6291937 122.662312,58.6501732 121.995906,58.6501732 C121.662703,58.6501732 121.293062,58.6449283 120.886971,58.6344384 C120.48088,58.6239485 120.069588,58.602969 119.653085,58.5714993 C119.236581,58.5400295 118.82529,58.5033154 118.419199,58.4613558 C118.013108,58.4193961 117.643466,58.3669474 117.310263,58.3040079 C117.060361,58.2830281 116.774019,58.2568037 116.451229,58.225334 C116.128438,58.1938643 115.810859,58.162395 115.498481,58.1309253 C115.186104,58.0994556 114.910174,58.0679863 114.670684,58.0365166 C114.431195,58.0050469 114.269802,57.9683327 114.186501,57.9263731 C114.040725,57.8634336 113.905363,57.7480464 113.780412,57.5802078 C113.655461,57.4123693 113.525306,57.2183089 113.389942,56.9980208 C113.254578,56.7777327 113.108804,56.5574479 112.952615,56.3371598 C112.796426,56.1168717 112.603796,55.9123216 112.374719,55.7235032 C112.124817,55.5346849 111.843681,55.403563 111.531304,55.3301336 C111.218926,55.2567042 110.969027,55.1360721 110.781601,54.9682336 C110.531699,54.6325565 110.245357,54.2654152 109.922566,53.8667986 C109.599776,53.4681821 109.292609,53.1010408 109.001056,52.7653637 C108.667853,52.2408682 108.407543,51.6954012 108.220116,51.1289461 C108.032689,50.562491 107.782791,50.1009419 107.470413,49.744285 C107.345462,49.6184061 107.173657,49.497774 106.954992,49.382385 C106.736328,49.266996 106.502048,49.141119 106.252146,49.0047501 C106.002244,48.8683813 105.757551,48.7215248 105.518062,48.5641762 C105.278572,48.4068275 105.07553,48.2232569 104.908928,48.0134587 C104.825627,47.9505193 104.705884,47.7826832 104.549696,47.5099456 C104.393507,47.237208 104.23732,46.9539847 104.081131,46.6602672 C103.924942,46.3665498 103.789581,46.1095509 103.675042,45.8892628 C103.560504,45.6689747 103.503235,45.5798118 103.503235,45.6217714 C103.503235,45.4958925 103.550091,45.3333014 103.643805,45.1339931 C103.737518,44.9346848 103.846849,44.7301347 103.9718,44.5203365 C104.096751,44.3105383 104.206081,44.1007433 104.299795,43.8909451 C104.393508,43.6811469 104.440364,43.5028211 104.440364,43.3559624 C104.440364,42.9993055 104.388302,42.6793681 104.284176,42.3961406 C104.18005,42.112913 104.107163,41.7929756 104.065512,41.4363187 C104.065512,40.7230049 104.09675,39.7946619 104.159225,38.6512618 C104.221701,37.5078617 104.320619,36.2858057 104.455983,34.9850569 C104.591346,33.6843082 104.757945,32.3783342 104.955785,31.0670955 C105.153624,29.7558569 105.387904,28.5652701 105.658631,27.4952994 C105.887708,26.6561067 106.148019,25.7959471 106.439572,24.9147947 C106.731124,24.0336424 106.876898,23.204952 106.876898,22.4286987 C106.876898,22.1559611 106.856073,21.8832275 106.814423,21.6104899 C106.772773,21.3377523 106.751948,21.0650187 106.751948,20.7922811 C106.751948,20.225826 106.918547,19.7852565 107.25175,19.4705592 C107.584953,19.1558619 107.991038,18.8778835 108.470017,18.6366156 C108.948996,18.3953477 109.459205,18.1593283 110.00066,17.9285503 C110.542115,17.6977723 111.021087,17.37259 111.437591,16.9529936 C111.541717,16.8271147 111.625016,16.6487889 111.687492,16.418011 C111.749967,16.187233 111.802029,15.9564584 111.84368,15.7256804 C111.88533,15.4949024 111.92698,15.2693728 111.96863,15.0490847 C112.010281,14.8287966 112.083168,14.6662054 112.187294,14.5613064 C112.249769,14.4773871 112.338275,14.4249383 112.452813,14.4039585 C112.567352,14.3829787 112.702714,14.3619992 112.858902,14.3410194 C113.015091,14.3200395 113.192103,14.2833254 113.389942,14.2308759 C113.587781,14.1784263 113.790824,14.0892634 113.999076,13.9633845 C114.207327,13.8375056 114.36872,13.7063837 114.483259,13.5700149 C114.597797,13.4336461 114.707128,13.313014 114.811254,13.2081149 C114.91538,13.1032158 115.040329,13.0192978 115.186105,12.9563583 C115.331881,12.8934189 115.529718,12.8724394 115.77962,12.8934192 C116.008697,12.8934192 116.242977,12.9039089 116.482466,12.9248887 C116.721956,12.9458686 116.935411,12.9563583 117.122838,12.9563583 C117.435215,12.9563583 117.763207,12.9458686 118.106823,12.9248887 C118.450438,12.9039089 118.799255,12.8934192 119.153283,12.8934192 C119.736388,12.8934192 120.21536,12.9563577 120.590213,13.0822366 C120.965067,13.2081155 121.298265,13.3497271 121.589817,13.5070758 C121.88137,13.6644244 122.162506,13.8270156 122.433233,13.9948541 C122.70396,14.1626926 123.047571,14.2885697 123.464074,14.3724889 C124.026354,14.477388 124.593832,14.5350817 125.166525,14.5455716 C125.739217,14.5560615 126.296283,14.5665512 126.837737,14.5770411 C127.379192,14.587531 127.915433,14.6294901 128.446475,14.7029194 C128.977517,14.7763488 129.492933,14.9179604 129.992737,15.1277586 C130.28429,15.2536375 130.591456,15.4791672 130.914247,15.8043543 C131.237037,16.1295415 131.585854,16.4389892 131.960707,16.7327066 C132.314735,17.0054443 132.694789,17.2414637 133.10088,17.440772 C133.506971,17.6400802 133.793313,17.8551201 133.959915,18.0858981 C134.084866,18.3166761 134.194196,18.6628379 134.28791,19.1243939 C134.381623,19.5859499 134.522191,19.9740707 134.709618,20.288768 C134.897044,20.6244451 135.131324,20.9758518 135.412464,21.3429986 C135.693604,21.7101454 135.969534,22.0982662 136.240261,22.5073726 C136.510988,22.9164791 136.740062,23.3570487 136.927489,23.8290946 C137.114915,24.3011405 137.229452,24.7994037 137.271102,25.3238991 Z" id="path-2"></path>
        <filter x="-4.4%" y="-9.3%" width="108.8%" height="124.7%" filterUnits="objectBoundingBox" id="filter-3">
            <feMorphology radius="3" operator="dilate" in="SourceAlpha" result="shadowSpreadOuter1"></feMorphology>
            <feOffset dx="0" dy="2" in="shadowSpreadOuter1" result="shadowOffsetOuter1"></feOffset>
            <feGaussianBlur stdDeviation="0.5" in="shadowOffsetOuter1" result="shadowBlurOuter1"></feGaussianBlur>
            <feComposite in="shadowBlurOuter1" in2="SourceAlpha" operator="out" result="shadowBlurOuter1"></feComposite>
            <feColorMatrix values="0 0 0 0 0   0 0 0 0 0   0 0 0 0 0  0 0 0 0.125 0" type="matrix" in="shadowBlurOuter1"></feColorMatrix>
        </filter>
    </defs>
    <g id="favicon" stroke="none" stroke-width="1" fill="none" fill-rule="evenodd">
        <g id="SICC-PICCS">
            <use fill="black" fill-opacity="1" filter="url(#filter-3)" xlink:href="#path-2"></use>
            <use fill="url(#linearGradient-1)" fill-rule="evenodd" xlink:href="#path-2"></use>
        </g>
    </g>
</svg>