<?xml version="1.0" encoding="UTF-8"?>
<svg width="300px" height="54px" viewBox="0 0 300 54" version="1.1" xmlns="http://www.w3.org/2000/svg" xmlns:xlink="http://www.w3.org/1999/xlink">
    <!-- Generator: Sketch 51.3 (57544) - http://www.bohemiancoding.com/sketch -->
    <title>logo</title>
    <desc>Created with Sketch.</desc>
    <defs>
        <linearGradient x1="67.4464742%" y1="-73.4980137%" x2="39.7829712%" y2="287.251145%" id="linearGradient-1">
            <stop stop-color="#24F236" offset="0%"></stop>
            <stop stop-color="#BD10E0" offset="100%"></stop>
        </linearGradient>
        <path d="M35.75,32.96875 C35.7083331,33.5520863 35.6041675,34.1041641 35.4375,34.625 C35.2708325,35.1458359 35.1875,35.6666641 35.1875,36.1875 C35.1875,36.4375012 35.2083331,36.7604147 35.25,37.15625 C35.2916669,37.5520853 35.3125,37.9791644 35.3125,38.4375 C35.3125,39.2291706 35.1250019,39.9374969 34.75,40.5625 C34.3749981,41.1875031 33.8958363,41.7708306 33.3125,42.3125 C32.7291637,42.8541694 32.0781286,43.3802058 31.359375,43.890625 C30.6406214,44.4010442 29.9270869,44.9270806 29.21875,45.46875 C28.7187475,45.8645853 28.302085,46.2604147 27.96875,46.65625 C27.635415,47.0520853 27.2500022,47.4062484 26.8125,47.71875 C26.3749978,48.0312516 25.82292,48.2864573 25.15625,48.484375 C24.48958,48.6822927 23.5625059,48.78125 22.375,48.78125 C21.7291634,48.78125 21.0677117,48.7343755 20.390625,48.640625 C19.7135383,48.5468745 19.04167,48.4375006 18.375,48.3125 C17.70833,48.1874994 17.0677114,48.0781255 16.453125,47.984375 C15.8385386,47.8906245 15.2708359,47.84375 14.75,47.84375 C14.3124978,47.84375 13.8958353,47.8854163 13.5,47.96875 C13.1041647,48.0520837 12.7083353,48.09375 12.3125,48.09375 C12.1458325,48.09375 11.8541687,48.0260423 11.4375,47.890625 C11.0208313,47.7552077 10.5729191,47.5677095 10.09375,47.328125 C9.61458094,47.0885405 9.13541906,46.7968767 8.65625,46.453125 C8.17708094,46.1093733 7.78125156,45.7187522 7.46875,45.28125 C7.17708187,44.8854147 6.99479203,44.4635439 6.921875,44.015625 C6.84895797,43.5677061 6.70833438,43.1354187 6.5,42.71875 C6.20833187,42.1979141 5.82812734,41.6979191 5.359375,41.21875 C4.89062266,40.7395809 4.47916844,40.16667 4.125,39.5 C3.81249844,38.8958303 3.54166781,38.1666709 3.3125,37.3125 C3.08333219,36.4583291 2.82291813,35.6145875 2.53125,34.78125 C2.15624813,33.6770778 1.78646016,32.6875044 1.421875,31.8125 C1.05728984,30.9374956 0.875,30.1979197 0.875,29.59375 C0.875,28.9062466 0.968749063,28.1718789 1.15625,27.390625 C1.34375094,26.6093711 1.59374844,25.8802117 1.90625,25.203125 C2.21875156,24.5260383 2.57812297,23.9687522 2.984375,23.53125 C3.39062703,23.0937478 3.81249781,22.875 4.25,22.875 C4.47916781,22.875 4.71874875,22.9166662 4.96875,23 C5.21875125,23.0833338 5.47916531,23.125 5.75,23.125 C6.10416844,23.0833331 6.40104047,22.9791675 6.640625,22.8125 C6.88020953,22.6458325 7.13541531,22.5625 7.40625,22.5625 C7.67708469,22.5625 8.0624975,22.6093745 8.5625,22.703125 C9.0625025,22.7968755 9.57812234,22.9166659 10.109375,23.0625 C10.6406277,23.2083341 11.1406227,23.3541659 11.609375,23.5 C12.0781273,23.6458341 12.4270822,23.7812494 12.65625,23.90625 C12.989585,24.0729175 13.3437481,24.3645813 13.71875,24.78125 C14.0937519,25.1979187 14.4374984,25.6562475 14.75,26.15625 C15.0625016,26.6562525 15.3229156,27.1770806 15.53125,27.71875 C15.7395844,28.2604194 15.84375,28.7395812 15.84375,29.15625 C15.84375,29.3854178 15.8333334,29.6197905 15.8125,29.859375 C15.7916666,30.0989595 15.78125,30.3333322 15.78125,30.5625 C15.78125,30.9791687 15.8541659,31.4010395 16,31.828125 C16.1458341,32.2552105 16.2708328,32.7291641 16.375,33.25 C16.4583338,33.8333363 16.5156248,34.3854141 16.546875,34.90625 C16.5781252,35.4270859 16.6249997,35.9114561 16.6875,36.359375 C16.7500003,36.8072939 16.8385411,37.2291647 16.953125,37.625 C17.0677089,38.0208353 17.2708319,38.3958316 17.5625,38.75 C17.9791687,39.2916694 18.5624962,39.7239567 19.3125,40.046875 C20.0625038,40.3697933 20.8020797,40.53125 21.53125,40.53125 C21.9895856,40.53125 22.3593736,40.4583341 22.640625,40.3125 C22.9218764,40.1666659 23.1666656,39.9895844 23.375,39.78125 C23.5833344,39.5729156 23.7864573,39.3593761 23.984375,39.140625 C24.1822927,38.9218739 24.4166653,38.7291675 24.6875,38.5625 C25.1041687,38.3124988 25.4999981,38.1197923 25.875,37.984375 C26.2500019,37.8489577 26.5833319,37.6718761 26.875,37.453125 C27.1666681,37.2343739 27.3958325,36.9375019 27.5625,36.5625 C27.7291675,36.1874981 27.8125,35.6354203 27.8125,34.90625 C27.8125,34.3229137 27.7031261,33.7031283 27.484375,33.046875 C27.2656239,32.3906217 27.1250003,31.72917 27.0625,31.0625 C26.9999997,30.4791637 26.9583334,29.984377 26.9375,29.578125 C26.9166666,29.171873 26.8802086,28.7864602 26.828125,28.421875 C26.7760414,28.0572898 26.6875006,27.6927102 26.5625,27.328125 C26.4374994,26.9635398 26.2187516,26.5416691 25.90625,26.0625 C25.8229162,25.9791662 25.6354181,25.7656267 25.34375,25.421875 C25.0520819,25.0781233 24.7135436,24.7187519 24.328125,24.34375 C23.9427064,23.9687481 23.5312522,23.6302098 23.09375,23.328125 C22.6562478,23.0260402 22.2500019,22.875 21.875,22.875 C21.7083325,22.875 21.5468758,22.8854166 21.390625,22.90625 C21.2343742,22.9270834 21.0729175,22.9375 20.90625,22.9375 C20.23958,22.9375 19.5572952,22.7916681 18.859375,22.5 C18.1614548,22.2083319 17.4479203,21.8489605 16.71875,21.421875 C15.9895797,20.9947895 15.2500038,20.5416691 14.5,20.0625 C13.7499962,19.5833309 13.0000038,19.1562519 12.25,18.78125 C11.6249969,18.4687484 10.9218789,18.1770847 10.140625,17.90625 C9.35937109,17.6354153 8.62500344,17.333335 7.9375,17 C7.24999656,16.666665 6.67708563,16.2760439 6.21875,15.828125 C5.76041437,15.3802061 5.53125,14.82292 5.53125,14.15625 C5.53125,14.0312494 5.55729141,13.7812519 5.609375,13.40625 C5.66145859,13.0312481 5.72916625,12.5989608 5.8125,12.109375 C5.89583375,11.6197892 5.99999938,11.0885445 6.125,10.515625 C6.25000062,9.94270547 6.3958325,9.39062766 6.5625,8.859375 C6.7291675,8.32812234 6.90104078,7.84375219 7.078125,7.40625 C7.25520922,6.96874781 7.44791562,6.62500125 7.65625,6.375 C7.94791813,6.02083156 8.31770609,5.677085 8.765625,5.34375 C9.21354391,5.010415 9.65624781,4.71354297 10.09375,4.453125 C10.5312522,4.19270703 10.9218733,3.98437578 11.265625,3.828125 C11.6093767,3.67187422 11.8333328,3.59375 11.9375,3.59375 C12.1250009,3.59375 12.3072908,3.60937484 12.484375,3.640625 C12.6614592,3.67187516 12.8437491,3.6875 13.03125,3.6875 C13.4270853,3.6875 13.7656236,3.64062547 14.046875,3.546875 C14.3281264,3.45312453 14.5781239,3.33333406 14.796875,3.1875 C15.0156261,3.04166594 15.2291656,2.90104234 15.4375,2.765625 C15.6458344,2.63020766 15.8854153,2.51041719 16.15625,2.40625 C16.5104184,2.26041594 16.9427058,2.18229172 17.453125,2.171875 C17.9635442,2.16145828 18.4687475,2.10416719 18.96875,2 C19.5520863,1.87499938 20.2864539,1.72395922 21.171875,1.546875 C22.0572961,1.36979078 22.9531205,1.20312578 23.859375,1.046875 C24.7656295,0.890624219 25.6145794,0.760417187 26.40625,0.65625 C27.1979206,0.552082813 27.7916647,0.510416563 28.1875,0.53125 C28.3958344,0.53125 28.6197905,0.583332813 28.859375,0.6875 C29.0989595,0.791667187 29.2812494,1.02083156 29.40625,1.375 C29.6770847,1.56250094 29.9895816,1.69791625 30.34375,1.78125 C30.6979184,1.86458375 30.9895822,1.99999906 31.21875,2.1875 C31.5312516,2.45833469 31.8593733,2.81249781 32.203125,3.25 C32.5468767,3.68750219 32.8749984,4.06249844 33.1875,4.375 L34.015625,5.203125 C34.2552095,5.44270953 34.4531242,5.67187391 34.609375,5.890625 C34.7656258,6.10937609 34.880208,6.33854047 34.953125,6.578125 C35.026042,6.81770953 35.0625,7.104165 35.0625,7.4375 C35.0625,8.10417 34.9895841,8.74999687 34.84375,9.375 C34.6979159,10.0000031 34.4531267,10.5572892 34.109375,11.046875 C33.7656233,11.5364608 33.3072945,11.9322902 32.734375,12.234375 C32.1614555,12.5364598 31.4375044,12.6875 30.5625,12.6875 C30.0416641,12.6875 29.4791697,12.6302089 28.875,12.515625 C28.2708303,12.4010411 27.7291691,12.2500009 27.25,12.0625 C26.9999988,11.9791662 26.7500012,11.8437509 26.5,11.65625 C26.2499988,11.4687491 26.0000012,11.2760427 25.75,11.078125 C25.4999988,10.8802073 25.2395847,10.6875009 24.96875,10.5 C24.6979153,10.3124991 24.4062516,10.1666672 24.09375,10.0625 C23.7812484,9.95833281 23.3750025,9.85937547 22.875,9.765625 C22.3749975,9.67187453 21.8593777,9.59375031 21.328125,9.53125 C20.7968723,9.46874969 20.2812525,9.41666688 19.78125,9.375 C19.2812475,9.33333312 18.864585,9.3125 18.53125,9.3125 C18.0937478,9.3125 17.6666687,9.33854141 17.25,9.390625 C16.8333313,9.44270859 16.4635433,9.54687422 16.140625,9.703125 C15.8177067,9.85937578 15.5520844,10.0729153 15.34375,10.34375 C15.1354156,10.6145847 15.03125,10.9687478 15.03125,11.40625 C15.03125,11.6562512 15.0781245,11.8749991 15.171875,12.0625 C15.2656255,12.2500009 15.4010408,12.4218742 15.578125,12.578125 C15.7552092,12.7343758 15.9791653,12.8958325 16.25,13.0625 C16.5208347,13.2291675 16.8333316,13.4270822 17.1875,13.65625 C17.5000016,13.8645844 17.8072902,14.0937488 18.109375,14.34375 C18.4114598,14.5937512 18.7135402,14.8333322 19.015625,15.0625 C19.3177098,15.2916678 19.6249984,15.5104156 19.9375,15.71875 C20.2500016,15.9270844 20.572915,16.0937494 20.90625,16.21875 C21.3020853,16.3437506 21.7135395,16.4218748 22.140625,16.453125 C22.5677105,16.4843752 22.947915,16.5312497 23.28125,16.59375 C24.5104228,16.8854181 25.661453,17.3072889 26.734375,17.859375 C27.807297,18.4114611 28.8020787,19.0520797 29.71875,19.78125 C30.6354213,20.5104203 31.463538,21.2968708 32.203125,22.140625 C32.942712,22.9843792 33.5937472,23.8437456 34.15625,24.71875 C34.4270847,25.1562522 34.6458325,25.5468733 34.8125,25.890625 C34.9791675,26.2343767 35.1041662,26.5781233 35.1875,26.921875 C35.2708338,27.2656267 35.3229166,27.6354147 35.34375,28.03125 C35.3645834,28.4270853 35.375,28.9062472 35.375,29.46875 C35.375,30.1145866 35.4374994,30.7395803 35.5625,31.34375 C35.6875006,31.9479197 35.75,32.4895809 35.75,32.96875 Z M53.31525,15.3125 C53.2735831,15.7083353 53.2006672,16.072915 53.0965,16.40625 C52.9923328,16.739585 52.94025,17.1458309 52.94025,17.625 C52.94025,18.2291697 52.9610831,18.8437469 53.00275,19.46875 C53.0444169,20.0937531 53.06525,20.6770806 53.06525,21.21875 C53.06525,21.7812528 53.0079589,22.2395816 52.893375,22.59375 C52.7787911,22.9479184 52.6329592,23.255207 52.455875,23.515625 C52.2787908,23.776043 52.0860844,24.0208322 51.87775,24.25 C51.6694156,24.4791678 51.4767092,24.7499984 51.299625,25.0625 C51.1225408,25.3750016 50.9767089,25.7708309 50.862125,26.25 C50.7475411,26.7291691 50.69025,27.3333297 50.69025,28.0625 C50.69025,29.5416741 50.7319163,31.0677005 50.81525,32.640625 C50.8985838,34.2135495 50.94025,35.8854078 50.94025,37.65625 C50.94025,38.2395863 50.9142086,38.7916641 50.862125,39.3125 C50.8100414,39.8333359 50.7423338,40.3489558 50.659,40.859375 C50.5756663,41.3697942 50.4767089,41.8802058 50.362125,42.390625 C50.2475411,42.9010442 50.1277506,43.4374972 50.00275,44 C49.8569159,44.6458366 49.7215006,45.2135392 49.5965,45.703125 C49.4714994,46.1927108 49.2683764,46.604165 48.987125,46.9375 C48.7058736,47.270835 48.2996277,47.5260408 47.768375,47.703125 C47.2371224,47.8802092 46.5027547,47.96875 45.56525,47.96875 C44.8777466,47.96875 44.3777516,47.8177098 44.06525,47.515625 C43.7527484,47.2135402 43.5183758,46.8177108 43.362125,46.328125 C43.2058742,45.8385392 43.0756672,45.2864614 42.9715,44.671875 C42.8673328,44.0572886 42.6902513,43.4270866 42.44025,42.78125 C42.2735825,42.4062481 42.0965009,42.1093761 41.909,41.890625 C41.7214991,41.6718739 41.5496258,41.4427095 41.393375,41.203125 C41.2371242,40.9635405 41.1069172,40.6614602 41.00275,40.296875 C40.8985828,39.9322898 40.8465,39.41667 40.8465,38.75 C40.8465,38.2083306 40.8725414,37.6250031 40.924625,37 C40.9767086,36.3749969 41.0339997,35.7343783 41.0965,35.078125 C41.1590003,34.4218717 41.2162914,33.7552117 41.268375,33.078125 C41.3204586,32.4010383 41.3465,31.72917 41.3465,31.0625 C41.3465,30.4791638 41.3048338,29.9687522 41.2215,29.53125 C41.1381663,29.0937478 41.0496255,28.6770853 40.955875,28.28125 C40.8621245,27.8854147 40.7735838,27.4739605 40.69025,27.046875 C40.6069163,26.6197895 40.56525,26.1041697 40.56525,25.5 C40.56525,24.9166637 40.601708,24.4479184 40.674625,24.09375 C40.747542,23.7395816 40.8308745,23.4270847 40.924625,23.15625 C41.0183755,22.8854153 41.101708,22.6250012 41.174625,22.375 C41.247542,22.1249988 41.284,21.8229184 41.284,21.46875 C41.284,21.0937481 41.1746261,20.7343767 40.955875,20.390625 C40.7371239,20.0468733 40.497543,19.7187516 40.237125,19.40625 C39.976707,19.0937484 39.7423344,18.7864598 39.534,18.484375 C39.3256656,18.1822902 39.2423331,17.8958347 39.284,17.625 C39.284,17.4583325 39.3152497,17.2604178 39.37775,17.03125 C39.4402503,16.8020822 39.507958,16.557293 39.580875,16.296875 C39.653792,16.036457 39.7214997,15.776043 39.784,15.515625 C39.8465003,15.255207 39.87775,15.0000012 39.87775,14.75 C39.87775,13.8958291 39.7683761,13.0729206 39.549625,12.28125 C39.3308739,11.4895794 39.2215,10.7291703 39.2215,10 L39.2215,9.6875 C39.2215,9.58333281 39.2423331,9.47916719 39.284,9.375 C39.3256669,9.12499875 39.4610822,8.79687703 39.69025,8.390625 C39.9194178,7.98437297 40.1798319,7.58854359 40.4715,7.203125 C40.7631681,6.81770641 41.0548319,6.48437641 41.3465,6.203125 C41.6381681,5.92187359 41.8569159,5.78125 42.00275,5.78125 C42.1277506,5.78125 42.2475411,5.79166656 42.362125,5.8125 C42.4767089,5.83333344 42.5860828,5.84375 42.69025,5.84375 C43.1069188,5.84375 43.6433717,5.80208375 44.299625,5.71875 C44.9558783,5.63541625 45.6381631,5.59375 46.3465,5.59375 C46.8673359,5.59375 47.3881641,5.60937484 47.909,5.640625 C48.4298359,5.67187516 48.9142061,5.71874969 49.362125,5.78125 C49.8100439,5.84375031 50.2058733,5.92708281 50.549625,6.03125 C50.8933767,6.13541719 51.1589991,6.2708325 51.3465,6.4375 C51.4090003,6.47916688 51.5287908,6.67708156 51.705875,7.03125 C51.8829592,7.38541844 52.0756656,7.77603953 52.284,8.203125 C52.4923344,8.63021047 52.6746242,9.03645641 52.830875,9.421875 C52.9871258,9.80729359 53.0860831,10.0624994 53.12775,10.1875 C53.1902503,10.5416684 53.2475414,11.0416634 53.299625,11.6875 C53.3517086,12.3333366 53.37775,13.0104131 53.37775,13.71875 C53.37775,13.9687512 53.3673334,14.2343736 53.3465,14.515625 C53.3256666,14.7968764 53.31525,15.0624988 53.31525,15.3125 Z M89.8805,14.75 L89.8805,14.9375 C89.8805,15.2500016 89.8388338,15.7447883 89.7555,16.421875 C89.6721663,17.0989617 89.536751,17.8177045 89.34925,18.578125 C89.1617491,19.3385455 88.9325847,20.0729131 88.66175,20.78125 C88.3909153,21.4895869 88.0680019,22.0416647 87.693,22.4375 C87.3388316,22.7916684 86.864878,23.0312494 86.271125,23.15625 C85.677372,23.2812506 85.1096694,23.4374991 84.568,23.625 C84.1304978,23.7916675 83.6669608,24.0104153 83.177375,24.28125 C82.6877892,24.5520847 82.1982108,24.8124988 81.708625,25.0625 C81.2190392,25.3125013 80.7294608,25.5312491 80.239875,25.71875 C79.7502892,25.9062509 79.2763356,26 78.818,26 C78.5054985,26 78.1565436,25.9218758 77.771125,25.765625 C77.3857064,25.6093742 77.026335,25.3541684 76.693,25 C76.359665,24.6458316 76.0836261,24.1875028 75.864875,23.625 C75.6461239,23.0624972 75.53675,22.3645875 75.53675,21.53125 C75.53675,21.0104141 75.5575831,20.4687528 75.59925,19.90625 C75.6409169,19.3437472 75.66175,18.7916694 75.66175,18.25 C75.66175,17.6666637 75.6148755,17.005212 75.521125,16.265625 C75.4273745,15.526038 75.2971675,14.8333366 75.1305,14.1875 C74.9638325,13.5416634 74.7763344,12.9947939 74.568,12.546875 C74.3596656,12.0989561 74.1305013,11.875 73.8805,11.875 C73.6929991,11.875 73.4794595,11.9166663 73.239875,12 C73.0002905,12.0833337 72.7242516,12.125 72.41175,12.125 C72.0367481,12.125 71.7502927,12.0833337 71.552375,12 C71.3544574,11.9166663 71.1930006,11.8281255 71.068,11.734375 C70.9429994,11.6406245 70.8284172,11.5520837 70.72425,11.46875 C70.6200828,11.3854163 70.474251,11.34375 70.28675,11.34375 C69.7867475,11.34375 69.406543,11.4531239 69.146125,11.671875 C68.885707,11.8906261 68.6930006,12.1874981 68.568,12.5625 C68.4429994,12.9375019 68.344042,13.3645809 68.271125,13.84375 C68.198208,14.3229191 68.0888341,14.8124975 67.943,15.3125 C67.8388328,15.6666684 67.6513347,16.0624978 67.3805,16.5 C67.1096653,16.9375022 66.9117506,17.3958309 66.78675,17.875 C66.6200825,18.3541691 66.4846672,18.8802055 66.3805,19.453125 C66.2763328,20.0260445 66.130501,20.6145803 65.943,21.21875 C65.7763325,21.7395859 65.5836261,22.3958294 65.364875,23.1875 C65.1461239,23.9791706 64.9325844,24.8124956 64.72425,25.6875 C64.5159156,26.5625044 64.3388341,27.4374956 64.193,28.3125 C64.047166,29.1875044 63.97425,29.95833 63.97425,30.625 C63.97425,31.5833381 64.2867469,32.5156205 64.91175,33.421875 C65.5367531,34.3281295 66.349245,35.0833303 67.34925,35.6875 C67.6409181,35.8541675 68.0523724,35.9947911 68.583625,36.109375 C69.1148777,36.2239589 69.620081,36.3958322 70.09925,36.625 C70.5575856,36.8541678 70.953415,37.0781239 71.28675,37.296875 C71.620085,37.5156261 71.9742481,37.7135408 72.34925,37.890625 C72.7242519,38.0677092 73.1669558,38.2135411 73.677375,38.328125 C74.1877942,38.4427089 74.849246,38.5 75.66175,38.5 C76.4117538,38.5 77.1773711,38.4218758 77.958625,38.265625 C78.7398789,38.1093742 79.4846631,37.9062513 80.193,37.65625 C80.9013369,37.4062488 81.5471638,37.1250016 82.1305,36.8125 C82.7138363,36.4999984 83.1825816,36.1875016 83.53675,35.875 C83.6617506,35.7708328 83.8648736,35.5468767 84.146125,35.203125 C84.4273764,34.8593733 84.7554981,34.5000019 85.1305,34.125 C85.5055019,33.7499981 85.9221644,33.4114598 86.3805,33.109375 C86.8388356,32.8072902 87.3284141,32.65625 87.84925,32.65625 C87.9534172,32.65625 88.1148739,32.6822914 88.333625,32.734375 C88.5523761,32.7864586 88.7711239,32.8906242 88.989875,33.046875 C89.2086261,33.2031258 89.4013325,33.4270819 89.568,33.71875 C89.7346675,34.0104181 89.818,34.3854144 89.818,34.84375 C89.818,35.4479197 89.7346675,36.0729134 89.568,36.71875 C89.4013325,37.3645866 89.318,37.9791638 89.318,38.5625 C89.318,38.8125013 89.3284166,39.1249981 89.34925,39.5 C89.3700835,39.8750019 89.3805,40.2395816 89.3805,40.59375 C89.3805,41.3229203 89.1565439,42.0624963 88.708625,42.8125 C88.2607061,43.5625038 87.4742556,44.3437459 86.34925,45.15625 C85.9950816,45.4062513 85.557586,45.6302073 85.03675,45.828125 C84.5159141,46.0260427 84.0159191,46.2708319 83.53675,46.5625 C83.0367475,46.8750016 82.5055028,47.1874984 81.943,47.5 C81.3804972,47.8125016 80.932585,47.96875 80.59925,47.96875 C80.2867485,47.96875 79.963835,47.9270838 79.6305,47.84375 C79.297165,47.7604163 78.9221688,47.71875 78.5055,47.71875 C77.83883,47.71875 77.1877949,47.7395831 76.552375,47.78125 C75.9169552,47.8229169 75.26592,47.84375 74.59925,47.84375 C74.265915,47.84375 73.896127,47.8385417 73.489875,47.828125 C73.083623,47.8177083 72.6721688,47.7968752 72.2555,47.765625 C71.8388313,47.7343748 71.427377,47.6979169 71.021125,47.65625 C70.614873,47.6145831 70.245085,47.5625003 69.91175,47.5 C69.6617488,47.4791666 69.3752933,47.4531252 69.052375,47.421875 C68.7294567,47.3906248 68.4117516,47.3593752 68.09925,47.328125 C67.7867485,47.2968748 67.5107095,47.2656252 67.271125,47.234375 C67.0315405,47.2031248 66.8700838,47.1666669 66.78675,47.125 C66.640916,47.0624997 66.5055006,46.9479175 66.3805,46.78125 C66.2554994,46.6145825 66.1252924,46.4218761 65.989875,46.203125 C65.8544577,45.9843739 65.7086258,45.7656261 65.552375,45.546875 C65.3961242,45.3281239 65.2034178,45.1250009 64.97425,44.9375 C64.7242488,44.7499991 64.4430016,44.619792 64.1305,44.546875 C63.8179985,44.473958 63.568001,44.3541675 63.3805,44.1875 C63.1304988,43.854165 62.8440433,43.4895853 62.521125,43.09375 C62.1982067,42.6979147 61.8909181,42.333335 61.59925,42 C61.265915,41.4791641 61.005501,40.9375028 60.818,40.375 C60.6304991,39.8124972 60.3805016,39.3541684 60.068,39 C59.9429994,38.8749994 59.7711261,38.7552089 59.552375,38.640625 C59.3336239,38.5260411 59.0992513,38.4010423 58.84925,38.265625 C58.5992488,38.1302077 58.3544595,37.9843758 58.114875,37.828125 C57.8752905,37.6718742 57.6721675,37.4895844 57.5055,37.28125 C57.4221663,37.2187497 57.3023758,37.0520847 57.146125,36.78125 C56.9898742,36.5104153 56.8336258,36.2291681 56.677375,35.9375 C56.5211242,35.6458319 56.3857089,35.3906261 56.271125,35.171875 C56.1565411,34.9531239 56.09925,34.8645831 56.09925,34.90625 C56.09925,34.7812494 56.1461245,34.6197927 56.239875,34.421875 C56.3336255,34.2239573 56.4429994,34.0208344 56.568,33.8125 C56.6930006,33.6041656 56.8023745,33.3958344 56.896125,33.1875 C56.9898755,32.9791656 57.03675,32.8020841 57.03675,32.65625 C57.03675,32.3020816 56.9846672,31.9843764 56.8805,31.703125 C56.7763328,31.4218736 56.7034169,31.1041684 56.66175,30.75 C56.66175,30.0416631 56.6929997,29.1197973 56.7555,27.984375 C56.8180003,26.8489527 56.9169577,25.6354231 57.052375,24.34375 C57.1877924,23.0520769 57.3544574,21.7552148 57.552375,20.453125 C57.7502927,19.1510352 57.9846653,17.9687553 58.2555,16.90625 C58.4846678,16.0729125 58.7450819,15.2187544 59.03675,14.34375 C59.3284181,13.4687456 59.47425,12.6458372 59.47425,11.875 C59.47425,11.6041653 59.4534169,11.3333347 59.41175,11.0625 C59.3700831,10.7916653 59.34925,10.5208347 59.34925,10.25 C59.34925,9.68749719 59.515915,9.25000156 59.84925,8.9375 C60.182585,8.62499844 60.588831,8.34895953 61.068,8.109375 C61.5471691,7.86979047 62.0575806,7.63541781 62.59925,7.40625 C63.1409194,7.17708219 63.6200813,6.85416875 64.03675,6.4375 C64.1409172,6.31249938 64.2242497,6.13541781 64.28675,5.90625 C64.3492503,5.67708219 64.4013331,5.44791781 64.443,5.21875 C64.4846669,4.98958219 64.5263331,4.76562609 64.568,4.546875 C64.6096669,4.32812391 64.6825828,4.16666719 64.78675,4.0625 C64.8492503,3.97916625 64.9377911,3.92708344 65.052375,3.90625 C65.1669589,3.88541656 65.3023742,3.86458344 65.458625,3.84375 C65.6148758,3.82291656 65.7919574,3.78645859 65.989875,3.734375 C66.1877927,3.68229141 66.3909156,3.59375063 66.59925,3.46875 C66.8075844,3.34374938 66.9690411,3.21354234 67.083625,3.078125 C67.1982089,2.94270766 67.3075828,2.82291719 67.41175,2.71875 C67.5159172,2.61458281 67.640916,2.53125031 67.78675,2.46875 C67.9325841,2.40624969 68.1304988,2.38541656 68.3805,2.40625 C68.6096678,2.40625 68.8440405,2.41666656 69.083625,2.4375 C69.3232095,2.45833344 69.5367491,2.46875 69.72425,2.46875 C70.0367516,2.46875 70.3648733,2.45833344 70.708625,2.4375 C71.0523767,2.41666656 71.4013316,2.40625 71.7555,2.40625 C72.3388363,2.40625 72.8179981,2.46874938 73.193,2.59375 C73.5680019,2.71875062 73.9013319,2.85937422 74.193,3.015625 C74.4846681,3.17187578 74.7659153,3.3333325 75.03675,3.5 C75.3075847,3.6666675 75.6513313,3.79166625 76.068,3.875 C76.6305028,3.97916719 77.1982055,4.03645828 77.771125,4.046875 C78.3440445,4.05729172 78.9013306,4.06770828 79.443,4.078125 C79.9846694,4.08854172 80.5211224,4.13020797 81.052375,4.203125 C81.5836277,4.27604203 82.0992475,4.41666563 82.59925,4.625 C82.8909181,4.75000062 83.1982067,4.97395672 83.521125,5.296875 C83.8440433,5.61979328 84.1929981,5.92708187 84.568,6.21875 C84.9221685,6.48958469 85.302373,6.72395734 85.708625,6.921875 C86.114877,7.11979266 86.4013325,7.33333219 86.568,7.5625 C86.6930006,7.79166781 86.8023745,8.13541438 86.896125,8.59375 C86.9898755,9.05208562 87.1304991,9.43749844 87.318,9.75 C87.505501,10.083335 87.7398736,10.4322898 88.021125,10.796875 C88.3023764,11.1614602 88.5784153,11.546873 88.84925,11.953125 C89.1200847,12.359377 89.3492491,12.7968727 89.53675,13.265625 C89.724251,13.7343773 89.8388331,14.2291641 89.8805,14.75 Z M126.19575,14.75 L126.19575,14.9375 C126.19575,15.2500016 126.154084,15.7447883 126.07075,16.421875 C125.987416,17.0989617 125.852001,17.8177045 125.6645,18.578125 C125.476999,19.3385455 125.247835,20.0729131 124.977,20.78125 C124.706165,21.4895869 124.383252,22.0416647 124.00825,22.4375 C123.654082,22.7916684 123.180128,23.0312494 122.586375,23.15625 C121.992622,23.2812506 121.424919,23.4374991 120.88325,23.625 C120.445748,23.7916675 119.982211,24.0104153 119.492625,24.28125 C119.003039,24.5520847 118.513461,24.8124988 118.023875,25.0625 C117.534289,25.3125013 117.044711,25.5312491 116.555125,25.71875 C116.065539,25.9062509 115.591586,26 115.13325,26 C114.820748,26 114.471794,25.9218758 114.086375,25.765625 C113.700956,25.6093742 113.341585,25.3541684 113.00825,25 C112.674915,24.6458316 112.398876,24.1875028 112.180125,23.625 C111.961374,23.0624972 111.852,22.3645875 111.852,21.53125 C111.852,21.0104141 111.872833,20.4687528 111.9145,19.90625 C111.956167,19.3437472 111.977,18.7916694 111.977,18.25 C111.977,17.6666637 111.930125,17.005212 111.836375,16.265625 C111.742625,15.526038 111.612418,14.8333366 111.44575,14.1875 C111.279083,13.5416634 111.091584,12.9947939 110.88325,12.546875 C110.674916,12.0989561 110.445751,11.875 110.19575,11.875 C110.008249,11.875 109.79471,11.9166663 109.555125,12 C109.31554,12.0833337 109.039502,12.125 108.727,12.125 C108.351998,12.125 108.065543,12.0833337 107.867625,12 C107.669707,11.9166663 107.508251,11.8281255 107.38325,11.734375 C107.258249,11.6406245 107.143667,11.5520837 107.0395,11.46875 C106.935333,11.3854163 106.789501,11.34375 106.602,11.34375 C106.101998,11.34375 105.721793,11.4531239 105.461375,11.671875 C105.200957,11.8906261 105.008251,12.1874981 104.88325,12.5625 C104.758249,12.9375019 104.659292,13.3645809 104.586375,13.84375 C104.513458,14.3229191 104.404084,14.8124975 104.25825,15.3125 C104.154083,15.6666684 103.966585,16.0624978 103.69575,16.5 C103.424915,16.9375022 103.227001,17.3958309 103.102,17.875 C102.935333,18.3541691 102.799917,18.8802055 102.69575,19.453125 C102.591583,20.0260445 102.445751,20.6145803 102.25825,21.21875 C102.091583,21.7395859 101.898876,22.3958294 101.680125,23.1875 C101.461374,23.9791706 101.247834,24.8124956 101.0395,25.6875 C100.831166,26.5625044 100.654084,27.4374956 100.50825,28.3125 C100.362416,29.1875044 100.2895,29.95833 100.2895,30.625 C100.2895,31.5833381 100.601997,32.5156205 101.227,33.421875 C101.852003,34.3281295 102.664495,35.0833303 103.6645,35.6875 C103.956168,35.8541675 104.367622,35.9947911 104.898875,36.109375 C105.430128,36.2239589 105.935331,36.3958322 106.4145,36.625 C106.872836,36.8541678 107.268665,37.0781239 107.602,37.296875 C107.935335,37.5156261 108.289498,37.7135408 108.6645,37.890625 C109.039502,38.0677092 109.482206,38.2135411 109.992625,38.328125 C110.503044,38.4427089 111.164496,38.5 111.977,38.5 C112.727004,38.5 113.492621,38.4218758 114.273875,38.265625 C115.055129,38.1093742 115.799913,37.9062513 116.50825,37.65625 C117.216587,37.4062488 117.862414,37.1250016 118.44575,36.8125 C119.029086,36.4999984 119.497832,36.1875016 119.852,35.875 C119.977001,35.7708328 120.180124,35.5468767 120.461375,35.203125 C120.742626,34.8593733 121.070748,34.5000019 121.44575,34.125 C121.820752,33.7499981 122.237414,33.4114598 122.69575,33.109375 C123.154086,32.8072902 123.643664,32.65625 124.1645,32.65625 C124.268667,32.65625 124.430124,32.6822914 124.648875,32.734375 C124.867626,32.7864586 125.086374,32.8906242 125.305125,33.046875 C125.523876,33.2031258 125.716583,33.4270819 125.88325,33.71875 C126.049918,34.0104181 126.13325,34.3854144 126.13325,34.84375 C126.13325,35.4479197 126.049918,36.0729134 125.88325,36.71875 C125.716583,37.3645866 125.63325,37.9791638 125.63325,38.5625 C125.63325,38.8125013 125.643667,39.1249981 125.6645,39.5 C125.685333,39.8750019 125.69575,40.2395816 125.69575,40.59375 C125.69575,41.3229203 125.471794,42.0624963 125.023875,42.8125 C124.575956,43.5625038 123.789506,44.3437459 122.6645,45.15625 C122.310332,45.4062513 121.872836,45.6302073 121.352,45.828125 C120.831164,46.0260427 120.331169,46.2708319 119.852,46.5625 C119.351998,46.8750016 118.820753,47.1874984 118.25825,47.5 C117.695747,47.8125016 117.247835,47.96875 116.9145,47.96875 C116.601998,47.96875 116.279085,47.9270838 115.94575,47.84375 C115.612415,47.7604163 115.237419,47.71875 114.82075,47.71875 C114.15408,47.71875 113.503045,47.7395831 112.867625,47.78125 C112.232205,47.8229169 111.58117,47.84375 110.9145,47.84375 C110.581165,47.84375 110.211377,47.8385417 109.805125,47.828125 C109.398873,47.8177083 108.987419,47.7968752 108.57075,47.765625 C108.154081,47.7343748 107.742627,47.6979169 107.336375,47.65625 C106.930123,47.6145831 106.560335,47.5625003 106.227,47.5 C105.976999,47.4791666 105.690543,47.4531252 105.367625,47.421875 C105.044707,47.3906248 104.727002,47.3593752 104.4145,47.328125 C104.101998,47.2968748 103.82596,47.2656252 103.586375,47.234375 C103.34679,47.2031248 103.185334,47.1666669 103.102,47.125 C102.956166,47.0624997 102.820751,46.9479175 102.69575,46.78125 C102.570749,46.6145825 102.440542,46.4218761 102.305125,46.203125 C102.169708,45.9843739 102.023876,45.7656261 101.867625,45.546875 C101.711374,45.3281239 101.518668,45.1250009 101.2895,44.9375 C101.039499,44.7499991 100.758252,44.619792 100.44575,44.546875 C100.133248,44.473958 99.883251,44.3541675 99.69575,44.1875 C99.4457488,43.854165 99.1592933,43.4895853 98.836375,43.09375 C98.5134567,42.6979147 98.2061682,42.333335 97.9145,42 C97.581165,41.4791641 97.320751,40.9375028 97.13325,40.375 C96.9457491,39.8124972 96.6957516,39.3541684 96.38325,39 C96.2582494,38.8749994 96.0863761,38.7552089 95.867625,38.640625 C95.6488739,38.5260411 95.4145013,38.4010423 95.1645,38.265625 C94.9144988,38.1302077 94.6697096,37.9843758 94.430125,37.828125 C94.1905405,37.6718742 93.9874175,37.4895844 93.82075,37.28125 C93.7374163,37.2187497 93.6176258,37.0520847 93.461375,36.78125 C93.3051242,36.5104153 93.1488758,36.2291681 92.992625,35.9375 C92.8363742,35.6458319 92.7009589,35.3906261 92.586375,35.171875 C92.4717911,34.9531239 92.4145,34.8645831 92.4145,34.90625 C92.4145,34.7812494 92.4613746,34.6197927 92.555125,34.421875 C92.6488755,34.2239573 92.7582494,34.0208344 92.88325,33.8125 C93.0082507,33.6041656 93.1176246,33.3958344 93.211375,33.1875 C93.3051255,32.9791656 93.352,32.8020841 93.352,32.65625 C93.352,32.3020816 93.2999172,31.9843764 93.19575,31.703125 C93.0915828,31.4218736 93.0186669,31.1041684 92.977,30.75 C92.977,30.0416631 93.0082497,29.1197973 93.07075,27.984375 C93.1332503,26.8489527 93.2322077,25.6354231 93.367625,24.34375 C93.5030424,23.0520769 93.6697074,21.7552148 93.867625,20.453125 C94.0655427,19.1510352 94.2999153,17.9687553 94.57075,16.90625 C94.7999178,16.0729125 95.0603319,15.2187544 95.352,14.34375 C95.6436682,13.4687456 95.7895,12.6458372 95.7895,11.875 C95.7895,11.6041653 95.7686669,11.3333347 95.727,11.0625 C95.6853332,10.7916653 95.6645,10.5208347 95.6645,10.25 C95.6645,9.68749719 95.831165,9.25000156 96.1645,8.9375 C96.497835,8.62499844 96.904081,8.34895953 97.38325,8.109375 C97.8624191,7.86979047 98.3728307,7.63541781 98.9145,7.40625 C99.4561694,7.17708219 99.9353313,6.85416875 100.352,6.4375 C100.456167,6.31249938 100.5395,6.13541781 100.602,5.90625 C100.6645,5.67708219 100.716583,5.44791781 100.75825,5.21875 C100.799917,4.98958219 100.841583,4.76562609 100.88325,4.546875 C100.924917,4.32812391 100.997833,4.16666719 101.102,4.0625 C101.1645,3.97916625 101.253041,3.92708344 101.367625,3.90625 C101.482209,3.88541656 101.617624,3.86458344 101.773875,3.84375 C101.930126,3.82291656 102.107207,3.78645859 102.305125,3.734375 C102.503043,3.68229141 102.706166,3.59375063 102.9145,3.46875 C103.122834,3.34374938 103.284291,3.21354234 103.398875,3.078125 C103.513459,2.94270766 103.622833,2.82291719 103.727,2.71875 C103.831167,2.61458281 103.956166,2.53125031 104.102,2.46875 C104.247834,2.40624969 104.445749,2.38541656 104.69575,2.40625 C104.924918,2.40625 105.15929,2.41666656 105.398875,2.4375 C105.63846,2.45833344 105.851999,2.46875 106.0395,2.46875 C106.352002,2.46875 106.680123,2.45833344 107.023875,2.4375 C107.367627,2.41666656 107.716582,2.40625 108.07075,2.40625 C108.654086,2.40625 109.133248,2.46874938 109.50825,2.59375 C109.883252,2.71875062 110.216582,2.85937422 110.50825,3.015625 C110.799918,3.17187578 111.081165,3.3333325 111.352,3.5 C111.622835,3.6666675 111.966581,3.79166625 112.38325,3.875 C112.945753,3.97916719 113.513455,4.03645828 114.086375,4.046875 C114.659295,4.05729172 115.216581,4.06770828 115.75825,4.078125 C116.299919,4.08854172 116.836372,4.13020797 117.367625,4.203125 C117.898878,4.27604203 118.414498,4.41666563 118.9145,4.625 C119.206168,4.75000062 119.513457,4.97395672 119.836375,5.296875 C120.159293,5.61979328 120.508248,5.92708187 120.88325,6.21875 C121.237418,6.48958469 121.617623,6.72395734 122.023875,6.921875 C122.430127,7.11979266 122.716583,7.33333219 122.88325,7.5625 C123.008251,7.79166781 123.117625,8.13541438 123.211375,8.59375 C123.305125,9.05208562 123.445749,9.43749844 123.63325,9.75 C123.820751,10.083335 124.055124,10.4322898 124.336375,10.796875 C124.617626,11.1614602 124.893665,11.546873 125.1645,11.953125 C125.435335,12.359377 125.664499,12.7968727 125.852,13.265625 C126.039501,13.7343773 126.154083,14.2291641 126.19575,14.75 Z M174.57625,21.21875 C174.57625,21.6562522 174.503334,21.9947905 174.3575,22.234375 C174.211666,22.4739595 174.086667,22.7916647 173.9825,23.1875 C173.774166,24.1041712 173.591876,25.1406192 173.435625,26.296875 C173.279374,27.4531308 173.060626,28.567703 172.779375,29.640625 C172.498124,30.713547 172.102294,31.6614542 171.591875,32.484375 C171.081456,33.3072958 170.367921,33.8333322 169.45125,34.0625 C169.222082,34.1250003 168.935627,34.1666666 168.591875,34.1875 C168.248123,34.2083334 167.873127,34.2291666 167.466875,34.25 C167.060623,34.2708334 166.638752,34.2968748 166.20125,34.328125 C165.763748,34.3593752 165.336669,34.4062497 164.92,34.46875 C164.31583,34.5729172 163.768961,34.7187491 163.279375,34.90625 C162.789789,35.0937509 162.347085,35.2187497 161.95125,35.28125 C161.617915,35.3229169 161.222086,35.3489583 160.76375,35.359375 C160.305414,35.3697917 159.873127,35.3802083 159.466875,35.390625 C159.060623,35.4010417 158.711668,35.4322914 158.42,35.484375 C158.128332,35.5364586 157.9825,35.6249994 157.9825,35.75 C157.9825,36.6875047 158.065833,37.6718698 158.2325,38.703125 C158.399168,39.7343802 158.576249,40.7656198 158.76375,41.796875 C158.951251,42.8281302 159.128333,43.8385367 159.295,44.828125 C159.461668,45.8177133 159.545,46.7499956 159.545,47.625 C159.545,47.8541678 159.529375,48.1145819 159.498125,48.40625 C159.466875,48.6979181 159.404376,48.9999984 159.310625,49.3125 C159.216875,49.6250016 159.081459,49.9374984 158.904375,50.25 C158.727291,50.5625016 158.492918,50.8437487 158.20125,51.09375 C157.930415,51.2812509 157.555419,51.3906248 157.07625,51.421875 C156.597081,51.4531252 156.117919,51.6041653 155.63875,51.875 C155.430416,51.9791672 155.268959,52.1041659 155.154375,52.25 C155.039791,52.3958341 154.914792,52.5364577 154.779375,52.671875 C154.643958,52.8072923 154.482501,52.9218745 154.295,53.015625 C154.107499,53.1093755 153.826252,53.15625 153.45125,53.15625 C153.138748,53.15625 152.867918,53.1145837 152.63875,53.03125 C152.409582,52.9479163 152.190834,52.8489589 151.9825,52.734375 C151.774166,52.6197911 151.571043,52.5000006 151.373125,52.375 C151.175207,52.2499994 150.951251,52.1458337 150.70125,52.0625 C150.159581,51.8749991 149.649169,51.7239589 149.17,51.609375 C148.690831,51.4947911 148.263752,51.3385427 147.88875,51.140625 C147.513748,50.9427073 147.216876,50.6614602 146.998125,50.296875 C146.779374,49.9322898 146.67,49.3854203 146.67,48.65625 C146.67,48.2812481 146.711666,47.8750022 146.795,47.4375 C146.878334,46.9999978 146.92,46.5729187 146.92,46.15625 C146.92,45.156245 146.857501,44.2135461 146.7325,43.328125 C146.607499,42.4427039 146.545,41.7291694 146.545,41.1875 C146.545,40.9374988 146.612708,40.6406267 146.748125,40.296875 C146.883542,39.9531233 147.034583,39.6041684 147.20125,39.25 C147.367918,38.8958316 147.518958,38.5625016 147.654375,38.25 C147.789792,37.9374984 147.867917,37.6770844 147.88875,37.46875 C147.930417,37.1979153 147.961667,36.9479178 147.9825,36.71875 C148.003333,36.4895822 148.01375,36.2500012 148.01375,36 C148.01375,35.4374972 147.977292,34.8750028 147.904375,34.3125 C147.831458,33.7499972 147.748126,33.1979194 147.654375,32.65625 C147.560625,32.1145806 147.477292,31.5833359 147.404375,31.0625 C147.331458,30.5416641 147.295,30.0312525 147.295,29.53125 C147.295,28.1145762 147.331458,26.6406327 147.404375,25.109375 C147.477292,23.5781173 147.550208,22.0260495 147.623125,20.453125 C147.696042,18.8802005 147.768958,17.2864664 147.841875,15.671875 C147.914792,14.0572836 147.95125,12.4479247 147.95125,10.84375 C147.95125,10.4895816 147.925209,10.2083344 147.873125,10 C147.821041,9.79166562 147.680418,9.6875 147.45125,9.6875 C147.263749,9.6875 147.05021,9.71874969 146.810625,9.78125 C146.571041,9.84375031 146.310626,9.90624969 146.029375,9.96875 C145.748124,10.0312503 145.472085,10.0937497 145.20125,10.15625 C144.930415,10.2187503 144.670001,10.25 144.42,10.25 C144.211666,10.25 144.065834,10.2291669 143.9825,10.1875 C143.899166,10.1666666 143.768959,10.1041672 143.591875,10 C143.414791,9.89583281 143.237709,9.77083406 143.060625,9.625 C142.883541,9.47916594 142.727292,9.31770922 142.591875,9.140625 C142.456458,8.96354078 142.38875,8.78125094 142.38875,8.59375 C142.38875,8.34374875 142.466874,8.06250156 142.623125,7.75 C142.779376,7.43749844 142.88875,7.12500156 142.95125,6.8125 C143.076251,6.33333094 143.123125,5.94791813 143.091875,5.65625 C143.060625,5.36458187 143.138749,5.08333469 143.32625,4.8125 C143.492918,4.6458325 143.72729,4.50520891 144.029375,4.390625 C144.33146,4.27604109 144.649165,4.18229203 144.9825,4.109375 C145.315835,4.03645797 145.643957,3.98437516 145.966875,3.953125 C146.289793,3.92187484 146.544999,3.89583344 146.7325,3.875 C147.940839,3.74999938 149.326242,3.6875 150.88875,3.6875 C151.888755,3.6875 152.914786,3.71354141 153.966875,3.765625 C155.018964,3.81770859 156.050203,3.89062453 157.060625,3.984375 C158.071047,4.07812547 159.044995,4.19791594 159.9825,4.34375 C160.920005,4.48958406 161.774163,4.6458325 162.545,4.8125 C163.336671,5.00000094 164.086663,5.29166469 164.795,5.6875 C165.503337,6.08333531 166.169997,6.54687234 166.795,7.078125 C167.420003,7.60937766 168.013747,8.18228859 168.57625,8.796875 C169.138753,9.41146141 169.690831,10.0104137 170.2325,10.59375 C170.503335,10.9062516 170.763749,11.1979153 171.01375,11.46875 C171.263751,11.7395847 171.487707,11.9947905 171.685625,12.234375 C171.883543,12.4739595 172.039791,12.7187488 172.154375,12.96875 C172.268959,13.2187512 172.32625,13.4895819 172.32625,13.78125 L172.32625,14.5 C172.32625,14.833335 172.367916,15.1041656 172.45125,15.3125 C172.534584,15.5208344 172.628333,15.7031242 172.7325,15.859375 C172.836667,16.0156258 172.951249,16.1718742 173.07625,16.328125 C173.201251,16.4843758 173.315833,16.6770822 173.42,16.90625 C173.4825,17.1145844 173.503333,17.385415 173.4825,17.71875 C173.461667,18.052085 173.503333,18.3645819 173.6075,18.65625 C173.774168,19.2395863 173.977291,19.7135398 174.216875,20.078125 C174.45646,20.4427102 174.57625,20.8229147 174.57625,21.21875 Z M163.76375,20.25 C163.76375,20.0624991 163.685626,19.7760436 163.529375,19.390625 C163.373124,19.0052064 163.295,18.5416694 163.295,18 L163.295,16.71875 C163.295,15.6979116 163.154376,14.7708375 162.873125,13.9375 C162.591874,13.1041625 162.227294,12.390628 161.779375,11.796875 C161.331456,11.203122 160.831461,10.7447933 160.279375,10.421875 C159.727289,10.0989567 159.180419,9.9375 158.63875,9.9375 C158.305415,9.9375 157.98771,9.95833312 157.685625,10 C157.38354,10.0416669 157.034585,10.0625 156.63875,10.0625 C156.388749,10.0625 156.11271,10.0416669 155.810625,10 C155.50854,9.95833312 155.190835,9.87500062 154.8575,9.75 C154.878333,9.97916781 154.904375,10.3958303 154.935625,11 C154.966875,11.6041697 155.003333,12.3333291 155.045,13.1875 C155.086667,14.0416709 155.13875,14.9739533 155.20125,15.984375 C155.26375,16.9947967 155.32625,18.0104116 155.38875,19.03125 C155.45125,20.0520884 155.51375,21.0416619 155.57625,22 C155.63875,22.9583381 155.70125,23.8020797 155.76375,24.53125 C155.82625,25.2604203 155.88875,25.8489561 155.95125,26.296875 C156.01375,26.7447939 156.07625,26.96875 156.13875,26.96875 C156.388751,26.96875 156.623124,26.932292 156.841875,26.859375 C157.060626,26.786458 157.268957,26.6979172 157.466875,26.59375 C157.664793,26.4895828 157.867916,26.3854172 158.07625,26.28125 C158.284584,26.1770828 158.513749,26.0833338 158.76375,26 C159.013751,25.9166662 159.294998,25.8541669 159.6075,25.8125 C159.920002,25.7708331 160.232498,25.7187503 160.545,25.65625 C160.857502,25.5937497 161.154374,25.5104172 161.435625,25.40625 C161.716876,25.3020828 161.961666,25.1562509 162.17,24.96875 C162.420001,24.7187488 162.560625,24.3437525 162.591875,23.84375 C162.623125,23.3437475 162.732499,22.7395869 162.92,22.03125 C163.024167,21.6770816 163.180416,21.3489598 163.38875,21.046875 C163.597084,20.7447902 163.722083,20.4791678 163.76375,20.25 Z M190.79775,15.3125 C190.756083,15.7083353 190.683167,16.072915 190.579,16.40625 C190.474833,16.739585 190.42275,17.1458309 190.42275,17.625 C190.42275,18.2291697 190.443583,18.8437469 190.48525,19.46875 C190.526917,20.0937531 190.54775,20.6770806 190.54775,21.21875 C190.54775,21.7812528 190.490459,22.2395816 190.375875,22.59375 C190.261291,22.9479184 190.115459,23.255207 189.938375,23.515625 C189.761291,23.776043 189.568584,24.0208322 189.36025,24.25 C189.151916,24.4791678 188.959209,24.7499984 188.782125,25.0625 C188.605041,25.3750016 188.459209,25.7708309 188.344625,26.25 C188.230041,26.7291691 188.17275,27.3333297 188.17275,28.0625 C188.17275,29.5416741 188.214416,31.0677005 188.29775,32.640625 C188.381084,34.2135495 188.42275,35.8854078 188.42275,37.65625 C188.42275,38.2395863 188.396709,38.7916641 188.344625,39.3125 C188.292541,39.8333359 188.224834,40.3489558 188.1415,40.859375 C188.058166,41.3697942 187.959209,41.8802058 187.844625,42.390625 C187.730041,42.9010442 187.610251,43.4374972 187.48525,44 C187.339416,44.6458366 187.204001,45.2135392 187.079,45.703125 C186.953999,46.1927108 186.750876,46.604165 186.469625,46.9375 C186.188374,47.270835 185.782128,47.5260408 185.250875,47.703125 C184.719622,47.8802092 183.985255,47.96875 183.04775,47.96875 C182.360247,47.96875 181.860252,47.8177098 181.54775,47.515625 C181.235248,47.2135402 181.000876,46.8177108 180.844625,46.328125 C180.688374,45.8385392 180.558167,45.2864614 180.454,44.671875 C180.349833,44.0572886 180.172751,43.4270866 179.92275,42.78125 C179.756083,42.4062481 179.579001,42.1093761 179.3915,41.890625 C179.203999,41.6718739 179.032126,41.4427095 178.875875,41.203125 C178.719624,40.9635405 178.589417,40.6614602 178.48525,40.296875 C178.381083,39.9322898 178.329,39.41667 178.329,38.75 C178.329,38.2083306 178.355041,37.6250031 178.407125,37 C178.459209,36.3749969 178.5165,35.7343783 178.579,35.078125 C178.6415,34.4218717 178.698791,33.7552117 178.750875,33.078125 C178.802959,32.4010383 178.829,31.72917 178.829,31.0625 C178.829,30.4791638 178.787334,29.9687522 178.704,29.53125 C178.620666,29.0937478 178.532126,28.6770853 178.438375,28.28125 C178.344625,27.8854147 178.256084,27.4739605 178.17275,27.046875 C178.089416,26.6197895 178.04775,26.1041697 178.04775,25.5 C178.04775,24.9166637 178.084208,24.4479184 178.157125,24.09375 C178.230042,23.7395816 178.313375,23.4270847 178.407125,23.15625 C178.500876,22.8854153 178.584208,22.6250012 178.657125,22.375 C178.730042,22.1249988 178.7665,21.8229184 178.7665,21.46875 C178.7665,21.0937481 178.657126,20.7343767 178.438375,20.390625 C178.219624,20.0468733 177.980043,19.7187516 177.719625,19.40625 C177.459207,19.0937484 177.224834,18.7864598 177.0165,18.484375 C176.808166,18.1822902 176.724833,17.8958347 176.7665,17.625 C176.7665,17.4583325 176.79775,17.2604178 176.86025,17.03125 C176.92275,16.8020822 176.990458,16.557293 177.063375,16.296875 C177.136292,16.036457 177.204,15.776043 177.2665,15.515625 C177.329,15.255207 177.36025,15.0000012 177.36025,14.75 C177.36025,13.8958291 177.250876,13.0729206 177.032125,12.28125 C176.813374,11.4895794 176.704,10.7291703 176.704,10 L176.704,9.6875 C176.704,9.58333281 176.724833,9.47916719 176.7665,9.375 C176.808167,9.12499875 176.943582,8.79687703 177.17275,8.390625 C177.401918,7.98437297 177.662332,7.58854359 177.954,7.203125 C178.245668,6.81770641 178.537332,6.48437641 178.829,6.203125 C179.120668,5.92187359 179.339416,5.78125 179.48525,5.78125 C179.610251,5.78125 179.730041,5.79166656 179.844625,5.8125 C179.959209,5.83333344 180.068583,5.84375 180.17275,5.84375 C180.589419,5.84375 181.125872,5.80208375 181.782125,5.71875 C182.438378,5.63541625 183.120663,5.59375 183.829,5.59375 C184.349836,5.59375 184.870664,5.60937484 185.3915,5.640625 C185.912336,5.67187516 186.396706,5.71874969 186.844625,5.78125 C187.292544,5.84375031 187.688373,5.92708281 188.032125,6.03125 C188.375877,6.13541719 188.641499,6.2708325 188.829,6.4375 C188.8915,6.47916688 189.011291,6.67708156 189.188375,7.03125 C189.365459,7.38541844 189.558166,7.77603953 189.7665,8.203125 C189.974834,8.63021047 190.157124,9.03645641 190.313375,9.421875 C190.469626,9.80729359 190.568583,10.0624994 190.61025,10.1875 C190.67275,10.5416684 190.730041,11.0416634 190.782125,11.6875 C190.834209,12.3333366 190.86025,13.0104131 190.86025,13.71875 C190.86025,13.9687512 190.849833,14.2343736 190.829,14.515625 C190.808167,14.7968764 190.79775,15.0624988 190.79775,15.3125 Z M227.363,14.75 L227.363,14.9375 C227.363,15.2500016 227.321334,15.7447883 227.238,16.421875 C227.154666,17.0989617 227.019251,17.8177045 226.83175,18.578125 C226.644249,19.3385455 226.415085,20.0729131 226.14425,20.78125 C225.873415,21.4895869 225.550502,22.0416647 225.1755,22.4375 C224.821332,22.7916684 224.347378,23.0312494 223.753625,23.15625 C223.159872,23.2812506 222.592169,23.4374991 222.0505,23.625 C221.612998,23.7916675 221.149461,24.0104153 220.659875,24.28125 C220.170289,24.5520847 219.680711,24.8124988 219.191125,25.0625 C218.701539,25.3125013 218.211961,25.5312491 217.722375,25.71875 C217.232789,25.9062509 216.758836,26 216.3005,26 C215.987999,26 215.639044,25.9218758 215.253625,25.765625 C214.868206,25.6093742 214.508835,25.3541684 214.1755,25 C213.842165,24.6458316 213.566126,24.1875028 213.347375,23.625 C213.128624,23.0624972 213.01925,22.3645875 213.01925,21.53125 C213.01925,21.0104141 213.040083,20.4687528 213.08175,19.90625 C213.123417,19.3437472 213.14425,18.7916694 213.14425,18.25 C213.14425,17.6666637 213.097376,17.005212 213.003625,16.265625 C212.909875,15.526038 212.779668,14.8333366 212.613,14.1875 C212.446333,13.5416634 212.258834,12.9947939 212.0505,12.546875 C211.842166,12.0989561 211.613001,11.875 211.363,11.875 C211.175499,11.875 210.96196,11.9166663 210.722375,12 C210.482791,12.0833337 210.206752,12.125 209.89425,12.125 C209.519248,12.125 209.232793,12.0833337 209.034875,12 C208.836957,11.9166663 208.675501,11.8281255 208.5505,11.734375 C208.425499,11.6406245 208.310917,11.5520837 208.20675,11.46875 C208.102583,11.3854163 207.956751,11.34375 207.76925,11.34375 C207.269248,11.34375 206.889043,11.4531239 206.628625,11.671875 C206.368207,11.8906261 206.175501,12.1874981 206.0505,12.5625 C205.925499,12.9375019 205.826542,13.3645809 205.753625,13.84375 C205.680708,14.3229191 205.571334,14.8124975 205.4255,15.3125 C205.321333,15.6666684 205.133835,16.0624978 204.863,16.5 C204.592165,16.9375022 204.394251,17.3958309 204.26925,17.875 C204.102583,18.3541691 203.967167,18.8802055 203.863,19.453125 C203.758833,20.0260445 203.613001,20.6145803 203.4255,21.21875 C203.258833,21.7395859 203.066126,22.3958294 202.847375,23.1875 C202.628624,23.9791706 202.415084,24.8124956 202.20675,25.6875 C201.998416,26.5625044 201.821334,27.4374956 201.6755,28.3125 C201.529666,29.1875044 201.45675,29.95833 201.45675,30.625 C201.45675,31.5833381 201.769247,32.5156205 202.39425,33.421875 C203.019253,34.3281295 203.831745,35.0833303 204.83175,35.6875 C205.123418,35.8541675 205.534872,35.9947911 206.066125,36.109375 C206.597378,36.2239589 207.102581,36.3958322 207.58175,36.625 C208.040086,36.8541678 208.435915,37.0781239 208.76925,37.296875 C209.102585,37.5156261 209.456748,37.7135408 209.83175,37.890625 C210.206752,38.0677092 210.649456,38.2135411 211.159875,38.328125 C211.670294,38.4427089 212.331746,38.5 213.14425,38.5 C213.894254,38.5 214.659871,38.4218758 215.441125,38.265625 C216.222379,38.1093742 216.967163,37.9062513 217.6755,37.65625 C218.383837,37.4062488 219.029664,37.1250016 219.613,36.8125 C220.196336,36.4999984 220.665082,36.1875016 221.01925,35.875 C221.144251,35.7708328 221.347374,35.5468767 221.628625,35.203125 C221.909876,34.8593733 222.237998,34.5000019 222.613,34.125 C222.988002,33.7499981 223.404664,33.4114598 223.863,33.109375 C224.321336,32.8072902 224.810914,32.65625 225.33175,32.65625 C225.435917,32.65625 225.597374,32.6822914 225.816125,32.734375 C226.034876,32.7864586 226.253624,32.8906242 226.472375,33.046875 C226.691126,33.2031258 226.883833,33.4270819 227.0505,33.71875 C227.217168,34.0104181 227.3005,34.3854144 227.3005,34.84375 C227.3005,35.4479197 227.217168,36.0729134 227.0505,36.71875 C226.883833,37.3645866 226.8005,37.9791638 226.8005,38.5625 C226.8005,38.8125013 226.810917,39.1249981 226.83175,39.5 C226.852584,39.8750019 226.863,40.2395816 226.863,40.59375 C226.863,41.3229203 226.639044,42.0624963 226.191125,42.8125 C225.743206,43.5625038 224.956756,44.3437459 223.83175,45.15625 C223.477582,45.4062513 223.040086,45.6302073 222.51925,45.828125 C221.998414,46.0260427 221.498419,46.2708319 221.01925,46.5625 C220.519248,46.8750016 219.988003,47.1874984 219.4255,47.5 C218.862997,47.8125016 218.415085,47.96875 218.08175,47.96875 C217.769249,47.96875 217.446335,47.9270838 217.113,47.84375 C216.779665,47.7604163 216.404669,47.71875 215.988,47.71875 C215.32133,47.71875 214.670295,47.7395831 214.034875,47.78125 C213.399455,47.8229169 212.74842,47.84375 212.08175,47.84375 C211.748415,47.84375 211.378627,47.8385417 210.972375,47.828125 C210.566123,47.8177083 210.154669,47.7968752 209.738,47.765625 C209.321331,47.7343748 208.909877,47.6979169 208.503625,47.65625 C208.097373,47.6145831 207.727585,47.5625003 207.39425,47.5 C207.144249,47.4791666 206.857793,47.4531252 206.534875,47.421875 C206.211957,47.3906248 205.894252,47.3593752 205.58175,47.328125 C205.269249,47.2968748 204.99321,47.2656252 204.753625,47.234375 C204.514041,47.2031248 204.352584,47.1666669 204.26925,47.125 C204.123416,47.0624997 203.988001,46.9479175 203.863,46.78125 C203.737999,46.6145825 203.607792,46.4218761 203.472375,46.203125 C203.336958,45.9843739 203.191126,45.7656261 203.034875,45.546875 C202.878624,45.3281239 202.685918,45.1250009 202.45675,44.9375 C202.206749,44.7499991 201.925502,44.619792 201.613,44.546875 C201.300499,44.473958 201.050501,44.3541675 200.863,44.1875 C200.612999,43.854165 200.326543,43.4895853 200.003625,43.09375 C199.680707,42.6979147 199.373418,42.333335 199.08175,42 C198.748415,41.4791641 198.488001,40.9375028 198.3005,40.375 C198.112999,39.8124972 197.863002,39.3541684 197.5505,39 C197.425499,38.8749994 197.253626,38.7552089 197.034875,38.640625 C196.816124,38.5260411 196.581751,38.4010423 196.33175,38.265625 C196.081749,38.1302077 195.83696,37.9843758 195.597375,37.828125 C195.357791,37.6718742 195.154668,37.4895844 194.988,37.28125 C194.904666,37.2187497 194.784876,37.0520847 194.628625,36.78125 C194.472374,36.5104153 194.316126,36.2291681 194.159875,35.9375 C194.003624,35.6458319 193.868209,35.3906261 193.753625,35.171875 C193.639041,34.9531239 193.58175,34.8645831 193.58175,34.90625 C193.58175,34.7812494 193.628625,34.6197927 193.722375,34.421875 C193.816126,34.2239573 193.925499,34.0208344 194.0505,33.8125 C194.175501,33.6041656 194.284875,33.3958344 194.378625,33.1875 C194.472376,32.9791656 194.51925,32.8020841 194.51925,32.65625 C194.51925,32.3020816 194.467167,31.9843764 194.363,31.703125 C194.258833,31.4218736 194.185917,31.1041684 194.14425,30.75 C194.14425,30.0416631 194.1755,29.1197973 194.238,27.984375 C194.3005,26.8489527 194.399458,25.6354231 194.534875,24.34375 C194.670292,23.0520769 194.836957,21.7552148 195.034875,20.453125 C195.232793,19.1510352 195.467165,17.9687553 195.738,16.90625 C195.967168,16.0729125 196.227582,15.2187544 196.51925,14.34375 C196.810918,13.4687456 196.95675,12.6458372 196.95675,11.875 C196.95675,11.6041653 196.935917,11.3333347 196.89425,11.0625 C196.852583,10.7916653 196.83175,10.5208347 196.83175,10.25 C196.83175,9.68749719 196.998415,9.25000156 197.33175,8.9375 C197.665085,8.62499844 198.071331,8.34895953 198.5505,8.109375 C199.029669,7.86979047 199.540081,7.63541781 200.08175,7.40625 C200.623419,7.17708219 201.102581,6.85416875 201.51925,6.4375 C201.623417,6.31249938 201.70675,6.13541781 201.76925,5.90625 C201.83175,5.67708219 201.883833,5.44791781 201.9255,5.21875 C201.967167,4.98958219 202.008833,4.76562609 202.0505,4.546875 C202.092167,4.32812391 202.165083,4.16666719 202.26925,4.0625 C202.33175,3.97916625 202.420291,3.92708344 202.534875,3.90625 C202.649459,3.88541656 202.784874,3.86458344 202.941125,3.84375 C203.097376,3.82291656 203.274457,3.78645859 203.472375,3.734375 C203.670293,3.68229141 203.873416,3.59375063 204.08175,3.46875 C204.290084,3.34374938 204.451541,3.21354234 204.566125,3.078125 C204.680709,2.94270766 204.790083,2.82291719 204.89425,2.71875 C204.998417,2.61458281 205.123416,2.53125031 205.26925,2.46875 C205.415084,2.40624969 205.612999,2.38541656 205.863,2.40625 C206.092168,2.40625 206.326541,2.41666656 206.566125,2.4375 C206.80571,2.45833344 207.019249,2.46875 207.20675,2.46875 C207.519252,2.46875 207.847373,2.45833344 208.191125,2.4375 C208.534877,2.41666656 208.883832,2.40625 209.238,2.40625 C209.821336,2.40625 210.300498,2.46874938 210.6755,2.59375 C211.050502,2.71875062 211.383832,2.85937422 211.6755,3.015625 C211.967168,3.17187578 212.248415,3.3333325 212.51925,3.5 C212.790085,3.6666675 213.133831,3.79166625 213.5505,3.875 C214.113003,3.97916719 214.680706,4.03645828 215.253625,4.046875 C215.826545,4.05729172 216.383831,4.06770828 216.9255,4.078125 C217.467169,4.08854172 218.003622,4.13020797 218.534875,4.203125 C219.066128,4.27604203 219.581748,4.41666563 220.08175,4.625 C220.373418,4.75000062 220.680707,4.97395672 221.003625,5.296875 C221.326543,5.61979328 221.675498,5.92708187 222.0505,6.21875 C222.404669,6.48958469 222.784873,6.72395734 223.191125,6.921875 C223.597377,7.11979266 223.883833,7.33333219 224.0505,7.5625 C224.175501,7.79166781 224.284875,8.13541438 224.378625,8.59375 C224.472376,9.05208562 224.612999,9.43749844 224.8005,9.75 C224.988001,10.083335 225.222374,10.4322898 225.503625,10.796875 C225.784876,11.1614602 226.060915,11.546873 226.33175,11.953125 C226.602585,12.359377 226.831749,12.7968727 227.01925,13.265625 C227.206751,13.7343773 227.321333,14.2291641 227.363,14.75 Z M263.67825,14.75 L263.67825,14.9375 C263.67825,15.2500016 263.636584,15.7447883 263.55325,16.421875 C263.469916,17.0989617 263.334501,17.8177045 263.147,18.578125 C262.959499,19.3385455 262.730335,20.0729131 262.4595,20.78125 C262.188665,21.4895869 261.865752,22.0416647 261.49075,22.4375 C261.136582,22.7916684 260.662628,23.0312494 260.068875,23.15625 C259.475122,23.2812506 258.907419,23.4374991 258.36575,23.625 C257.928248,23.7916675 257.464711,24.0104153 256.975125,24.28125 C256.485539,24.5520847 255.995961,24.8124988 255.506375,25.0625 C255.016789,25.3125013 254.527211,25.5312491 254.037625,25.71875 C253.548039,25.9062509 253.074086,26 252.61575,26 C252.303249,26 251.954294,25.9218758 251.568875,25.765625 C251.183456,25.6093742 250.824085,25.3541684 250.49075,25 C250.157415,24.6458316 249.881376,24.1875028 249.662625,23.625 C249.443874,23.0624972 249.3345,22.3645875 249.3345,21.53125 C249.3345,21.0104141 249.355333,20.4687528 249.397,19.90625 C249.438667,19.3437472 249.4595,18.7916694 249.4595,18.25 C249.4595,17.6666637 249.412626,17.005212 249.318875,16.265625 C249.225125,15.526038 249.094918,14.8333366 248.92825,14.1875 C248.761583,13.5416634 248.574084,12.9947939 248.36575,12.546875 C248.157416,12.0989561 247.928251,11.875 247.67825,11.875 C247.490749,11.875 247.27721,11.9166663 247.037625,12 C246.798041,12.0833337 246.522002,12.125 246.2095,12.125 C245.834498,12.125 245.548043,12.0833337 245.350125,12 C245.152207,11.9166663 244.990751,11.8281255 244.86575,11.734375 C244.740749,11.6406245 244.626167,11.5520837 244.522,11.46875 C244.417833,11.3854163 244.272001,11.34375 244.0845,11.34375 C243.584498,11.34375 243.204293,11.4531239 242.943875,11.671875 C242.683457,11.8906261 242.490751,12.1874981 242.36575,12.5625 C242.240749,12.9375019 242.141792,13.3645809 242.068875,13.84375 C241.995958,14.3229191 241.886584,14.8124975 241.74075,15.3125 C241.636583,15.6666684 241.449085,16.0624978 241.17825,16.5 C240.907415,16.9375022 240.709501,17.3958309 240.5845,17.875 C240.417833,18.3541691 240.282417,18.8802055 240.17825,19.453125 C240.074083,20.0260445 239.928251,20.6145803 239.74075,21.21875 C239.574083,21.7395859 239.381376,22.3958294 239.162625,23.1875 C238.943874,23.9791706 238.730334,24.8124956 238.522,25.6875 C238.313666,26.5625044 238.136584,27.4374956 237.99075,28.3125 C237.844916,29.1875044 237.772,29.95833 237.772,30.625 C237.772,31.5833381 238.084497,32.5156205 238.7095,33.421875 C239.334503,34.3281295 240.146995,35.0833303 241.147,35.6875 C241.438668,35.8541675 241.850122,35.9947911 242.381375,36.109375 C242.912628,36.2239589 243.417831,36.3958322 243.897,36.625 C244.355336,36.8541678 244.751165,37.0781239 245.0845,37.296875 C245.417835,37.5156261 245.771998,37.7135408 246.147,37.890625 C246.522002,38.0677092 246.964706,38.2135411 247.475125,38.328125 C247.985544,38.4427089 248.646996,38.5 249.4595,38.5 C250.209504,38.5 250.975121,38.4218758 251.756375,38.265625 C252.537629,38.1093742 253.282413,37.9062513 253.99075,37.65625 C254.699087,37.4062488 255.344914,37.1250016 255.92825,36.8125 C256.511586,36.4999984 256.980332,36.1875016 257.3345,35.875 C257.459501,35.7708328 257.662624,35.5468767 257.943875,35.203125 C258.225126,34.8593733 258.553248,34.5000019 258.92825,34.125 C259.303252,33.7499981 259.719914,33.4114598 260.17825,33.109375 C260.636586,32.8072902 261.126164,32.65625 261.647,32.65625 C261.751167,32.65625 261.912624,32.6822914 262.131375,32.734375 C262.350126,32.7864586 262.568874,32.8906242 262.787625,33.046875 C263.006376,33.2031258 263.199083,33.4270819 263.36575,33.71875 C263.532418,34.0104181 263.61575,34.3854144 263.61575,34.84375 C263.61575,35.4479197 263.532418,36.0729134 263.36575,36.71875 C263.199083,37.3645866 263.11575,37.9791638 263.11575,38.5625 C263.11575,38.8125013 263.126167,39.1249981 263.147,39.5 C263.167834,39.8750019 263.17825,40.2395816 263.17825,40.59375 C263.17825,41.3229203 262.954294,42.0624963 262.506375,42.8125 C262.058456,43.5625038 261.272006,44.3437459 260.147,45.15625 C259.792832,45.4062513 259.355336,45.6302073 258.8345,45.828125 C258.313664,46.0260427 257.813669,46.2708319 257.3345,46.5625 C256.834498,46.8750016 256.303253,47.1874984 255.74075,47.5 C255.178247,47.8125016 254.730335,47.96875 254.397,47.96875 C254.084499,47.96875 253.761585,47.9270838 253.42825,47.84375 C253.094915,47.7604163 252.719919,47.71875 252.30325,47.71875 C251.63658,47.71875 250.985545,47.7395831 250.350125,47.78125 C249.714705,47.8229169 249.06367,47.84375 248.397,47.84375 C248.063665,47.84375 247.693877,47.8385417 247.287625,47.828125 C246.881373,47.8177083 246.469919,47.7968752 246.05325,47.765625 C245.636581,47.7343748 245.225127,47.6979169 244.818875,47.65625 C244.412623,47.6145831 244.042835,47.5625003 243.7095,47.5 C243.459499,47.4791666 243.173043,47.4531252 242.850125,47.421875 C242.527207,47.3906248 242.209502,47.3593752 241.897,47.328125 C241.584499,47.2968748 241.30846,47.2656252 241.068875,47.234375 C240.829291,47.2031248 240.667834,47.1666669 240.5845,47.125 C240.438666,47.0624997 240.303251,46.9479175 240.17825,46.78125 C240.053249,46.6145825 239.923042,46.4218761 239.787625,46.203125 C239.652208,45.9843739 239.506376,45.7656261 239.350125,45.546875 C239.193874,45.3281239 239.001168,45.1250009 238.772,44.9375 C238.521999,44.7499991 238.240752,44.619792 237.92825,44.546875 C237.615749,44.473958 237.365751,44.3541675 237.17825,44.1875 C236.928249,43.854165 236.641793,43.4895853 236.318875,43.09375 C235.995957,42.6979147 235.688668,42.333335 235.397,42 C235.063665,41.4791641 234.803251,40.9375028 234.61575,40.375 C234.428249,39.8124972 234.178252,39.3541684 233.86575,39 C233.740749,38.8749994 233.568876,38.7552089 233.350125,38.640625 C233.131374,38.5260411 232.897001,38.4010423 232.647,38.265625 C232.396999,38.1302077 232.15221,37.9843758 231.912625,37.828125 C231.673041,37.6718742 231.469918,37.4895844 231.30325,37.28125 C231.219916,37.2187497 231.100126,37.0520847 230.943875,36.78125 C230.787624,36.5104153 230.631376,36.2291681 230.475125,35.9375 C230.318874,35.6458319 230.183459,35.3906261 230.068875,35.171875 C229.954291,34.9531239 229.897,34.8645831 229.897,34.90625 C229.897,34.7812494 229.943875,34.6197927 230.037625,34.421875 C230.131376,34.2239573 230.240749,34.0208344 230.36575,33.8125 C230.490751,33.6041656 230.600125,33.3958344 230.693875,33.1875 C230.787626,32.9791656 230.8345,32.8020841 230.8345,32.65625 C230.8345,32.3020816 230.782417,31.9843764 230.67825,31.703125 C230.574083,31.4218736 230.501167,31.1041684 230.4595,30.75 C230.4595,30.0416631 230.49075,29.1197973 230.55325,27.984375 C230.61575,26.8489527 230.714708,25.6354231 230.850125,24.34375 C230.985542,23.0520769 231.152207,21.7552148 231.350125,20.453125 C231.548043,19.1510352 231.782415,17.9687553 232.05325,16.90625 C232.282418,16.0729125 232.542832,15.2187544 232.8345,14.34375 C233.126168,13.4687456 233.272,12.6458372 233.272,11.875 C233.272,11.6041653 233.251167,11.3333347 233.2095,11.0625 C233.167833,10.7916653 233.147,10.5208347 233.147,10.25 C233.147,9.68749719 233.313665,9.25000156 233.647,8.9375 C233.980335,8.62499844 234.386581,8.34895953 234.86575,8.109375 C235.344919,7.86979047 235.855331,7.63541781 236.397,7.40625 C236.938669,7.17708219 237.417831,6.85416875 237.8345,6.4375 C237.938667,6.31249938 238.022,6.13541781 238.0845,5.90625 C238.147,5.67708219 238.199083,5.44791781 238.24075,5.21875 C238.282417,4.98958219 238.324083,4.76562609 238.36575,4.546875 C238.407417,4.32812391 238.480333,4.16666719 238.5845,4.0625 C238.647,3.97916625 238.735541,3.92708344 238.850125,3.90625 C238.964709,3.88541656 239.100124,3.86458344 239.256375,3.84375 C239.412626,3.82291656 239.589707,3.78645859 239.787625,3.734375 C239.985543,3.68229141 240.188666,3.59375063 240.397,3.46875 C240.605334,3.34374938 240.766791,3.21354234 240.881375,3.078125 C240.995959,2.94270766 241.105333,2.82291719 241.2095,2.71875 C241.313667,2.61458281 241.438666,2.53125031 241.5845,2.46875 C241.730334,2.40624969 241.928249,2.38541656 242.17825,2.40625 C242.407418,2.40625 242.641791,2.41666656 242.881375,2.4375 C243.12096,2.45833344 243.334499,2.46875 243.522,2.46875 C243.834502,2.46875 244.162623,2.45833344 244.506375,2.4375 C244.850127,2.41666656 245.199082,2.40625 245.55325,2.40625 C246.136586,2.40625 246.615748,2.46874938 246.99075,2.59375 C247.365752,2.71875062 247.699082,2.85937422 247.99075,3.015625 C248.282418,3.17187578 248.563665,3.3333325 248.8345,3.5 C249.105335,3.6666675 249.449081,3.79166625 249.86575,3.875 C250.428253,3.97916719 250.995956,4.03645828 251.568875,4.046875 C252.141795,4.05729172 252.699081,4.06770828 253.24075,4.078125 C253.782419,4.08854172 254.318872,4.13020797 254.850125,4.203125 C255.381378,4.27604203 255.896998,4.41666563 256.397,4.625 C256.688668,4.75000062 256.995957,4.97395672 257.318875,5.296875 C257.641793,5.61979328 257.990748,5.92708187 258.36575,6.21875 C258.719919,6.48958469 259.100123,6.72395734 259.506375,6.921875 C259.912627,7.11979266 260.199083,7.33333219 260.36575,7.5625 C260.490751,7.79166781 260.600125,8.13541438 260.693875,8.59375 C260.787626,9.05208562 260.928249,9.43749844 261.11575,9.75 C261.303251,10.083335 261.537624,10.4322898 261.818875,10.796875 C262.100126,11.1614602 262.376165,11.546873 262.647,11.953125 C262.917835,12.359377 263.146999,12.7968727 263.3345,13.265625 C263.522001,13.7343773 263.636583,14.2291641 263.67825,14.75 Z M299.9935,32.96875 C299.951833,33.5520863 299.847668,34.1041641 299.681,34.625 C299.514333,35.1458359 299.431,35.6666641 299.431,36.1875 C299.431,36.4375012 299.451833,36.7604147 299.4935,37.15625 C299.535167,37.5520853 299.556,37.9791644 299.556,38.4375 C299.556,39.2291706 299.368502,39.9374969 298.9935,40.5625 C298.618498,41.1875031 298.139336,41.7708306 297.556,42.3125 C296.972664,42.8541694 296.321629,43.3802058 295.602875,43.890625 C294.884121,44.4010442 294.170587,44.9270806 293.46225,45.46875 C292.962248,45.8645853 292.545585,46.2604147 292.21225,46.65625 C291.878915,47.0520853 291.493502,47.4062484 291.056,47.71875 C290.618498,48.0312516 290.06642,48.2864573 289.39975,48.484375 C288.73308,48.6822927 287.806006,48.78125 286.6185,48.78125 C285.972664,48.78125 285.311212,48.7343755 284.634125,48.640625 C283.957038,48.5468745 283.28517,48.4375006 282.6185,48.3125 C281.95183,48.1874994 281.311211,48.0781255 280.696625,47.984375 C280.082039,47.8906245 279.514336,47.84375 278.9935,47.84375 C278.555998,47.84375 278.139335,47.8854163 277.7435,47.96875 C277.347665,48.0520837 276.951835,48.09375 276.556,48.09375 C276.389333,48.09375 276.097669,48.0260423 275.681,47.890625 C275.264331,47.7552077 274.816419,47.5677095 274.33725,47.328125 C273.858081,47.0885405 273.378919,46.7968767 272.89975,46.453125 C272.420581,46.1093733 272.024752,45.7187522 271.71225,45.28125 C271.420582,44.8854147 271.238292,44.4635439 271.165375,44.015625 C271.092458,43.5677061 270.951834,43.1354187 270.7435,42.71875 C270.451832,42.1979141 270.071627,41.6979191 269.602875,41.21875 C269.134123,40.7395809 268.722669,40.16667 268.3685,39.5 C268.055999,38.8958303 267.785168,38.1666709 267.556,37.3125 C267.326832,36.4583291 267.066418,35.6145875 266.77475,34.78125 C266.399748,33.6770778 266.02996,32.6875044 265.665375,31.8125 C265.30079,30.9374956 265.1185,30.1979197 265.1185,29.59375 C265.1185,28.9062466 265.212249,28.1718789 265.39975,27.390625 C265.587251,26.6093711 265.837249,25.8802117 266.14975,25.203125 C266.462252,24.5260383 266.821623,23.9687522 267.227875,23.53125 C267.634127,23.0937478 268.055998,22.875 268.4935,22.875 C268.722668,22.875 268.962249,22.9166662 269.21225,23 C269.462251,23.0833338 269.722665,23.125 269.9935,23.125 C270.347669,23.0833331 270.644541,22.9791675 270.884125,22.8125 C271.12371,22.6458325 271.378915,22.5625 271.64975,22.5625 C271.920585,22.5625 272.305998,22.6093745 272.806,22.703125 C273.306003,22.7968755 273.821622,22.9166659 274.352875,23.0625 C274.884128,23.2083341 275.384123,23.3541659 275.852875,23.5 C276.321627,23.6458341 276.670582,23.7812494 276.89975,23.90625 C277.233085,24.0729175 277.587248,24.3645813 277.96225,24.78125 C278.337252,25.1979187 278.680999,25.6562475 278.9935,26.15625 C279.306002,26.6562525 279.566416,27.1770806 279.77475,27.71875 C279.983084,28.2604194 280.08725,28.7395812 280.08725,29.15625 C280.08725,29.3854178 280.076834,29.6197905 280.056,29.859375 C280.035167,30.0989595 280.02475,30.3333322 280.02475,30.5625 C280.02475,30.9791687 280.097666,31.4010395 280.2435,31.828125 C280.389334,32.2552105 280.514333,32.7291641 280.6185,33.25 C280.701834,33.8333363 280.759125,34.3854141 280.790375,34.90625 C280.821625,35.4270859 280.8685,35.9114561 280.931,36.359375 C280.9935,36.8072939 281.082041,37.2291647 281.196625,37.625 C281.311209,38.0208353 281.514332,38.3958316 281.806,38.75 C282.222669,39.2916694 282.805996,39.7239567 283.556,40.046875 C284.306004,40.3697933 285.04558,40.53125 285.77475,40.53125 C286.233086,40.53125 286.602874,40.4583341 286.884125,40.3125 C287.165376,40.1666659 287.410166,39.9895844 287.6185,39.78125 C287.826834,39.5729156 288.029957,39.3593761 288.227875,39.140625 C288.425793,38.9218739 288.660165,38.7291675 288.931,38.5625 C289.347669,38.3124988 289.743498,38.1197923 290.1185,37.984375 C290.493502,37.8489577 290.826832,37.6718761 291.1185,37.453125 C291.410168,37.2343739 291.639333,36.9375019 291.806,36.5625 C291.972668,36.1874981 292.056,35.6354203 292.056,34.90625 C292.056,34.3229137 291.946626,33.7031283 291.727875,33.046875 C291.509124,32.3906217 291.3685,31.72917 291.306,31.0625 C291.2435,30.4791637 291.201834,29.984377 291.181,29.578125 C291.160167,29.171873 291.123709,28.7864602 291.071625,28.421875 C291.019541,28.0572898 290.931001,27.6927102 290.806,27.328125 C290.680999,26.9635398 290.462252,26.5416691 290.14975,26.0625 C290.066416,25.9791662 289.878918,25.7656267 289.58725,25.421875 C289.295582,25.0781233 288.957044,24.7187519 288.571625,24.34375 C288.186206,23.9687481 287.774752,23.6302098 287.33725,23.328125 C286.899748,23.0260402 286.493502,22.875 286.1185,22.875 C285.951833,22.875 285.790376,22.8854166 285.634125,22.90625 C285.477874,22.9270834 285.316418,22.9375 285.14975,22.9375 C284.48308,22.9375 283.800795,22.7916681 283.102875,22.5 C282.404955,22.2083319 281.69142,21.8489605 280.96225,21.421875 C280.23308,20.9947895 279.493504,20.5416691 278.7435,20.0625 C277.993496,19.5833309 277.243504,19.1562519 276.4935,18.78125 C275.868497,18.4687484 275.165379,18.1770847 274.384125,17.90625 C273.602871,17.6354153 272.868504,17.333335 272.181,17 C271.493497,16.666665 270.920586,16.2760439 270.46225,15.828125 C270.003914,15.3802061 269.77475,14.82292 269.77475,14.15625 C269.77475,14.0312494 269.800791,13.7812519 269.852875,13.40625 C269.904959,13.0312481 269.972666,12.5989608 270.056,12.109375 C270.139334,11.6197892 270.243499,11.0885445 270.3685,10.515625 C270.493501,9.94270547 270.639333,9.39062766 270.806,8.859375 C270.972668,8.32812234 271.144541,7.84375219 271.321625,7.40625 C271.498709,6.96874781 271.691416,6.62500125 271.89975,6.375 C272.191418,6.02083156 272.561206,5.677085 273.009125,5.34375 C273.457044,5.010415 273.899748,4.71354297 274.33725,4.453125 C274.774752,4.19270703 275.165373,3.98437578 275.509125,3.828125 C275.852877,3.67187422 276.076833,3.59375 276.181,3.59375 C276.368501,3.59375 276.550791,3.60937484 276.727875,3.640625 C276.904959,3.67187516 277.087249,3.6875 277.27475,3.6875 C277.670585,3.6875 278.009124,3.64062547 278.290375,3.546875 C278.571626,3.45312453 278.821624,3.33333406 279.040375,3.1875 C279.259126,3.04166594 279.472666,2.90104234 279.681,2.765625 C279.889334,2.63020766 280.128915,2.51041719 280.39975,2.40625 C280.753919,2.26041594 281.186206,2.18229172 281.696625,2.171875 C282.207044,2.16145828 282.712248,2.10416719 283.21225,2 C283.795586,1.87499938 284.529954,1.72395922 285.415375,1.546875 C286.300796,1.36979078 287.196621,1.20312578 288.102875,1.046875 C289.00913,0.890624219 289.858079,0.760417187 290.64975,0.65625 C291.441421,0.552082813 292.035165,0.510416563 292.431,0.53125 C292.639334,0.53125 292.863291,0.583332813 293.102875,0.6875 C293.34246,0.791667187 293.524749,1.02083156 293.64975,1.375 C293.920585,1.56250094 294.233082,1.69791625 294.58725,1.78125 C294.941419,1.86458375 295.233082,1.99999906 295.46225,2.1875 C295.774752,2.45833469 296.102873,2.81249781 296.446625,3.25 C296.790377,3.68750219 297.118499,4.06249844 297.431,4.375 L298.259125,5.203125 C298.49871,5.44270953 298.696624,5.67187391 298.852875,5.890625 C299.009126,6.10937609 299.123708,6.33854047 299.196625,6.578125 C299.269542,6.81770953 299.306,7.104165 299.306,7.4375 C299.306,8.10417 299.233084,8.74999687 299.08725,9.375 C298.941416,10.0000031 298.696627,10.5572892 298.352875,11.046875 C298.009123,11.5364608 297.550795,11.9322902 296.977875,12.234375 C296.404956,12.5364598 295.681004,12.6875 294.806,12.6875 C294.285164,12.6875 293.72267,12.6302089 293.1185,12.515625 C292.51433,12.4010411 291.972669,12.2500009 291.4935,12.0625 C291.243499,11.9791662 290.993501,11.8437509 290.7435,11.65625 C290.493499,11.4687491 290.243501,11.2760427 289.9935,11.078125 C289.743499,10.8802073 289.483085,10.6875009 289.21225,10.5 C288.941415,10.3124991 288.649752,10.1666672 288.33725,10.0625 C288.024749,9.95833281 287.618503,9.85937547 287.1185,9.765625 C286.618498,9.67187453 286.102878,9.59375031 285.571625,9.53125 C285.040372,9.46874969 284.524753,9.41666688 284.02475,9.375 C283.524748,9.33333312 283.108085,9.3125 282.77475,9.3125 C282.337248,9.3125 281.910169,9.33854141 281.4935,9.390625 C281.076831,9.44270859 280.707043,9.54687422 280.384125,9.703125 C280.061207,9.85937578 279.795584,10.0729153 279.58725,10.34375 C279.378916,10.6145847 279.27475,10.9687478 279.27475,11.40625 C279.27475,11.6562512 279.321625,11.8749991 279.415375,12.0625 C279.509126,12.2500009 279.644541,12.4218742 279.821625,12.578125 C279.998709,12.7343758 280.222665,12.8958325 280.4935,13.0625 C280.764335,13.2291675 281.076832,13.4270822 281.431,13.65625 C281.743502,13.8645844 282.05079,14.0937488 282.352875,14.34375 C282.65496,14.5937512 282.95704,14.8333322 283.259125,15.0625 C283.56121,15.2916678 283.868499,15.5104156 284.181,15.71875 C284.493502,15.9270844 284.816415,16.0937494 285.14975,16.21875 C285.545585,16.3437506 285.95704,16.4218748 286.384125,16.453125 C286.811211,16.4843752 287.191415,16.5312497 287.52475,16.59375 C288.753923,16.8854181 289.904953,17.3072889 290.977875,17.859375 C292.050797,18.4114611 293.045579,19.0520797 293.96225,19.78125 C294.878921,20.5104203 295.707038,21.2968708 296.446625,22.140625 C297.186212,22.9843792 297.837247,23.8437456 298.39975,24.71875 C298.670585,25.1562522 298.889333,25.5468733 299.056,25.890625 C299.222668,26.2343767 299.347666,26.5781233 299.431,26.921875 C299.514334,27.2656267 299.566417,27.6354147 299.58725,28.03125 C299.608084,28.4270853 299.6185,28.9062472 299.6185,29.46875 C299.6185,30.1145866 299.680999,30.7395803 299.806,31.34375 C299.931001,31.9479197 299.9935,32.4895809 299.9935,32.96875 Z" id="path-2"></path>
        <filter x="-1.8%" y="-8.6%" width="103.7%" height="122.8%" filterUnits="objectBoundingBox" id="filter-3">
            <feMorphology radius="3" operator="dilate" in="SourceAlpha" result="shadowSpreadOuter1"></feMorphology>
            <feOffset dx="0" dy="2" in="shadowSpreadOuter1" result="shadowOffsetOuter1"></feOffset>
            <feGaussianBlur stdDeviation="0.5" in="shadowOffsetOuter1" result="shadowBlurOuter1"></feGaussianBlur>
            <feComposite in="shadowBlurOuter1" in2="SourceAlpha" operator="out" result="shadowBlurOuter1"></feComposite>
            <feColorMatrix values="0 0 0 0 0   0 0 0 0 0   0 0 0 0 0  0 0 0 0.125 0" type="matrix" in="shadowBlurOuter1"></feColorMatrix>
        </filter>
    </defs>
    <g id="logo" stroke="none" stroke-width="1" fill="none" fill-rule="evenodd">
        <g id="SICC-PICCS">
            <use fill="black" fill-opacity="1" filter="url(#filter-3)" xlink:href="#path-2"></use>
            <use fill="url(#linearGradient-1)" fill-rule="evenodd" xlink:href="#path-2"></use>
        </g>
    </g>
</svg>