<?xml version="1.0" encoding="UTF-8"?>
<svg width="350px" height="100px" viewBox="0 0 350 100" version="1.1" xmlns="http://www.w3.org/2000/svg" xmlns:xlink="http://www.w3.org/1999/xlink">
    <!-- Generator: Sketch 51.3 (57544) - http://www.bohemiancoding.com/sketch -->
    <title>logo</title>
    <desc>Created with Sketch.</desc>
    <defs>
        <linearGradient x1="67.4464742%" y1="-73.4980137%" x2="39.7829712%" y2="287.251145%" id="linearGradient-1">
            <stop stop-color="#24F236" offset="0%"></stop>
            <stop stop-color="#BD10E0" offset="100%"></stop>
        </linearGradient>
        <path d="M60.8611838,56.6706581 C60.8195334,57.258093 60.715409,57.8140499 60.5488076,58.3385453 C60.3822061,58.8630407 60.2989066,59.3875283 60.2989066,59.9120238 C60.2989066,60.1637816 60.3197315,60.4889639 60.3613819,60.8875804 C60.4030322,61.286197 60.4238571,61.7162768 60.4238571,62.1778328 C60.4238571,62.9750659 60.2364332,63.688369 59.8615799,64.3177635 C59.4867266,64.947158 59.0077546,65.5345841 58.4246494,66.0800594 C57.8415443,66.6255347 57.190767,67.1552671 56.4722982,67.6692727 C55.7538293,68.1832782 55.0405775,68.7130106 54.3325212,69.2584859 C53.8327168,69.6571024 53.4162194,70.055713 53.0830164,70.4543295 C52.7498135,70.8529461 52.3645534,71.2095976 51.9272245,71.5242949 C51.4898956,71.8389922 50.9380365,72.0959911 50.2716306,72.2952994 C49.6052247,72.4946076 48.678518,72.5942603 47.4914825,72.5942603 C46.8459018,72.5942603 46.1847121,72.5470564 45.5078936,72.4526472 C44.8310751,72.358238 44.159473,72.2480956 43.4930671,72.1222167 C42.8266612,71.9963378 42.1862964,71.8861954 41.5719535,71.7917863 C40.9576106,71.6973771 40.3901328,71.6501732 39.8695032,71.6501732 C39.4321744,71.6501732 39.0156769,71.6921322 38.6199984,71.7760515 C38.2243199,71.8599707 37.8286474,71.9019297 37.4329689,71.9019297 C37.2663674,71.9019297 36.9748192,71.8337464 36.5583155,71.6973775 C36.1418118,71.5610087 35.6940771,71.3721932 35.2150979,71.1309253 C34.7361186,70.8896574 34.2571466,70.5959443 33.7781673,70.2497773 C33.2991881,69.9036104 32.9035156,69.5102447 32.5911378,69.0696685 C32.2995852,68.671052 32.1173676,68.246217 32.0444794,67.7951509 C31.9715913,67.3440848 31.8310234,66.9087602 31.6227716,66.4891638 C31.331219,65.9646683 30.9511651,65.4611603 30.4825985,64.9786245 C30.0140318,64.4960886 29.6027406,63.9191523 29.2487125,63.2477981 C28.9363347,62.6393834 28.6656114,61.9051008 28.4365343,61.0449283 C28.2074573,60.1847557 27.9471464,59.3350859 27.6555939,58.4958931 C27.2807405,57.3839628 26.9110991,56.3874364 26.5466583,55.506284 C26.1822176,54.6251317 26,53.8803593 26,53.2719446 C26,52.5796106 26.0937119,51.8400831 26.2811386,51.05334 C26.4685652,50.2665968 26.7184637,49.5323142 27.0308415,48.8504701 C27.3432192,48.168626 27.7024483,47.6074243 28.1085393,47.1668481 C28.5146304,46.726272 28.9363341,46.5059872 29.3736629,46.5059872 C29.60274,46.5059872 29.842226,46.5479462 30.0921282,46.6318655 C30.3420304,46.7157847 30.6023413,46.7577437 30.8730687,46.7577437 C31.2270968,46.7157841 31.5238512,46.6108866 31.7633409,46.443048 C32.0028305,46.2752095 32.2579352,46.1912915 32.5286626,46.1912915 C32.7993899,46.1912915 33.1846501,46.2384954 33.6844545,46.3329045 C34.1842589,46.4273137 34.6996745,46.5479459 35.2307167,46.6948046 C35.7617589,46.8416633 36.2615558,46.9885198 36.7301224,47.1353786 C37.1986891,47.2822373 37.5475057,47.4186041 37.7765827,47.544483 C38.1097856,47.7123215 38.4638085,48.0060346 38.8386618,48.4256309 C39.2135151,48.8452273 39.5571255,49.3067763 39.8695032,49.810292 C40.181881,50.3138076 40.4421919,50.8382952 40.6504437,51.3837704 C40.8586956,51.9292457 40.9628199,52.4117743 40.9628199,52.8313706 C40.9628199,53.0621486 40.9524075,53.298168 40.9315823,53.539436 C40.9107571,53.7807039 40.9003447,54.0167233 40.9003447,54.2475013 C40.9003447,54.6670976 40.9732317,55.0919326 41.119008,55.5220188 C41.2647843,55.9521051 41.3897335,56.4293888 41.4938595,56.9538842 C41.5771602,57.5413191 41.6344286,58.097276 41.6656664,58.6217714 C41.6969041,59.1462669 41.7437601,59.6340403 41.8062357,60.0851064 C41.8687112,60.5361725 41.9572169,60.9610074 42.0717554,61.359624 C42.1862939,61.7582405 42.3893364,62.1358716 42.680889,62.4925285 C43.0973927,63.0380037 43.6804891,63.4733284 44.4301957,63.7985156 C45.1799023,64.1237028 45.9191853,64.2862939 46.6480667,64.2862939 C47.1062208,64.2862939 47.4758623,64.2128657 47.7570022,64.0660069 C48.0381422,63.9191482 48.2828345,63.7408224 48.4910863,63.5310243 C48.6993381,63.3212261 48.9023806,63.1061862 49.1002199,62.8858981 C49.2980591,62.66561 49.5323389,62.4715496 49.8030663,62.3037111 C50.21957,62.0519532 50.6152426,61.8578928 50.9900959,61.721524 C51.3649492,61.5851552 51.6981472,61.4068294 51.9896997,61.1865413 C52.2812523,60.9662533 52.5103259,60.6672953 52.6769274,60.2896586 C52.8435288,59.9120219 52.9268283,59.3560651 52.9268283,58.6217714 C52.9268283,58.0343365 52.8174977,57.4101963 52.5988333,56.749332 C52.3801689,56.0884678 52.239601,55.4223686 52.1771254,54.7510144 C52.1146499,54.1635795 52.0730002,53.6653163 52.052175,53.2562098 C52.0313498,52.8471034 51.9949063,52.4589826 51.9428433,52.0918358 C51.8907803,51.7246889 51.8022746,51.3575476 51.6773235,50.9904008 C51.5523724,50.623254 51.3337113,50.1984191 51.0213335,49.7158833 C50.9380328,49.631964 50.7506089,49.4169241 50.4590564,49.0707571 C50.1675038,48.7245901 49.8290996,48.3626937 49.4438337,47.9850569 C49.0585678,47.6074202 48.6472766,47.2665033 48.2099477,46.9622959 C47.7726189,46.6580886 47.3665339,46.5059872 46.9916805,46.5059872 C46.8250791,46.5059872 46.6636863,46.5164769 46.5074974,46.5374567 C46.3513086,46.5584366 46.1899158,46.5689263 46.0233143,46.5689263 C45.3569084,46.5689263 44.6748939,46.4220698 43.9772502,46.1283523 C43.2796066,45.8346349 42.5663547,45.4727385 41.8374733,45.0426522 C41.1085918,44.6125659 40.3693089,44.1562617 39.6196023,43.6737259 C38.8698956,43.1911901 38.1202003,42.7611103 37.3704936,42.3834736 C36.7457381,42.0687763 36.0428987,41.7750633 35.2619543,41.5023256 C34.4810099,41.229588 33.7469332,40.9253852 33.0597021,40.5897081 C32.372471,40.254031 31.799787,39.8606653 31.341633,39.4095993 C30.8834789,38.9585332 30.6544054,38.3973315 30.6544054,37.7259773 C30.6544054,37.6000984 30.6804364,37.3483443 30.7324994,36.9707076 C30.7845624,36.5930709 30.8522432,36.1577462 30.9355439,35.6647205 C31.0188447,35.1716948 31.122969,34.6367174 31.2479201,34.0597724 C31.3728712,33.4828275 31.5186453,32.9268706 31.6852468,32.3918853 C31.8518483,31.8568999 32.0236535,31.3691265 32.2006675,30.9285503 C32.3776816,30.4879741 32.5703117,30.1418123 32.7785635,29.8900545 C33.0701161,29.5333976 33.4397576,29.1872358 33.887499,28.8515587 C34.3352405,28.5158816 34.777769,28.2169237 35.2150979,27.954676 C35.6524267,27.6924282 36.0428931,27.4826332 36.3865086,27.3252846 C36.7301241,27.1679359 36.9539915,27.0892628 37.0581174,27.0892628 C37.2455441,27.0892628 37.4277617,27.1049974 37.6047758,27.1364672 C37.7817898,27.1679369 37.9640075,27.1836715 38.1514341,27.1836715 C38.5471126,27.1836715 38.8855168,27.1364676 39.1666568,27.0420585 C39.4477968,26.9476493 39.6976952,26.8270171 39.9163596,26.6801584 C40.1350241,26.5332997 40.348479,26.391688 40.5567309,26.2553192 C40.7649827,26.1189504 41.0044687,25.9983183 41.2751961,25.8934192 C41.6292242,25.7465604 42.0613403,25.6678873 42.5715573,25.6573974 C43.0817743,25.6469075 43.5867775,25.5892139 44.0865819,25.4843148 C44.6696871,25.3584359 45.4037638,25.2063345 46.2888341,25.028006 C47.1739044,24.8496776 48.0693739,24.6818415 48.9752694,24.5244929 C49.8811649,24.3671443 50.7297784,24.2360224 51.5211354,24.1311233 C52.3124924,24.0262242 52.9060013,23.9842652 53.3016798,24.005245 C53.5099316,24.005245 53.733799,24.0576938 53.9732886,24.1625928 C54.2127782,24.2674919 54.3949958,24.4982665 54.5199469,24.8549234 C54.7906743,25.0437417 55.1030474,25.1801085 55.4570755,25.2640278 C55.8111037,25.3479471 56.1026519,25.4843138 56.3317289,25.6731322 C56.6441066,25.9458698 56.9720984,26.3025214 57.3157139,26.7430975 C57.6593295,27.1836737 57.9873212,27.5613048 58.2996989,27.876002 L59.1274959,28.7099456 C59.3669855,28.9512135 59.5648218,29.1819881 59.7210106,29.4022762 C59.8771995,29.6225643 59.9917363,29.8533388 60.0646245,30.0946067 C60.1375126,30.3358746 60.1739561,30.6243428 60.1739561,30.9600199 C60.1739561,31.631374 60.1010691,32.2817386 59.9552928,32.9111332 C59.8095165,33.5405277 59.5648243,34.1017294 59.2212087,34.5947551 C58.8775932,35.0877809 58.419446,35.4863914 57.8467535,35.7905988 C57.2740609,36.0948061 56.5503966,36.2469075 55.6757389,36.2469075 C55.1551093,36.2469075 54.5928377,36.1892139 53.9889074,36.0738249 C53.3849771,35.9584359 52.8435304,35.8063345 52.3645512,35.6175161 C52.114649,35.5335969 51.8647505,35.3972301 51.6148483,35.2084117 C51.3649461,35.0195934 51.1150476,34.825533 50.8651454,34.6262247 C50.6152432,34.4269164 50.3549323,34.232856 50.0842049,34.0440377 C49.8134775,33.8552193 49.5219293,33.7083628 49.2095516,33.6034637 C48.8971738,33.4985646 48.4910888,33.398912 47.9912844,33.3045028 C47.49148,33.2100936 46.9760644,33.1314205 46.4450222,33.068481 C45.91398,33.0055416 45.3985644,32.9530928 44.89876,32.9111332 C44.3989556,32.8691735 43.9824582,32.848194 43.6492552,32.848194 C43.2119264,32.848194 42.7850165,32.8744184 42.3685128,32.9268679 C41.9520091,32.9793175 41.5823677,33.084215 41.2595773,33.2415636 C40.936787,33.3989123 40.6712698,33.6139522 40.463018,33.8866898 C40.2547662,34.1594274 40.1506418,34.516079 40.1506418,34.9566552 C40.1506418,35.208413 40.1974978,35.4286978 40.2912111,35.6175161 C40.3849244,35.8063345 40.5202861,35.9794154 40.6973001,36.136764 C40.8743142,36.2941127 41.0981816,36.4567038 41.368909,36.6245424 C41.6396364,36.7923809 41.9520094,36.9916862 42.3060376,37.2224642 C42.6184153,37.4322624 42.9255822,37.6630369 43.2275474,37.9147947 C43.5295125,38.1665525 43.8314732,38.4078168 44.1334383,38.6385948 C44.4354035,38.8693728 44.7425704,39.0896576 45.0549481,39.2994558 C45.3673259,39.5092539 45.6901114,39.67709 46.0233143,39.8029689 C46.4189928,39.9288478 46.830284,40.0075209 47.2572003,40.0389906 C47.6841166,40.0704604 48.0641705,40.1176643 48.3973734,40.1806037 C49.6260593,40.4743212 50.7766335,40.8991561 51.8491304,41.4551213 C52.9216274,42.0110864 53.916015,42.6562062 54.8323231,43.3904998 C55.7486312,44.1247934 56.5764199,44.9167697 57.3157139,45.7664523 C58.0550079,46.6161349 58.7057852,47.4815394 59.2680652,48.3626918 C59.5387925,48.803268 59.7574537,49.1966336 59.9240552,49.5428006 C60.0906566,49.8889676 60.2156059,50.2351294 60.2989066,50.5812964 C60.3822073,50.9274634 60.4342695,51.2998496 60.4550947,51.6984661 C60.4759199,52.0970827 60.4863323,52.5796113 60.4863323,53.1460663 C60.4863323,53.7964407 60.5488069,54.4258258 60.673758,55.0342405 C60.7987092,55.6426552 60.8611838,56.1881223 60.8611838,56.6706581 Z M78.4194751,38.8903514 C78.3778247,39.2889679 78.3049376,39.6561092 78.2008117,39.9917863 C78.0966858,40.3274634 78.0446236,40.7365637 78.0446236,41.2190995 C78.0446236,41.8275142 78.0654485,42.4464096 78.1070989,43.0758041 C78.1487492,43.7051986 78.1695741,44.2926247 78.1695741,44.8381 C78.1695741,45.4045551 78.1123057,45.8661041 77.9977672,46.2227611 C77.8832287,46.579418 77.7374546,46.8888656 77.5604405,47.1511134 C77.3834264,47.4133611 77.1907964,47.6598702 76.9825445,47.8906482 C76.7742927,48.1214262 76.5816626,48.3941598 76.4046486,48.708857 C76.2276345,49.0235543 76.0818604,49.4221649 75.9673219,49.9047007 C75.8527834,50.3872365 75.795515,50.9956421 75.795515,51.7299357 C75.795515,53.2195028 75.8371647,54.7562514 75.9204655,56.3402276 C76.0037662,57.9242039 76.0454159,59.607809 76.0454159,61.3910935 C76.0454159,61.9785284 76.0193849,62.5344853 75.9673219,63.0589807 C75.9152589,63.5834762 75.8475781,64.1027189 75.7642774,64.6167244 C75.6809766,65.1307299 75.5820585,65.6447278 75.46752,66.1587333 C75.3529815,66.6727389 75.2332385,67.2129611 75.1082873,67.7794161 C74.9625111,68.4297905 74.8271494,69.001482 74.7021983,69.4945077 C74.5772472,69.9875334 74.3742047,70.4018786 74.0930647,70.7375557 C73.8119247,71.0732328 73.4058397,71.3302317 72.8747975,71.5085601 C72.3437553,71.6868886 71.6096786,71.7760515 70.6725453,71.7760515 C69.9853143,71.7760515 69.4855173,71.6239501 69.1731396,71.3197427 C68.8607618,71.0155354 68.626482,70.6169248 68.4702931,70.1238991 C68.3141042,69.6308733 68.1839488,69.0749165 68.0798229,68.4560119 C67.975697,67.8371073 67.7986855,67.2024773 67.5487833,66.5521029 C67.3821819,66.1744662 67.2051705,65.8755083 67.0177438,65.6552202 C66.8303171,65.4349321 66.658512,65.2041576 66.5023231,64.9628897 C66.3461342,64.7216218 66.2159787,64.417419 66.1118528,64.0502722 C66.0077269,63.6831253 65.9556647,63.1638826 65.9556647,62.4925285 C65.9556647,61.9470532 65.9816958,61.3596271 66.0337588,60.7302326 C66.0858217,60.100838 66.1430901,59.4557183 66.2055657,58.7948541 C66.2680412,58.1339898 66.3253096,57.4626457 66.3773726,56.7808016 C66.4294356,56.0989575 66.4554666,55.4223686 66.4554666,54.7510144 C66.4554666,54.1635795 66.4138169,53.6495817 66.3305162,53.2090055 C66.2472154,52.7684293 66.1587097,52.3488392 66.0649964,51.9502227 C65.9712831,51.5516062 65.8827774,51.137261 65.7994766,50.7071747 C65.7161759,50.2770884 65.6745261,49.7578457 65.6745261,49.149431 C65.6745261,48.5619961 65.7109697,48.0899573 65.7838578,47.7333004 C65.856746,47.3766435 65.9400454,47.0619509 66.0337588,46.7892133 C66.1274721,46.5164757 66.2107716,46.2542319 66.2836597,46.0024741 C66.3565479,45.7507163 66.3929914,45.4465135 66.3929914,45.0898566 C66.3929914,44.7122198 66.2836608,44.3503234 66.0649964,44.0041564 C65.846332,43.6579894 65.6068459,43.3275622 65.3465311,43.012865 C65.0862163,42.6981677 64.8519365,42.38872 64.6436847,42.0845127 C64.4354329,41.7803053 64.3521334,41.4918371 64.3937837,41.2190995 C64.3937837,41.051261 64.425021,40.8519557 64.4874966,40.6211777 C64.5499721,40.3903997 64.617653,40.1438905 64.6905411,39.8816428 C64.7634293,39.6193951 64.8311101,39.3571513 64.8935857,39.0949036 C64.9560612,38.8326558 64.9872985,38.5756569 64.9872985,38.3238991 C64.9872985,37.4637266 64.8779679,36.6350362 64.6593035,35.8378031 C64.4406391,35.04057 64.3313085,34.2748182 64.3313085,33.5405246 L64.3313085,33.2258289 C64.3313085,33.1209298 64.3521334,33.0160323 64.3937837,32.9111332 C64.4354341,32.6593753 64.5707958,32.3289482 64.7998728,31.9198417 C65.0289498,31.5107353 65.2892607,31.1121247 65.5808133,30.7239981 C65.8723659,30.3358715 66.1639141,30.0001994 66.4554666,29.7169719 C66.7470192,29.4337443 66.9656804,29.2921327 67.1114567,29.2921327 C67.2364078,29.2921327 67.3561508,29.3026224 67.4706893,29.3236022 C67.5852278,29.3445821 67.6945584,29.3550718 67.7986843,29.3550718 C68.215188,29.3550718 68.7514284,29.3131128 69.4074217,29.2291935 C70.063415,29.1452743 70.7454296,29.1033153 71.4534858,29.1033153 C71.9741154,29.1033153 72.4947372,29.1190499 73.0153668,29.1505196 C73.5359964,29.1819893 74.0201747,29.2291932 74.4679161,29.2921327 C74.9156576,29.3550721 75.3113302,29.4389901 75.6549457,29.5438892 C75.9985612,29.6487883 76.2640783,29.7851551 76.451505,29.9529936 C76.5139806,29.9949533 76.6337236,30.1942585 76.8107376,30.5509155 C76.9877517,30.9075724 77.1803818,31.300938 77.3886336,31.7310243 C77.5968854,32.1611106 77.7791031,32.5702109 77.9352919,32.9583375 C78.0914808,33.3464641 78.190399,33.6034631 78.2320493,33.729342 C78.2945249,34.0859989 78.3517933,34.5895069 78.4038562,35.2398813 C78.4559192,35.8902557 78.4819503,36.5720895 78.4819503,37.2854033 C78.4819503,37.5371611 78.4715379,37.8046498 78.4507127,38.0878773 C78.4298875,38.3711049 78.4194751,38.6385935 78.4194751,38.8903514 Z M114.970239,38.3238991 L114.970239,38.5127165 C114.970239,38.8274138 114.928589,39.325677 114.845289,40.0075211 C114.761988,40.6893652 114.626626,41.413158 114.4392,42.1789214 C114.251773,42.9446847 114.022699,43.6842122 113.751972,44.397526 C113.481245,45.1108398 113.158459,45.6667967 112.783606,46.0654132 C112.429578,46.4220701 111.955812,46.6633344 111.362294,46.7892133 C110.768776,46.9150922 110.201299,47.0724385 109.659844,47.2612568 C109.222515,47.4290954 108.759162,47.6493802 108.26977,47.9221178 C107.780378,48.1948554 107.290993,48.4570992 106.801602,48.708857 C106.31221,48.9606149 105.822825,49.1808996 105.333433,49.369718 C104.844042,49.5585364 104.370276,49.6529441 103.912122,49.6529441 C103.599744,49.6529441 103.250927,49.574271 102.865662,49.4169224 C102.480396,49.2595737 102.121167,49.0025748 101.787964,48.6459179 C101.454761,48.289261 101.178831,47.8277119 100.960167,47.2612568 C100.741502,46.6948018 100.632172,45.9919884 100.632172,45.1527957 C100.632172,44.6283002 100.652997,44.0828332 100.694647,43.5163781 C100.736297,42.949923 100.757122,42.3939662 100.757122,41.8484909 C100.757122,41.261056 100.710266,40.5949568 100.616553,39.8501732 C100.52284,39.1053897 100.392684,38.4078212 100.226083,37.7574469 C100.059481,37.1070725 99.8720573,36.5563605 99.6638055,36.1052945 C99.4555536,35.6542284 99.2264801,35.4286987 98.9765778,35.4286987 C98.7891512,35.4286987 98.5756963,35.4706577 98.3362066,35.554577 C98.096717,35.6384963 97.8207875,35.6804553 97.5084097,35.6804553 C97.1335564,35.6804553 96.8472144,35.6384963 96.6493752,35.554577 C96.4515359,35.4706577 96.2901432,35.3814948 96.1651921,35.2870857 C96.040241,35.1926765 95.9257042,35.1035136 95.8215782,35.0195943 C95.7174523,34.935675 95.5716782,34.893716 95.3842516,34.893716 C94.8844471,34.893716 94.5043932,35.0038584 94.2440784,35.2241465 C93.9837636,35.4444346 93.7911336,35.7433925 93.6661825,36.1210292 C93.5412314,36.498666 93.4423132,36.9287458 93.3694251,37.4112816 C93.2965369,37.8938174 93.1872064,38.3868357 93.0414301,38.8903514 C92.9373041,39.2470083 92.7498803,39.6456188 92.4791529,40.086195 C92.2084255,40.5267712 92.0105892,40.9883202 91.8856381,41.4708561 C91.7190367,41.9533919 91.583675,42.4831243 91.4795491,43.0600693 C91.3754232,43.6370143 91.2296491,44.2296853 91.0422224,44.8381 C90.8756209,45.3625954 90.6829909,46.0234498 90.4643264,46.8206829 C90.245662,47.617916 90.0322071,48.4570961 89.8239552,49.3382484 C89.6157034,50.2194008 89.438692,51.1005399 89.2929157,51.9816923 C89.1471394,52.8628446 89.0742523,53.6390862 89.0742523,54.3104404 C89.0742523,55.275512 89.3866254,56.2143448 90.0113809,57.1269669 C90.6361365,58.039589 91.4483065,58.8000959 92.4479153,59.4085107 C92.7394679,59.5763492 93.1507591,59.7179609 93.6818013,59.8333499 C94.2128435,59.9487388 94.7178466,60.1218198 95.1968258,60.3525977 C95.6549799,60.5833757 96.0506524,60.8089054 96.3838554,61.0291935 C96.7170583,61.2494816 97.0710812,61.4487869 97.4459345,61.6271153 C97.8207878,61.8054438 98.2633163,61.9523003 98.7735333,62.0676893 C99.2837503,62.1830783 99.94494,62.2407719 100.757122,62.2407719 C101.506829,62.2407719 102.272143,62.1620988 103.053087,62.0047501 C103.834032,61.8474015 104.578521,61.6428514 105.286577,61.3910935 C105.994633,61.1393357 106.640204,60.8561124 107.223309,60.5414152 C107.806415,60.2267179 108.274974,59.9120253 108.629002,59.5973281 C108.753953,59.492429 108.956996,59.2668993 109.238136,58.9207323 C109.519276,58.5745653 109.847268,58.2126689 110.222121,57.8350322 C110.596974,57.4573955 111.013472,57.1164785 111.471626,56.8122712 C111.92978,56.5080638 112.419164,56.3559624 112.939794,56.3559624 C113.04392,56.3559624 113.205313,56.3821868 113.423977,56.4346363 C113.642641,56.4870859 113.861303,56.5919834 114.079967,56.749332 C114.298631,56.9066807 114.491262,57.1322103 114.657863,57.4259278 C114.824464,57.7196452 114.907764,58.0972763 114.907764,58.5588323 C114.907764,59.167247 114.824464,59.7966321 114.657863,60.4470065 C114.491262,61.0973808 114.407962,61.7162762 114.407962,62.3037111 C114.407962,62.5554689 114.418374,62.8701614 114.4392,63.2477981 C114.460025,63.6254349 114.470437,63.9925762 114.470437,64.3492331 C114.470437,65.0835267 114.24657,65.8282991 113.798828,66.5835725 C113.351087,67.3388459 112.564948,68.1255773 111.440388,68.9437902 C111.08636,69.195548 110.649038,69.4210777 110.128408,69.620386 C109.607779,69.8196942 109.107982,70.0662034 108.629002,70.3599208 C108.129198,70.6746181 107.598164,70.9893107 107.035884,71.3040079 C106.473604,71.6187052 106.025869,71.7760515 105.692666,71.7760515 C105.380288,71.7760515 105.057503,71.7340925 104.7243,71.6501732 C104.391097,71.5662539 104.016249,71.5242949 103.599746,71.5242949 C102.93334,71.5242949 102.282562,71.5452744 101.647394,71.587234 C101.012226,71.6291937 100.361449,71.6501732 99.6950431,71.6501732 C99.3618402,71.6501732 98.9921987,71.6449283 98.5861076,71.6344384 C98.1800165,71.6239485 97.7687253,71.602969 97.3522216,71.5714993 C96.9357179,71.5400295 96.5244267,71.5033154 96.1183356,71.4613558 C95.7122445,71.4193961 95.3426031,71.3669474 95.0094001,71.3040079 C94.7594979,71.2830281 94.4731559,71.2568037 94.1503656,71.225334 C93.8275752,71.1938643 93.5099959,71.162395 93.1976182,71.1309253 C92.8852404,71.0994556 92.6093109,71.0679863 92.3698212,71.0365166 C92.1303316,71.0050469 91.9689389,70.9683327 91.8856381,70.9263731 C91.7398618,70.8634336 91.6045002,70.7480464 91.4795491,70.5802078 C91.354598,70.4123693 91.2244425,70.2183089 91.0890788,69.9980208 C90.9537151,69.7777327 90.807941,69.5574479 90.6517521,69.3371598 C90.4955633,69.1168717 90.3029332,68.9123216 90.0738562,68.7235032 C89.823954,68.5346849 89.5428182,68.403563 89.2304404,68.3301336 C88.9180627,68.2567042 88.6681642,68.1360721 88.4807376,67.9682336 C88.2308354,67.6325565 87.9444934,67.2654152 87.621703,66.8667986 C87.2989127,66.4681821 86.9917458,66.1010408 86.7001932,65.7653637 C86.3669903,65.2408682 86.1066794,64.6954012 85.9192527,64.1289461 C85.7318261,63.562491 85.4819276,63.1009419 85.1695499,62.744285 C85.0445988,62.6184061 84.8727936,62.497774 84.6541291,62.382385 C84.4354647,62.266996 84.2011849,62.141119 83.9512827,62.0047501 C83.7013805,61.8683813 83.4566882,61.7215248 83.2171986,61.5641762 C82.977709,61.4068275 82.7746665,61.2232569 82.608065,61.0134587 C82.5247643,60.9505193 82.4050213,60.7826832 82.2488324,60.5099456 C82.0926435,60.237208 81.936457,59.9539847 81.7802681,59.6602672 C81.6240792,59.3665498 81.4887176,59.1095509 81.374179,58.8892628 C81.2596405,58.6689747 81.2023721,58.5798118 81.2023721,58.6217714 C81.2023721,58.4958925 81.2492281,58.3333014 81.3429414,58.1339931 C81.4366548,57.9346848 81.5459853,57.7301347 81.6709364,57.5203365 C81.7958875,57.3105383 81.9052181,57.1007433 81.9989314,56.8909451 C82.0926448,56.6811469 82.1395007,56.5028211 82.1395007,56.3559624 C82.1395007,55.9993055 82.0874386,55.6793681 81.9833126,55.3961406 C81.8791867,55.112913 81.8062997,54.7929756 81.7646493,54.4363187 C81.7646493,53.7230049 81.7958866,52.7946619 81.8583622,51.6512618 C81.9208377,50.5078617 82.0197558,49.2858057 82.1551195,47.9850569 C82.2904832,46.6843082 82.4570822,45.3783342 82.6549215,44.0670955 C82.8527607,42.7558569 83.0870405,41.5652701 83.3577679,40.4952994 C83.5868449,39.6561067 83.8471558,38.7959471 84.1387084,37.9147947 C84.430261,37.0336424 84.5760351,36.204952 84.5760351,35.4286987 C84.5760351,35.1559611 84.5552102,34.8832275 84.5135598,34.6104899 C84.4719095,34.3377523 84.4510846,34.0650187 84.4510846,33.7922811 C84.4510846,33.225826 84.6176836,32.7852565 84.9508865,32.4705592 C85.2840895,32.1558619 85.6901745,31.8778835 86.1691537,31.6366156 C86.6481329,31.3953477 87.1583423,31.1593283 87.6997971,30.9285503 C88.2412519,30.6977723 88.7202239,30.37259 89.1367276,29.9529936 C89.2408535,29.8271147 89.324153,29.6487889 89.3866285,29.418011 C89.4491041,29.187233 89.5011663,28.9564584 89.5428166,28.7256804 C89.584467,28.4949024 89.6261168,28.2693728 89.6677671,28.0490847 C89.7094175,27.8287966 89.7823045,27.6662054 89.8864305,27.5613064 C89.948906,27.4773871 90.0374117,27.4249383 90.1519502,27.4039585 C90.2664887,27.3829787 90.4018504,27.3619992 90.5580393,27.3410194 C90.7142282,27.3200395 90.8912396,27.2833254 91.0890788,27.2308759 C91.2869181,27.1784263 91.4899606,27.0892634 91.6982124,26.9633845 C91.9064643,26.8375056 92.067857,26.7063837 92.1823955,26.5700149 C92.296934,26.4336461 92.4062646,26.313014 92.5103905,26.2081149 C92.6145165,26.1032158 92.7394657,26.0192978 92.885242,25.9563583 C93.0310183,25.8934189 93.2288545,25.8724394 93.4787567,25.8934192 C93.7078338,25.8934192 93.9421136,25.9039089 94.1816032,25.9248887 C94.4210928,25.9458686 94.6345477,25.9563583 94.8219744,25.9563583 C95.1343522,25.9563583 95.4623439,25.9458686 95.8059594,25.9248887 C96.149575,25.9039089 96.4983916,25.8934192 96.8524197,25.8934192 C97.4355248,25.8934192 97.9144969,25.9563577 98.2893502,26.0822366 C98.6642035,26.2081155 98.9974015,26.3497271 99.288954,26.5070758 C99.5805066,26.6644244 99.8616424,26.8270156 100.13237,26.9948541 C100.403097,27.1626926 100.746708,27.2885697 101.163211,27.3724889 C101.725491,27.477388 102.292969,27.5350817 102.865662,27.5455716 C103.438354,27.5560615 103.995419,27.5665512 104.536874,27.5770411 C105.078329,27.587531 105.614569,27.6294901 106.145612,27.7029194 C106.676654,27.7763488 107.192069,27.9179604 107.691874,28.1277586 C107.983426,28.2536375 108.290593,28.4791672 108.613384,28.8043543 C108.936174,29.1295415 109.284991,29.4389892 109.659844,29.7327066 C110.013872,30.0054443 110.393926,30.2414637 110.800017,30.440772 C111.206108,30.6400802 111.49245,30.8551201 111.659052,31.0858981 C111.784003,31.3166761 111.893333,31.6628379 111.987047,32.1243939 C112.08076,32.5859499 112.221328,32.9740707 112.408754,33.288768 C112.596181,33.6244451 112.830461,33.9758518 113.111601,34.3429986 C113.392741,34.7101454 113.66867,35.0982662 113.939398,35.5073726 C114.210125,35.9164791 114.439199,36.3570487 114.626625,36.8290946 C114.814052,37.3011405 114.928589,37.7994037 114.970239,38.3238991 Z M151.271102,38.3238991 L151.271102,38.5127165 C151.271102,38.8274138 151.229453,39.325677 151.146152,40.0075211 C151.062851,40.6893652 150.92749,41.413158 150.740063,42.1789214 C150.552636,42.9446847 150.323563,43.6842122 150.052835,44.397526 C149.782108,45.1108398 149.459322,45.6667967 149.084469,46.0654132 C148.730441,46.4220701 148.256675,46.6633344 147.663157,46.7892133 C147.06964,46.9150922 146.502162,47.0724385 145.960707,47.2612568 C145.523378,47.4290954 145.060025,47.6493802 144.570633,47.9221178 C144.081241,48.1948554 143.591857,48.4570992 143.102465,48.708857 C142.613073,48.9606149 142.123689,49.1808996 141.634297,49.369718 C141.144905,49.5585364 140.671139,49.6529441 140.212985,49.6529441 C139.900607,49.6529441 139.551791,49.574271 139.166525,49.4169224 C138.781259,49.2595737 138.42203,49.0025748 138.088827,48.6459179 C137.755624,48.289261 137.479694,47.8277119 137.26103,47.2612568 C137.042365,46.6948018 136.933035,45.9919884 136.933035,45.1527957 C136.933035,44.6283002 136.95386,44.0828332 136.99551,43.5163781 C137.037161,42.949923 137.057985,42.3939662 137.057985,41.8484909 C137.057985,41.261056 137.011129,40.5949568 136.917416,39.8501732 C136.823703,39.1053897 136.693547,38.4078212 136.526946,37.7574469 C136.360344,37.1070725 136.172921,36.5563605 135.964669,36.1052945 C135.756417,35.6542284 135.527343,35.4286987 135.277441,35.4286987 C135.090014,35.4286987 134.876559,35.4706577 134.63707,35.554577 C134.39758,35.6384963 134.121651,35.6804553 133.809273,35.6804553 C133.43442,35.6804553 133.148078,35.6384963 132.950238,35.554577 C132.752399,35.4706577 132.591006,35.3814948 132.466055,35.2870857 C132.341104,35.1926765 132.226567,35.1035136 132.122441,35.0195943 C132.018316,34.935675 131.872541,34.893716 131.685115,34.893716 C131.18531,34.893716 130.805256,35.0038584 130.544942,35.2241465 C130.284627,35.4444346 130.091997,35.7433925 129.967046,36.1210292 C129.842095,36.498666 129.743176,36.9287458 129.670288,37.4112816 C129.5974,37.8938174 129.48807,38.3868357 129.342293,38.8903514 C129.238167,39.2470083 129.050744,39.6456188 128.780016,40.086195 C128.509289,40.5267712 128.311452,40.9883202 128.186501,41.4708561 C128.0199,41.9533919 127.884538,42.4831243 127.780412,43.0600693 C127.676286,43.6370143 127.530512,44.2296853 127.343086,44.8381 C127.176484,45.3625954 126.983854,46.0234498 126.76519,46.8206829 C126.546525,47.617916 126.33307,48.4570961 126.124818,49.3382484 C125.916567,50.2194008 125.739555,51.1005399 125.593779,51.9816923 C125.448003,52.8628446 125.375116,53.6390862 125.375116,54.3104404 C125.375116,55.275512 125.687489,56.2143448 126.312244,57.1269669 C126.937,58.039589 127.74917,58.8000959 128.748778,59.4085107 C129.040331,59.5763492 129.451622,59.7179609 129.982664,59.8333499 C130.513707,59.9487388 131.01871,60.1218198 131.497689,60.3525977 C131.955843,60.5833757 132.351516,60.8089054 132.684719,61.0291935 C133.017922,61.2494816 133.371944,61.4487869 133.746798,61.6271153 C134.121651,61.8054438 134.56418,61.9523003 135.074397,62.0676893 C135.584614,62.1830783 136.245803,62.2407719 137.057985,62.2407719 C137.807692,62.2407719 138.573006,62.1620988 139.35395,62.0047501 C140.134895,61.8474015 140.879384,61.6428514 141.58744,61.3910935 C142.295497,61.1393357 142.941068,60.8561124 143.524173,60.5414152 C144.107278,60.2267179 144.575837,59.9120253 144.929866,59.5973281 C145.054817,59.492429 145.257859,59.2668993 145.538999,58.9207323 C145.820139,58.5745653 146.148131,58.2126689 146.522984,57.8350322 C146.897838,57.4573955 147.314335,57.1164785 147.772489,56.8122712 C148.230643,56.5080638 148.720028,56.3559624 149.240657,56.3559624 C149.344783,56.3559624 149.506176,56.3821868 149.72484,56.4346363 C149.943505,56.4870859 150.162166,56.5919834 150.38083,56.749332 C150.599495,56.9066807 150.792125,57.1322103 150.958726,57.4259278 C151.125328,57.7196452 151.208627,58.0972763 151.208627,58.5588323 C151.208627,59.167247 151.125328,59.7966321 150.958726,60.4470065 C150.792125,61.0973808 150.708825,61.7162762 150.708825,62.3037111 C150.708825,62.5554689 150.719238,62.8701614 150.740063,63.2477981 C150.760888,63.6254349 150.7713,63.9925762 150.7713,64.3492331 C150.7713,65.0835267 150.547433,65.8282991 150.099692,66.5835725 C149.65195,67.3388459 148.865811,68.1255773 147.741251,68.9437902 C147.387223,69.195548 146.949901,69.4210777 146.429271,69.620386 C145.908642,69.8196942 145.408845,70.0662034 144.929866,70.3599208 C144.430061,70.6746181 143.899027,70.9893107 143.336747,71.3040079 C142.774467,71.6187052 142.326732,71.7760515 141.993529,71.7760515 C141.681152,71.7760515 141.358366,71.7340925 141.025163,71.6501732 C140.69196,71.5662539 140.317112,71.5242949 139.900609,71.5242949 C139.234203,71.5242949 138.583426,71.5452744 137.948258,71.587234 C137.313089,71.6291937 136.662312,71.6501732 135.995906,71.6501732 C135.662703,71.6501732 135.293062,71.6449283 134.886971,71.6344384 C134.48088,71.6239485 134.069588,71.602969 133.653085,71.5714993 C133.236581,71.5400295 132.82529,71.5033154 132.419199,71.4613558 C132.013108,71.4193961 131.643466,71.3669474 131.310263,71.3040079 C131.060361,71.2830281 130.774019,71.2568037 130.451229,71.225334 C130.128438,71.1938643 129.810859,71.162395 129.498481,71.1309253 C129.186104,71.0994556 128.910174,71.0679863 128.670684,71.0365166 C128.431195,71.0050469 128.269802,70.9683327 128.186501,70.9263731 C128.040725,70.8634336 127.905363,70.7480464 127.780412,70.5802078 C127.655461,70.4123693 127.525306,70.2183089 127.389942,69.9980208 C127.254578,69.7777327 127.108804,69.5574479 126.952615,69.3371598 C126.796426,69.1168717 126.603796,68.9123216 126.374719,68.7235032 C126.124817,68.5346849 125.843681,68.403563 125.531304,68.3301336 C125.218926,68.2567042 124.969027,68.1360721 124.781601,67.9682336 C124.531699,67.6325565 124.245357,67.2654152 123.922566,66.8667986 C123.599776,66.4681821 123.292609,66.1010408 123.001056,65.7653637 C122.667853,65.2408682 122.407543,64.6954012 122.220116,64.1289461 C122.032689,63.562491 121.782791,63.1009419 121.470413,62.744285 C121.345462,62.6184061 121.173657,62.497774 120.954992,62.382385 C120.736328,62.266996 120.502048,62.141119 120.252146,62.0047501 C120.002244,61.8683813 119.757551,61.7215248 119.518062,61.5641762 C119.278572,61.4068275 119.07553,61.2232569 118.908928,61.0134587 C118.825627,60.9505193 118.705884,60.7826832 118.549696,60.5099456 C118.393507,60.237208 118.23732,59.9539847 118.081131,59.6602672 C117.924942,59.3665498 117.789581,59.1095509 117.675042,58.8892628 C117.560504,58.6689747 117.503235,58.5798118 117.503235,58.6217714 C117.503235,58.4958925 117.550091,58.3333014 117.643805,58.1339931 C117.737518,57.9346848 117.846849,57.7301347 117.9718,57.5203365 C118.096751,57.3105383 118.206081,57.1007433 118.299795,56.8909451 C118.393508,56.6811469 118.440364,56.5028211 118.440364,56.3559624 C118.440364,55.9993055 118.388302,55.6793681 118.284176,55.3961406 C118.18005,55.112913 118.107163,54.7929756 118.065512,54.4363187 C118.065512,53.7230049 118.09675,52.7946619 118.159225,51.6512618 C118.221701,50.5078617 118.320619,49.2858057 118.455983,47.9850569 C118.591346,46.6843082 118.757945,45.3783342 118.955785,44.0670955 C119.153624,42.7558569 119.387904,41.5652701 119.658631,40.4952994 C119.887708,39.6561067 120.148019,38.7959471 120.439572,37.9147947 C120.731124,37.0336424 120.876898,36.204952 120.876898,35.4286987 C120.876898,35.1559611 120.856073,34.8832275 120.814423,34.6104899 C120.772773,34.3377523 120.751948,34.0650187 120.751948,33.7922811 C120.751948,33.225826 120.918547,32.7852565 121.25175,32.4705592 C121.584953,32.1558619 121.991038,31.8778835 122.470017,31.6366156 C122.948996,31.3953477 123.459205,31.1593283 124.00066,30.9285503 C124.542115,30.6977723 125.021087,30.37259 125.437591,29.9529936 C125.541717,29.8271147 125.625016,29.6487889 125.687492,29.418011 C125.749967,29.187233 125.802029,28.9564584 125.84368,28.7256804 C125.88533,28.4949024 125.92698,28.2693728 125.96863,28.0490847 C126.010281,27.8287966 126.083168,27.6662054 126.187294,27.5613064 C126.249769,27.4773871 126.338275,27.4249383 126.452813,27.4039585 C126.567352,27.3829787 126.702714,27.3619992 126.858902,27.3410194 C127.015091,27.3200395 127.192103,27.2833254 127.389942,27.2308759 C127.587781,27.1784263 127.790824,27.0892634 127.999076,26.9633845 C128.207327,26.8375056 128.36872,26.7063837 128.483259,26.5700149 C128.597797,26.4336461 128.707128,26.313014 128.811254,26.2081149 C128.91538,26.1032158 129.040329,26.0192978 129.186105,25.9563583 C129.331881,25.8934189 129.529718,25.8724394 129.77962,25.8934192 C130.008697,25.8934192 130.242977,25.9039089 130.482466,25.9248887 C130.721956,25.9458686 130.935411,25.9563583 131.122838,25.9563583 C131.435215,25.9563583 131.763207,25.9458686 132.106823,25.9248887 C132.450438,25.9039089 132.799255,25.8934192 133.153283,25.8934192 C133.736388,25.8934192 134.21536,25.9563577 134.590213,26.0822366 C134.965067,26.2081155 135.298265,26.3497271 135.589817,26.5070758 C135.88137,26.6644244 136.162506,26.8270156 136.433233,26.9948541 C136.70396,27.1626926 137.047571,27.2885697 137.464074,27.3724889 C138.026354,27.477388 138.593832,27.5350817 139.166525,27.5455716 C139.739217,27.5560615 140.296283,27.5665512 140.837737,27.5770411 C141.379192,27.587531 141.915433,27.6294901 142.446475,27.7029194 C142.977517,27.7763488 143.492933,27.9179604 143.992737,28.1277586 C144.28429,28.2536375 144.591456,28.4791672 144.914247,28.8043543 C145.237037,29.1295415 145.585854,29.4389892 145.960707,29.7327066 C146.314735,30.0054443 146.694789,30.2414637 147.10088,30.440772 C147.506971,30.6400802 147.793313,30.8551201 147.959915,31.0858981 C148.084866,31.3166761 148.194196,31.6628379 148.28791,32.1243939 C148.381623,32.5859499 148.522191,32.9740707 148.709618,33.288768 C148.897044,33.6244451 149.131324,33.9758518 149.412464,34.3429986 C149.693604,34.7101454 149.969534,35.0982662 150.240261,35.5073726 C150.510988,35.9164791 150.740062,36.3570487 150.927489,36.8290946 C151.114915,37.3011405 151.229452,37.7994037 151.271102,38.3238991 Z M199.632436,44.8381 C199.632436,45.2786762 199.559549,45.6195931 199.413772,45.860861 C199.267996,46.1021289 199.143047,46.4220663 199.038921,46.8206829 C198.830669,47.7437949 198.648452,48.7875251 198.492263,49.951905 C198.336074,51.1162849 198.117413,52.2386883 197.836273,53.319149 C197.555133,54.3996096 197.15946,55.354177 196.649243,56.1828798 C196.139026,57.0115826 195.425774,57.5413151 194.509466,57.772093 C194.280389,57.8350325 193.994047,57.8769915 193.650432,57.8979713 C193.306816,57.9189511 192.931968,57.9399306 192.525877,57.9609105 C192.119786,57.9818903 191.698083,58.0081147 191.260754,58.0395844 C190.823425,58.0710541 190.396515,58.118258 189.980011,58.1811975 C189.376081,58.2860965 188.829428,58.4329531 188.340036,58.6217714 C187.850644,58.8105898 187.408116,58.9364668 187.012437,58.9994063 C186.679234,59.0413659 186.283562,59.0675903 185.825408,59.0780802 C185.367254,59.0885701 184.935138,59.0990598 184.529047,59.1095498 C184.122956,59.1200397 183.774139,59.1515089 183.482586,59.2039585 C183.191034,59.256408 183.04526,59.3455709 183.04526,59.4714498 C183.04526,60.4155416 183.128559,61.4068231 183.295161,62.4453241 C183.461762,63.4838251 183.638773,64.5223105 183.8262,65.5608115 C184.013627,66.5993125 184.190638,67.6168184 184.35724,68.6133597 C184.523841,69.6099011 184.607141,70.5487339 184.607141,71.4298862 C184.607141,71.6606642 184.591522,71.922908 184.560284,72.2166254 C184.529046,72.5103429 184.466572,72.8145457 184.372859,73.129243 C184.279145,73.4439402 184.143784,73.7586328 183.966769,74.07333 C183.789755,74.3880273 183.555476,74.6712506 183.263923,74.9230084 C182.993196,75.1118268 182.618348,75.2219692 182.139369,75.2534389 C181.660389,75.2849086 181.181417,75.43701 180.702438,75.7097477 C180.494186,75.8146467 180.332794,75.9405238 180.218255,76.0873825 C180.103717,76.2342412 179.978767,76.3758529 179.843404,76.5122217 C179.70804,76.6485905 179.546647,76.7639778 179.359221,76.8583869 C179.171794,76.9527961 178.890658,77 178.515805,77 C178.203427,77 177.932704,76.958041 177.703627,76.8741217 C177.47455,76.7902025 177.255888,76.6905498 177.047637,76.5751608 C176.839385,76.4597718 176.636342,76.3391397 176.438503,76.2132608 C176.240664,76.0873819 176.016796,75.9824843 175.766894,75.8985651 C175.225439,75.7097467 174.71523,75.5576453 174.236251,75.4422563 C173.757272,75.3268673 173.330362,75.169521 172.955508,74.9702128 C172.580655,74.7709045 172.283901,74.4876812 172.065236,74.1205344 C171.846572,73.7533876 171.737241,73.2026756 171.737241,72.468382 C171.737241,72.0907453 171.778891,71.681645 171.862192,71.2410688 C171.945492,70.8004926 171.987142,70.3704128 171.987142,69.9508164 C171.987142,68.9437852 171.924668,67.9944627 171.799717,67.1028204 C171.674765,66.2111781 171.612291,65.4926302 171.612291,64.9471549 C171.612291,64.6953971 171.679972,64.3964392 171.815335,64.0502722 C171.950699,63.7041052 172.101679,63.3526985 172.268281,62.9960416 C172.434882,62.6393847 172.585863,62.3037126 172.721226,61.9890154 C172.85659,61.6743181 172.934683,61.4120743 172.955508,61.2022761 C172.997159,60.9295385 173.028396,60.6777845 173.049221,60.4470065 C173.070046,60.2162285 173.080459,59.9749642 173.080459,59.7232064 C173.080459,59.1567513 173.044015,58.5903047 172.971127,58.0238496 C172.898239,57.4573945 172.81494,56.9014377 172.721226,56.3559624 C172.627513,55.8104872 172.544213,55.2755098 172.471325,54.7510144 C172.398437,54.2265189 172.361994,53.7125211 172.361994,53.2090055 C172.361994,51.7823779 172.398437,50.298078 172.471325,48.7560614 C172.544213,47.2140448 172.617101,45.6510718 172.689989,44.0670955 C172.762877,42.4831193 172.835764,40.8781873 172.908652,39.2522514 C172.98154,37.6263155 173.017984,36.0056489 173.017984,34.3902029 C173.017984,34.033546 172.991953,33.7503227 172.93989,33.5405246 C172.887827,33.3307264 172.747259,33.2258289 172.518182,33.2258289 C172.330755,33.2258289 172.1173,33.2572981 171.877811,33.3202376 C171.638321,33.383177 171.37801,33.4461155 171.09687,33.509055 C170.81573,33.5719944 170.539801,33.6349329 170.269073,33.6978724 C169.998346,33.7608119 169.738035,33.7922811 169.488133,33.7922811 C169.279881,33.7922811 169.134107,33.7713016 169.050806,33.729342 C168.967505,33.7083622 168.83735,33.6454236 168.660336,33.5405246 C168.483322,33.4356255 168.30631,33.3097484 168.129296,33.1628897 C167.952282,33.016031 167.796096,32.8534398 167.660732,32.6751114 C167.525368,32.4967829 167.457687,32.3132123 167.457687,32.1243939 C167.457687,31.8726361 167.535781,31.5894128 167.691969,31.2747156 C167.848158,30.9600183 167.957489,30.6453257 168.019965,30.3306285 C168.144916,29.8480927 168.191772,29.4599718 168.160534,29.1662544 C168.129296,28.8725369 168.207389,28.5893137 168.394816,28.316576 C168.561417,28.1487375 168.795697,28.0071258 169.097662,27.8917368 C169.399628,27.7763478 169.717207,27.6819401 170.05041,27.6085107 C170.383613,27.5350813 170.711604,27.4826326 171.034395,27.4511629 C171.357185,27.4196931 171.61229,27.3934688 171.799717,27.3724889 C173.007577,27.24661 174.392431,27.1836715 175.95432,27.1836715 C176.953929,27.1836715 177.979554,27.2098959 179.031226,27.2623454 C180.082897,27.314795 181.113728,27.3882232 182.12375,27.4826324 C183.133771,27.5770416 184.107334,27.6976738 185.044467,27.8445325 C185.981601,27.9913912 186.83542,28.1487375 187.605952,28.316576 C188.397309,28.5053944 189.147005,28.7991074 189.855061,29.197724 C190.563117,29.5963405 191.229513,30.0631345 191.854268,30.5981198 C192.479024,31.1331052 193.072533,31.7100415 193.634813,32.3289461 C194.197093,32.9478508 194.748952,33.5510115 195.290407,34.1384464 C195.561134,34.4531436 195.821445,34.7468567 196.071347,35.0195943 C196.321249,35.292332 196.545117,35.5493309 196.742956,35.7905988 C196.940795,36.0318667 197.096982,36.2783758 197.21152,36.5301337 C197.326059,36.7818915 197.383327,37.054625 197.383327,37.3483425 L197.383327,38.0721426 C197.383327,38.4078196 197.424977,38.6805532 197.508278,38.8903514 C197.591578,39.1001495 197.68529,39.2837202 197.789416,39.4410688 C197.893542,39.5984175 198.008079,39.7557637 198.13303,39.9131124 C198.257981,40.070461 198.372518,40.2645214 198.476644,40.4952994 C198.539119,40.7050976 198.559944,40.9778311 198.539119,41.3135082 C198.518294,41.6491853 198.559944,41.9638778 198.66407,42.2575953 C198.830671,42.8450302 199.033714,43.3223139 199.273203,43.6894607 C199.512693,44.0566075 199.632436,44.4394835 199.632436,44.8381 Z M188.824219,43.8625433 C188.824219,43.673725 188.746126,43.3852568 188.589937,42.9971302 C188.433748,42.6090035 188.355655,42.1422096 188.355655,41.5967343 L188.355655,40.306482 C188.355655,39.2784709 188.215087,38.344883 187.933947,37.5056903 C187.652807,36.6664976 187.288372,35.9479496 186.84063,35.3500248 C186.392889,34.7521 185.893092,34.2905509 185.341225,33.9653637 C184.789357,33.6401766 184.242704,33.4775854 183.70125,33.4775854 C183.368047,33.4775854 183.050467,33.4985649 182.748502,33.5405246 C182.446537,33.5824842 182.09772,33.6034637 181.702042,33.6034637 C181.45214,33.6034637 181.17621,33.5824842 180.874245,33.5405246 C180.57228,33.4985649 180.254701,33.4146469 179.921498,33.288768 C179.942323,33.519546 179.968354,33.9391361 179.999592,34.5475508 C180.030829,35.1559655 180.067273,35.8902481 180.108923,36.7504206 C180.150574,37.6105932 180.202636,38.5494259 180.265111,39.5669471 C180.327587,40.5844683 180.390062,41.6072191 180.452537,42.6352301 C180.515013,43.6632412 180.577487,44.6597676 180.639963,45.6248392 C180.702438,46.5899109 180.764913,47.4395807 180.827389,48.1738744 C180.889864,48.908168 180.952339,49.500839 181.014814,49.951905 C181.07729,50.4029711 181.139765,50.6285008 181.20224,50.6285008 C181.452142,50.6285008 181.686422,50.5917866 181.905087,50.5183573 C182.123751,50.4449279 182.332,50.355765 182.529839,50.2508659 C182.727678,50.1459669 182.930721,50.0410693 183.138973,49.9361702 C183.347224,49.8312712 183.576298,49.7368634 183.8262,49.6529441 C184.076102,49.5690249 184.357238,49.5060863 184.669616,49.4641267 C184.981994,49.4221671 185.294367,49.3697183 185.606744,49.3067789 C185.919122,49.2438394 186.215877,49.1599214 186.497017,49.0550223 C186.778157,48.9501232 187.022849,48.8032667 187.231101,48.6144483 C187.481003,48.3626905 187.621571,47.9850595 187.652809,47.4815438 C187.684046,46.9780282 187.793377,46.3696226 187.980804,45.6563088 C188.08493,45.2996519 188.241116,44.9692247 188.449368,44.6650174 C188.65762,44.36081 188.782569,44.0933213 188.824219,43.8625433 Z M215.847509,38.8903514 C215.805859,39.2889679 215.732972,39.6561092 215.628846,39.9917863 C215.52472,40.3274634 215.472658,40.7365637 215.472658,41.2190995 C215.472658,41.8275142 215.493483,42.4464096 215.535133,43.0758041 C215.576784,43.7051986 215.597608,44.2926247 215.597608,44.8381 C215.597608,45.4045551 215.54034,45.8661041 215.425802,46.2227611 C215.311263,46.579418 215.165489,46.8888656 214.988475,47.1511134 C214.811461,47.4133611 214.618831,47.6598702 214.410579,47.8906482 C214.202327,48.1214262 214.009697,48.3941598 213.832683,48.708857 C213.655669,49.0235543 213.509895,49.4221649 213.395356,49.9047007 C213.280818,50.3872365 213.223549,50.9956421 213.223549,51.7299357 C213.223549,53.2195028 213.265199,54.7562514 213.3485,56.3402276 C213.431801,57.9242039 213.47345,59.607809 213.47345,61.3910935 C213.47345,61.9785284 213.447419,62.5344853 213.395356,63.0589807 C213.343293,63.5834762 213.275612,64.1027189 213.192312,64.6167244 C213.109011,65.1307299 213.010093,65.6447278 212.895554,66.1587333 C212.781016,66.6727389 212.661273,67.2129611 212.536322,67.7794161 C212.390545,68.4297905 212.255184,69.001482 212.130233,69.4945077 C212.005282,69.9875334 211.802239,70.4018786 211.521099,70.7375557 C211.239959,71.0732328 210.833874,71.3302317 210.302832,71.5085601 C209.77179,71.6868886 209.037713,71.7760515 208.10058,71.7760515 C207.413349,71.7760515 206.913552,71.6239501 206.601174,71.3197427 C206.288796,71.0155354 206.054516,70.6169248 205.898328,70.1238991 C205.742139,69.6308733 205.611983,69.0749165 205.507857,68.4560119 C205.403731,67.8371073 205.22672,67.2024773 204.976818,66.5521029 C204.810216,66.1744662 204.633205,65.8755083 204.445778,65.6552202 C204.258352,65.4349321 204.086546,65.2041576 203.930357,64.9628897 C203.774169,64.7216218 203.644013,64.417419 203.539887,64.0502722 C203.435761,63.6831253 203.383699,63.1638826 203.383699,62.4925285 C203.383699,61.9470532 203.40973,61.3596271 203.461793,60.7302326 C203.513856,60.100838 203.571125,59.4557183 203.6336,58.7948541 C203.696076,58.1339898 203.753344,57.4626457 203.805407,56.7808016 C203.85747,56.0989575 203.883501,55.4223686 203.883501,54.7510144 C203.883501,54.1635795 203.841851,53.6495817 203.758551,53.2090055 C203.67525,52.7684293 203.586744,52.3488392 203.493031,51.9502227 C203.399317,51.5516062 203.310812,51.137261 203.227511,50.7071747 C203.14421,50.2770884 203.102561,49.7578457 203.102561,49.149431 C203.102561,48.5619961 203.139004,48.0899573 203.211892,47.7333004 C203.28478,47.3766435 203.36808,47.0619509 203.461793,46.7892133 C203.555506,46.5164757 203.638806,46.2542319 203.711694,46.0024741 C203.784582,45.7507163 203.821026,45.4465135 203.821026,45.0898566 C203.821026,44.7122198 203.711695,44.3503234 203.493031,44.0041564 C203.274366,43.6579894 203.03488,43.3275622 202.774566,43.012865 C202.514251,42.6981677 202.279971,42.38872 202.071719,42.0845127 C201.863467,41.7803053 201.780168,41.4918371 201.821818,41.2190995 C201.821818,41.051261 201.853055,40.8519557 201.915531,40.6211777 C201.978007,40.3903997 202.045687,40.1438905 202.118576,39.8816428 C202.191464,39.6193951 202.259144,39.3571513 202.32162,39.0949036 C202.384096,38.8326558 202.415333,38.5756569 202.415333,38.3238991 C202.415333,37.4637266 202.306002,36.6350362 202.087338,35.8378031 C201.868673,35.04057 201.759343,34.2748182 201.759343,33.5405246 L201.759343,33.2258289 C201.759343,33.1209298 201.780168,33.0160323 201.821818,32.9111332 C201.863468,32.6593753 201.99883,32.3289482 202.227907,31.9198417 C202.456984,31.5107353 202.717295,31.1121247 203.008848,30.7239981 C203.3004,30.3358715 203.591948,30.0001994 203.883501,29.7169719 C204.175054,29.4337443 204.393715,29.2921327 204.539491,29.2921327 C204.664442,29.2921327 204.784185,29.3026224 204.898724,29.3236022 C205.013262,29.3445821 205.122593,29.3550718 205.226719,29.3550718 C205.643222,29.3550718 206.179463,29.3131128 206.835456,29.2291935 C207.491449,29.1452743 208.173464,29.1033153 208.88152,29.1033153 C209.40215,29.1033153 209.922772,29.1190499 210.443401,29.1505196 C210.964031,29.1819893 211.448209,29.2291932 211.895951,29.2921327 C212.343692,29.3550721 212.739365,29.4389901 213.08298,29.5438892 C213.426596,29.6487883 213.692113,29.7851551 213.879539,29.9529936 C213.942015,29.9949533 214.061758,30.1942585 214.238772,30.5509155 C214.415786,30.9075724 214.608416,31.300938 214.816668,31.7310243 C215.02492,32.1611106 215.207137,32.5702109 215.363326,32.9583375 C215.519515,33.3464641 215.618433,33.6034631 215.660084,33.729342 C215.722559,34.0859989 215.779828,34.5895069 215.831891,35.2398813 C215.883954,35.8902557 215.909985,36.5720895 215.909985,37.2854033 C215.909985,37.5371611 215.899572,37.8046498 215.878747,38.0878773 C215.857922,38.3711049 215.847509,38.6385935 215.847509,38.8903514 Z M252.398274,38.3238991 L252.398274,38.5127165 C252.398274,38.8274138 252.356624,39.325677 252.273323,40.0075211 C252.190022,40.6893652 252.054661,41.413158 251.867234,42.1789214 C251.679807,42.9446847 251.450734,43.6842122 251.180006,44.397526 C250.909279,45.1108398 250.586494,45.6667967 250.21164,46.0654132 C249.857612,46.4220701 249.383846,46.6633344 248.790329,46.7892133 C248.196811,46.9150922 247.629333,47.0724385 247.087878,47.2612568 C246.650549,47.4290954 246.187196,47.6493802 245.697804,47.9221178 C245.208412,48.1948554 244.719028,48.4570992 244.229636,48.708857 C243.740244,48.9606149 243.25086,49.1808996 242.761468,49.369718 C242.272076,49.5585364 241.79831,49.6529441 241.340156,49.6529441 C241.027778,49.6529441 240.678962,49.574271 240.293696,49.4169224 C239.90843,49.2595737 239.549201,49.0025748 239.215998,48.6459179 C238.882795,48.289261 238.606866,47.8277119 238.388201,47.2612568 C238.169537,46.6948018 238.060206,45.9919884 238.060206,45.1527957 C238.060206,44.6283002 238.081031,44.0828332 238.122681,43.5163781 C238.164332,42.949923 238.185157,42.3939662 238.185157,41.8484909 C238.185157,41.261056 238.138301,40.5949568 238.044587,39.8501732 C237.950874,39.1053897 237.820718,38.4078212 237.654117,37.7574469 C237.487516,37.1070725 237.300092,36.5563605 237.09184,36.1052945 C236.883588,35.6542284 236.654514,35.4286987 236.404612,35.4286987 C236.217186,35.4286987 236.003731,35.4706577 235.764241,35.554577 C235.524751,35.6384963 235.248822,35.6804553 234.936444,35.6804553 C234.561591,35.6804553 234.275249,35.6384963 234.07741,35.554577 C233.87957,35.4706577 233.718178,35.3814948 233.593226,35.2870857 C233.468275,35.1926765 233.353739,35.1035136 233.249613,35.0195943 C233.145487,34.935675 232.999713,34.893716 232.812286,34.893716 C232.312482,34.893716 231.932428,35.0038584 231.672113,35.2241465 C231.411798,35.4444346 231.219168,35.7433925 231.094217,36.1210292 C230.969266,36.498666 230.870348,36.9287458 230.797459,37.4112816 C230.724571,37.8938174 230.615241,38.3868357 230.469464,38.8903514 C230.365339,39.2470083 230.177915,39.6456188 229.907187,40.086195 C229.63646,40.5267712 229.438624,40.9883202 229.313673,41.4708561 C229.147071,41.9533919 229.011709,42.4831243 228.907583,43.0600693 C228.803458,43.6370143 228.657683,44.2296853 228.470257,44.8381 C228.303655,45.3625954 228.111025,46.0234498 227.892361,46.8206829 C227.673696,47.617916 227.460241,48.4570961 227.25199,49.3382484 C227.043738,50.2194008 226.866726,51.1005399 226.72095,51.9816923 C226.575174,52.8628446 226.502287,53.6390862 226.502287,54.3104404 C226.502287,55.275512 226.81466,56.2143448 227.439415,57.1269669 C228.064171,58.039589 228.876341,58.8000959 229.87595,59.4085107 C230.167502,59.5763492 230.578793,59.7179609 231.109836,59.8333499 C231.640878,59.9487388 232.145881,60.1218198 232.62486,60.3525977 C233.083014,60.5833757 233.478687,60.8089054 233.81189,61.0291935 C234.145093,61.2494816 234.499116,61.4487869 234.873969,61.6271153 C235.248822,61.8054438 235.691351,61.9523003 236.201568,62.0676893 C236.711785,62.1830783 237.372974,62.2407719 238.185157,62.2407719 C238.934863,62.2407719 239.700177,62.1620988 240.481122,62.0047501 C241.262066,61.8474015 242.006555,61.6428514 242.714611,61.3910935 C243.422668,61.1393357 244.068239,60.8561124 244.651344,60.5414152 C245.234449,60.2267179 245.703009,59.9120253 246.057037,59.5973281 C246.181988,59.492429 246.38503,59.2668993 246.66617,58.9207323 C246.94731,58.5745653 247.275302,58.2126689 247.650155,57.8350322 C248.025009,57.4573955 248.441506,57.1164785 248.89966,56.8122712 C249.357814,56.5080638 249.847199,56.3559624 250.367828,56.3559624 C250.471954,56.3559624 250.633347,56.3821868 250.852011,56.4346363 C251.070676,56.4870859 251.289337,56.5919834 251.508001,56.749332 C251.726666,56.9066807 251.919296,57.1322103 252.085897,57.4259278 C252.252499,57.7196452 252.335798,58.0972763 252.335798,58.5588323 C252.335798,59.167247 252.252499,59.7966321 252.085897,60.4470065 C251.919296,61.0973808 251.835996,61.7162762 251.835996,62.3037111 C251.835996,62.5554689 251.846409,62.8701614 251.867234,63.2477981 C251.888059,63.6254349 251.898472,63.9925762 251.898472,64.3492331 C251.898472,65.0835267 251.674604,65.8282991 251.226863,66.5835725 C250.779121,67.3388459 249.992982,68.1255773 248.868423,68.9437902 C248.514394,69.195548 248.077072,69.4210777 247.556443,69.620386 C247.035813,69.8196942 246.536016,70.0662034 246.057037,70.3599208 C245.557232,70.6746181 245.026198,70.9893107 244.463918,71.3040079 C243.901638,71.6187052 243.453903,71.7760515 243.1207,71.7760515 C242.808323,71.7760515 242.485537,71.7340925 242.152334,71.6501732 C241.819131,71.5662539 241.444284,71.5242949 241.02778,71.5242949 C240.361374,71.5242949 239.710597,71.5452744 239.075429,71.587234 C238.440261,71.6291937 237.789483,71.6501732 237.123077,71.6501732 C236.789875,71.6501732 236.420233,71.6449283 236.014142,71.6344384 C235.608051,71.6239485 235.19676,71.602969 234.780256,71.5714993 C234.363752,71.5400295 233.952461,71.5033154 233.54637,71.4613558 C233.140279,71.4193961 232.770637,71.3669474 232.437435,71.3040079 C232.187532,71.2830281 231.90119,71.2568037 231.5784,71.225334 C231.25561,71.1938643 230.93803,71.162395 230.625653,71.1309253 C230.313275,71.0994556 230.037345,71.0679863 229.797856,71.0365166 C229.558366,71.0050469 229.396973,70.9683327 229.313673,70.9263731 C229.167896,70.8634336 229.032535,70.7480464 228.907583,70.5802078 C228.782632,70.4123693 228.652477,70.2183089 228.517113,69.9980208 C228.38175,69.7777327 228.235975,69.5574479 228.079787,69.3371598 C227.923598,69.1168717 227.730968,68.9123216 227.501891,68.7235032 C227.251988,68.5346849 226.970853,68.403563 226.658475,68.3301336 C226.346097,68.2567042 226.096199,68.1360721 225.908772,67.9682336 C225.65887,67.6325565 225.372528,67.2654152 225.049737,66.8667986 C224.726947,66.4681821 224.41978,66.1010408 224.128228,65.7653637 C223.795025,65.2408682 223.534714,64.6954012 223.347287,64.1289461 C223.15986,63.562491 222.909962,63.1009419 222.597584,62.744285 C222.472633,62.6184061 222.300828,62.497774 222.082164,62.382385 C221.863499,62.266996 221.629219,62.141119 221.379317,62.0047501 C221.129415,61.8683813 220.884723,61.7215248 220.645233,61.5641762 C220.405743,61.4068275 220.202701,61.2232569 220.036099,61.0134587 C219.952799,60.9505193 219.833056,60.7826832 219.676867,60.5099456 C219.520678,60.237208 219.364491,59.9539847 219.208302,59.6602672 C219.052114,59.3665498 218.916752,59.1095509 218.802213,58.8892628 C218.687675,58.6689747 218.630407,58.5798118 218.630407,58.6217714 C218.630407,58.4958925 218.677262,58.3333014 218.770976,58.1339931 C218.864689,57.9346848 218.97402,57.7301347 219.098971,57.5203365 C219.223922,57.3105383 219.333253,57.1007433 219.426966,56.8909451 C219.520679,56.6811469 219.567535,56.5028211 219.567535,56.3559624 C219.567535,55.9993055 219.515473,55.6793681 219.411347,55.3961406 C219.307221,55.112913 219.234334,54.7929756 219.192684,54.4363187 C219.192684,53.7230049 219.223921,52.7946619 219.286397,51.6512618 C219.348872,50.5078617 219.44779,49.2858057 219.583154,47.9850569 C219.718518,46.6843082 219.885117,45.3783342 220.082956,44.0670955 C220.280795,42.7558569 220.515075,41.5652701 220.785802,40.4952994 C221.014879,39.6561067 221.27519,38.7959471 221.566743,37.9147947 C221.858295,37.0336424 222.004069,36.204952 222.004069,35.4286987 C222.004069,35.1559611 221.983245,34.8832275 221.941594,34.6104899 C221.899944,34.3377523 221.879119,34.0650187 221.879119,33.7922811 C221.879119,33.225826 222.045718,32.7852565 222.378921,32.4705592 C222.712124,32.1558619 223.118209,31.8778835 223.597188,31.6366156 C224.076167,31.3953477 224.586377,31.1593283 225.127831,30.9285503 C225.669286,30.6977723 226.148258,30.37259 226.564762,29.9529936 C226.668888,29.8271147 226.752187,29.6487889 226.814663,29.418011 C226.877138,29.187233 226.929201,28.9564584 226.970851,28.7256804 C227.012501,28.4949024 227.054151,28.2693728 227.095802,28.0490847 C227.137452,27.8287966 227.210339,27.6662054 227.314465,27.5613064 C227.37694,27.4773871 227.465446,27.4249383 227.579985,27.4039585 C227.694523,27.3829787 227.829885,27.3619992 227.986074,27.3410194 C228.142263,27.3200395 228.319274,27.2833254 228.517113,27.2308759 C228.714952,27.1784263 228.917995,27.0892634 229.126247,26.9633845 C229.334499,26.8375056 229.495891,26.7063837 229.61043,26.5700149 C229.724968,26.4336461 229.834299,26.313014 229.938425,26.2081149 C230.042551,26.1032158 230.1675,26.0192978 230.313276,25.9563583 C230.459053,25.8934189 230.656889,25.8724394 230.906791,25.8934192 C231.135868,25.8934192 231.370148,25.9039089 231.609638,25.9248887 C231.849127,25.9458686 232.062582,25.9563583 232.250009,25.9563583 C232.562387,25.9563583 232.890378,25.9458686 233.233994,25.9248887 C233.577609,25.9039089 233.926426,25.8934192 234.280454,25.8934192 C234.863559,25.8934192 235.342531,25.9563577 235.717385,26.0822366 C236.092238,26.2081155 236.425436,26.3497271 236.716988,26.5070758 C237.008541,26.6644244 237.289677,26.8270156 237.560404,26.9948541 C237.831132,27.1626926 238.174742,27.2885697 238.591246,27.3724889 C239.153526,27.477388 239.721003,27.5350817 240.293696,27.5455716 C240.866388,27.5560615 241.423454,27.5665512 241.964909,27.5770411 C242.506363,27.587531 243.042604,27.6294901 243.573646,27.7029194 C244.104688,27.7763488 244.620104,27.9179604 245.119908,28.1277586 C245.411461,28.2536375 245.718628,28.4791672 246.041418,28.8043543 C246.364208,29.1295415 246.713025,29.4389892 247.087878,29.7327066 C247.441906,30.0054443 247.82196,30.2414637 248.228051,30.440772 C248.634142,30.6400802 248.920484,30.8551201 249.087086,31.0858981 C249.212037,31.3166761 249.321368,31.6628379 249.415081,32.1243939 C249.508794,32.5859499 249.649362,32.9740707 249.836789,33.288768 C250.024215,33.6244451 250.258495,33.9758518 250.539635,34.3429986 C250.820775,34.7101454 251.096705,35.0982662 251.367432,35.5073726 C251.63816,35.9164791 251.867233,36.3570487 252.05466,36.8290946 C252.242086,37.3011405 252.356623,37.7994037 252.398274,38.3238991 Z M288.699137,38.3238991 L288.699137,38.5127165 C288.699137,38.8274138 288.657487,39.325677 288.574186,40.0075211 C288.490886,40.6893652 288.355524,41.413158 288.168097,42.1789214 C287.980671,42.9446847 287.751597,43.6842122 287.48087,44.397526 C287.210142,45.1108398 286.887357,45.6667967 286.512503,46.0654132 C286.158475,46.4220701 285.684709,46.6633344 285.091192,46.7892133 C284.497674,46.9150922 283.930196,47.0724385 283.388741,47.2612568 C282.951413,47.4290954 282.488059,47.6493802 281.998667,47.9221178 C281.509276,48.1948554 281.019891,48.4570992 280.530499,48.708857 C280.041107,48.9606149 279.551723,49.1808996 279.062331,49.369718 C278.572939,49.5585364 278.099173,49.6529441 277.641019,49.6529441 C277.328642,49.6529441 276.979825,49.574271 276.594559,49.4169224 C276.209293,49.2595737 275.850064,49.0025748 275.516861,48.6459179 C275.183658,48.289261 274.907729,47.8277119 274.689064,47.2612568 C274.4704,46.6948018 274.361069,45.9919884 274.361069,45.1527957 C274.361069,44.6283002 274.381894,44.0828332 274.423545,43.5163781 C274.465195,42.949923 274.48602,42.3939662 274.48602,41.8484909 C274.48602,41.261056 274.439164,40.5949568 274.34545,39.8501732 C274.251737,39.1053897 274.121582,38.4078212 273.95498,37.7574469 C273.788379,37.1070725 273.600955,36.5563605 273.392703,36.1052945 C273.184451,35.6542284 272.955378,35.4286987 272.705475,35.4286987 C272.518049,35.4286987 272.304594,35.4706577 272.065104,35.554577 C271.825615,35.6384963 271.549685,35.6804553 271.237307,35.6804553 C270.862454,35.6804553 270.576112,35.6384963 270.378273,35.554577 C270.180433,35.4706577 270.019041,35.3814948 269.89409,35.2870857 C269.769139,35.1926765 269.654602,35.1035136 269.550476,35.0195943 C269.44635,34.935675 269.300576,34.893716 269.113149,34.893716 C268.613345,34.893716 268.233291,35.0038584 267.972976,35.2241465 C267.712661,35.4444346 267.520031,35.7433925 267.39508,36.1210292 C267.270129,36.498666 267.171211,36.9287458 267.098323,37.4112816 C267.025435,37.8938174 266.916104,38.3868357 266.770328,38.8903514 C266.666202,39.2470083 266.478778,39.6456188 266.20805,40.086195 C265.937323,40.5267712 265.739487,40.9883202 265.614536,41.4708561 C265.447934,41.9533919 265.312573,42.4831243 265.208447,43.0600693 C265.104321,43.6370143 264.958547,44.2296853 264.77112,44.8381 C264.604519,45.3625954 264.411888,46.0234498 264.193224,46.8206829 C263.97456,47.617916 263.761105,48.4570961 263.552853,49.3382484 C263.344601,50.2194008 263.16759,51.1005399 263.021813,51.9816923 C262.876037,52.8628446 262.80315,53.6390862 262.80315,54.3104404 C262.80315,55.275512 263.115523,56.2143448 263.740279,57.1269669 C264.365034,58.039589 265.177204,58.8000959 266.176813,59.4085107 C266.468365,59.5763492 266.879657,59.7179609 267.410699,59.8333499 C267.941741,59.9487388 268.446744,60.1218198 268.925723,60.3525977 C269.383877,60.5833757 269.77955,60.8089054 270.112753,61.0291935 C270.445956,61.2494816 270.799979,61.4487869 271.174832,61.6271153 C271.549685,61.8054438 271.992214,61.9523003 272.502431,62.0676893 C273.012648,62.1830783 273.673838,62.2407719 274.48602,62.2407719 C275.235726,62.2407719 276.00104,62.1620988 276.781985,62.0047501 C277.562929,61.8474015 278.307418,61.6428514 279.015475,61.3910935 C279.723531,61.1393357 280.369102,60.8561124 280.952207,60.5414152 C281.535312,60.2267179 282.003872,59.9120253 282.3579,59.5973281 C282.482851,59.492429 282.685894,59.2668993 282.967034,58.9207323 C283.248174,58.5745653 283.576165,58.2126689 283.951019,57.8350322 C284.325872,57.4573955 284.742369,57.1164785 285.200523,56.8122712 C285.658677,56.5080638 286.148062,56.3559624 286.668692,56.3559624 C286.772817,56.3559624 286.93421,56.3821868 287.152875,56.4346363 C287.371539,56.4870859 287.5902,56.5919834 287.808865,56.749332 C288.027529,56.9066807 288.220159,57.1322103 288.386761,57.4259278 C288.553362,57.7196452 288.636662,58.0972763 288.636662,58.5588323 C288.636662,59.167247 288.553362,59.7966321 288.386761,60.4470065 C288.220159,61.0973808 288.13686,61.7162762 288.13686,62.3037111 C288.13686,62.5554689 288.147272,62.8701614 288.168097,63.2477981 C288.188922,63.6254349 288.199335,63.9925762 288.199335,64.3492331 C288.199335,65.0835267 287.975468,65.8282991 287.527726,66.5835725 C287.079985,67.3388459 286.293846,68.1255773 285.169286,68.9437902 C284.815258,69.195548 284.377935,69.4210777 283.857306,69.620386 C283.336676,69.8196942 282.836879,70.0662034 282.3579,70.3599208 C281.858096,70.6746181 281.327061,70.9893107 280.764781,71.3040079 C280.202501,71.6187052 279.754767,71.7760515 279.421564,71.7760515 C279.109186,71.7760515 278.7864,71.7340925 278.453197,71.6501732 C278.119995,71.5662539 277.745147,71.5242949 277.328643,71.5242949 C276.662237,71.5242949 276.01146,71.5452744 275.376292,71.587234 C274.741124,71.6291937 274.090347,71.6501732 273.423941,71.6501732 C273.090738,71.6501732 272.721096,71.6449283 272.315005,71.6344384 C271.908914,71.6239485 271.497623,71.602969 271.081119,71.5714993 C270.664616,71.5400295 270.253324,71.5033154 269.847233,71.4613558 C269.441142,71.4193961 269.071501,71.3669474 268.738298,71.3040079 C268.488395,71.2830281 268.202054,71.2568037 267.879263,71.225334 C267.556473,71.1938643 267.238894,71.162395 266.926516,71.1309253 C266.614138,71.0994556 266.338208,71.0679863 266.098719,71.0365166 C265.859229,71.0050469 265.697836,70.9683327 265.614536,70.9263731 C265.468759,70.8634336 265.333398,70.7480464 265.208447,70.5802078 C265.083496,70.4123693 264.95334,70.2183089 264.817976,69.9980208 C264.682613,69.7777327 264.536839,69.5574479 264.38065,69.3371598 C264.224461,69.1168717 264.031831,68.9123216 263.802754,68.7235032 C263.552852,68.5346849 263.271716,68.403563 262.959338,68.3301336 C262.64696,68.2567042 262.397062,68.1360721 262.209635,67.9682336 C261.959733,67.6325565 261.673391,67.2654152 261.350601,66.8667986 C261.02781,66.4681821 260.720643,66.1010408 260.429091,65.7653637 C260.095888,65.2408682 259.835577,64.6954012 259.64815,64.1289461 C259.460724,63.562491 259.210825,63.1009419 258.898447,62.744285 C258.773496,62.6184061 258.601691,62.497774 258.383027,62.382385 C258.164362,62.266996 257.930082,62.141119 257.68018,62.0047501 C257.430278,61.8683813 257.185586,61.7215248 256.946096,61.5641762 C256.706607,61.4068275 256.503564,61.2232569 256.336963,61.0134587 C256.253662,60.9505193 256.133919,60.7826832 255.97773,60.5099456 C255.821541,60.237208 255.665355,59.9539847 255.509166,59.6602672 C255.352977,59.3665498 255.217615,59.1095509 255.103077,58.8892628 C254.988538,58.6689747 254.93127,58.5798118 254.93127,58.6217714 C254.93127,58.4958925 254.978126,58.3333014 255.071839,58.1339931 C255.165552,57.9346848 255.274883,57.7301347 255.399834,57.5203365 C255.524785,57.3105383 255.634116,57.1007433 255.727829,56.8909451 C255.821542,56.6811469 255.868398,56.5028211 255.868398,56.3559624 C255.868398,55.9993055 255.816336,55.6793681 255.71221,55.3961406 C255.608084,55.112913 255.535197,54.7929756 255.493547,54.4363187 C255.493547,53.7230049 255.524784,52.7946619 255.58726,51.6512618 C255.649735,50.5078617 255.748653,49.2858057 255.884017,47.9850569 C256.019381,46.6843082 256.18598,45.3783342 256.383819,44.0670955 C256.581658,42.7558569 256.815938,41.5652701 257.086665,40.4952994 C257.315743,39.6561067 257.576053,38.7959471 257.867606,37.9147947 C258.159159,37.0336424 258.304933,36.204952 258.304933,35.4286987 C258.304933,35.1559611 258.284108,34.8832275 258.242457,34.6104899 C258.200807,34.3377523 258.179982,34.0650187 258.179982,33.7922811 C258.179982,33.225826 258.346581,32.7852565 258.679784,32.4705592 C259.012987,32.1558619 259.419072,31.8778835 259.898051,31.6366156 C260.377031,31.3953477 260.88724,31.1593283 261.428695,30.9285503 C261.970149,30.6977723 262.449121,30.37259 262.865625,29.9529936 C262.969751,29.8271147 263.053051,29.6487889 263.115526,29.418011 C263.178002,29.187233 263.230064,28.9564584 263.271714,28.7256804 C263.313365,28.4949024 263.355014,28.2693728 263.396665,28.0490847 C263.438315,27.8287966 263.511202,27.6662054 263.615328,27.5613064 C263.677804,27.4773871 263.766309,27.4249383 263.880848,27.4039585 C263.995386,27.3829787 264.130748,27.3619992 264.286937,27.3410194 C264.443126,27.3200395 264.620137,27.2833254 264.817976,27.2308759 C265.015816,27.1784263 265.218858,27.0892634 265.42711,26.9633845 C265.635362,26.8375056 265.796755,26.7063837 265.911293,26.5700149 C266.025832,26.4336461 266.135162,26.313014 266.239288,26.2081149 C266.343414,26.1032158 266.468363,26.0192978 266.61414,25.9563583 C266.759916,25.8934189 266.957752,25.8724394 267.207654,25.8934192 C267.436731,25.8934192 267.671011,25.9039089 267.910501,25.9248887 C268.14999,25.9458686 268.363445,25.9563583 268.550872,25.9563583 C268.86325,25.9563583 269.191241,25.9458686 269.534857,25.9248887 C269.878473,25.9039089 270.227289,25.8934192 270.581317,25.8934192 C271.164422,25.8934192 271.643394,25.9563577 272.018248,26.0822366 C272.393101,26.2081155 272.726299,26.3497271 273.017852,26.5070758 C273.309404,26.6644244 273.59054,26.8270156 273.861267,26.9948541 C274.131995,27.1626926 274.475605,27.2885697 274.892109,27.3724889 C275.454389,27.477388 276.021867,27.5350817 276.594559,27.5455716 C277.167252,27.5560615 277.724317,27.5665512 278.265772,27.5770411 C278.807227,27.587531 279.343467,27.6294901 279.874509,27.7029194 C280.405551,27.7763488 280.920967,27.9179604 281.420771,28.1277586 C281.712324,28.2536375 282.019491,28.4791672 282.342281,28.8043543 C282.665072,29.1295415 283.013888,29.4389892 283.388741,29.7327066 C283.74277,30.0054443 284.122823,30.2414637 284.528915,30.440772 C284.935006,30.6400802 285.221348,30.8551201 285.387949,31.0858981 C285.5129,31.3166761 285.622231,31.6628379 285.715944,32.1243939 C285.809657,32.5859499 285.950225,32.9740707 286.137652,33.288768 C286.325079,33.6244451 286.559358,33.9758518 286.840498,34.3429986 C287.121638,34.7101454 287.397568,35.0982662 287.668295,35.5073726 C287.939023,35.9164791 288.168096,36.3570487 288.355523,36.8290946 C288.54295,37.3011405 288.657486,37.7994037 288.699137,38.3238991 Z M325,56.6706581 C324.95835,57.258093 324.854225,57.8140499 324.687624,58.3385453 C324.521022,58.8630407 324.437723,59.3875283 324.437723,59.9120238 C324.437723,60.1637816 324.458548,60.4889639 324.500198,60.8875804 C324.541848,61.286197 324.562673,61.7162768 324.562673,62.1778328 C324.562673,62.9750659 324.375249,63.688369 324.000396,64.3177635 C323.625543,64.947158 323.146571,65.5345841 322.563466,66.0800594 C321.98036,66.6255347 321.329583,67.1552671 320.611114,67.6692727 C319.892646,68.1832782 319.179394,68.7130106 318.471337,69.2584859 C317.971533,69.6571024 317.555036,70.055713 317.221833,70.4543295 C316.88863,70.8529461 316.50337,71.2095976 316.066041,71.5242949 C315.628712,71.8389922 315.076853,72.0959911 314.410447,72.2952994 C313.744041,72.4946076 312.817334,72.5942603 311.630299,72.5942603 C310.984718,72.5942603 310.323528,72.5470564 309.64671,72.4526472 C308.969891,72.358238 308.298289,72.2480956 307.631883,72.1222167 C306.965477,71.9963378 306.325113,71.8861954 305.71077,71.7917863 C305.096427,71.6973771 304.528949,71.6501732 304.008319,71.6501732 C303.570991,71.6501732 303.154493,71.6921322 302.758815,71.7760515 C302.363136,71.8599707 301.967464,71.9019297 301.571785,71.9019297 C301.405184,71.9019297 301.113635,71.8337464 300.697132,71.6973775 C300.280628,71.5610087 299.832893,71.3721932 299.353914,71.1309253 C298.874935,70.8896574 298.395963,70.5959443 297.916984,70.2497773 C297.438004,69.9036104 297.042332,69.5102447 296.729954,69.0696685 C296.438401,68.671052 296.256184,68.246217 296.183296,67.7951509 C296.110408,67.3440848 295.96984,66.9087602 295.761588,66.4891638 C295.470035,65.9646683 295.089981,65.4611603 294.621415,64.9786245 C294.152848,64.4960886 293.741557,63.9191523 293.387529,63.2477981 C293.075151,62.6393834 292.804428,61.9051008 292.575351,61.0449283 C292.346274,60.1847557 292.085963,59.3350859 291.79441,58.4958931 C291.419557,57.3839628 291.049915,56.3874364 290.685475,55.506284 C290.321034,54.6251317 290.138816,53.8803593 290.138816,53.2719446 C290.138816,52.5796106 290.232528,51.8400831 290.419955,51.05334 C290.607381,50.2665968 290.85728,49.5323142 291.169658,48.8504701 C291.482035,48.168626 291.841264,47.6074243 292.247356,47.1668481 C292.653447,46.726272 293.07515,46.5059872 293.512479,46.5059872 C293.741556,46.5059872 293.981042,46.5479462 294.230944,46.6318655 C294.480847,46.7157847 294.741158,46.7577437 295.011885,46.7577437 C295.365913,46.7157841 295.662667,46.6108866 295.902157,46.443048 C296.141647,46.2752095 296.396751,46.1912915 296.667479,46.1912915 C296.938206,46.1912915 297.323466,46.2384954 297.823271,46.3329045 C298.323075,46.4273137 298.838491,46.5479459 299.369533,46.6948046 C299.900575,46.8416633 300.400372,46.9885198 300.868939,47.1353786 C301.337505,47.2822373 301.686322,47.4186041 301.915399,47.544483 C302.248602,47.7123215 302.602625,48.0060346 302.977478,48.4256309 C303.352331,48.8452273 303.695942,49.3067763 304.008319,49.810292 C304.320697,50.3138076 304.581008,50.8382952 304.78926,51.3837704 C304.997512,51.9292457 305.101636,52.4117743 305.101636,52.8313706 C305.101636,53.0621486 305.091224,53.298168 305.070399,53.539436 C305.049573,53.7807039 305.039161,54.0167233 305.039161,54.2475013 C305.039161,54.6670976 305.112048,55.0919326 305.257824,55.5220188 C305.403601,55.9521051 305.52855,56.4293888 305.632676,56.9538842 C305.715976,57.5413191 305.773245,58.097276 305.804483,58.6217714 C305.83572,59.1462669 305.882576,59.6340403 305.945052,60.0851064 C306.007527,60.5361725 306.096033,60.9610074 306.210572,61.359624 C306.32511,61.7582405 306.528153,62.1358716 306.819705,62.4925285 C307.236209,63.0380037 307.819305,63.4733284 308.569012,63.7985156 C309.318719,64.1237028 310.058002,64.2862939 310.786883,64.2862939 C311.245037,64.2862939 311.614678,64.2128657 311.895818,64.0660069 C312.176958,63.9191482 312.421651,63.7408224 312.629903,63.5310243 C312.838154,63.3212261 313.041197,63.1061862 313.239036,62.8858981 C313.436875,62.66561 313.671155,62.4715496 313.941883,62.3037111 C314.358386,62.0519532 314.754059,61.8578928 315.128912,61.721524 C315.503765,61.5851552 315.836963,61.4068294 316.128516,61.1865413 C316.420069,60.9662533 316.649142,60.6672953 316.815744,60.2896586 C316.982345,59.9120219 317.065645,59.3560651 317.065645,58.6217714 C317.065645,58.0343365 316.956314,57.4101963 316.73765,56.749332 C316.518985,56.0884678 316.378417,55.4223686 316.315942,54.7510144 C316.253466,54.1635795 316.211816,53.6653163 316.190991,53.2562098 C316.170166,52.8471034 316.133722,52.4589826 316.08166,52.0918358 C316.029597,51.7246889 315.941091,51.3575476 315.81614,50.9904008 C315.691189,50.623254 315.472528,50.1984191 315.16015,49.7158833 C315.076849,49.631964 314.889425,49.4169241 314.597873,49.0707571 C314.30632,48.7245901 313.967916,48.3626937 313.58265,47.9850569 C313.197384,47.6074202 312.786093,47.2665033 312.348764,46.9622959 C311.911435,46.6580886 311.50535,46.5059872 311.130497,46.5059872 C310.963895,46.5059872 310.802503,46.5164769 310.646314,46.5374567 C310.490125,46.5584366 310.328732,46.5689263 310.162131,46.5689263 C309.495725,46.5689263 308.81371,46.4220698 308.116066,46.1283523 C307.418423,45.8346349 306.705171,45.4727385 305.97629,45.0426522 C305.247408,44.6125659 304.508125,44.1562617 303.758418,43.6737259 C303.008712,43.1911901 302.259016,42.7611103 301.50931,42.3834736 C300.884554,42.0687763 300.181715,41.7750633 299.400771,41.5023256 C298.619826,41.229588 297.885749,40.9253852 297.198518,40.5897081 C296.511287,40.254031 295.938603,39.8606653 295.480449,39.4095993 C295.022295,38.9585332 294.793222,38.3973315 294.793222,37.7259773 C294.793222,37.6000984 294.819253,37.3483443 294.871316,36.9707076 C294.923379,36.5930709 294.991059,36.1577462 295.07436,35.6647205 C295.157661,35.1716948 295.261785,34.6367174 295.386736,34.0597724 C295.511687,33.4828275 295.657462,32.9268706 295.824063,32.3918853 C295.990665,31.8568999 296.16247,31.3691265 296.339484,30.9285503 C296.516498,30.4879741 296.709128,30.1418123 296.91738,29.8900545 C297.208932,29.5333976 297.578574,29.1872358 298.026315,28.8515587 C298.474057,28.5158816 298.916585,28.2169237 299.353914,27.954676 C299.791243,27.6924282 300.181709,27.4826332 300.525325,27.3252846 C300.86894,27.1679359 301.092808,27.0892628 301.196934,27.0892628 C301.38436,27.0892628 301.566578,27.1049974 301.743592,27.1364672 C301.920606,27.1679369 302.102824,27.1836715 302.29025,27.1836715 C302.685929,27.1836715 303.024333,27.1364676 303.305473,27.0420585 C303.586613,26.9476493 303.836511,26.8270171 304.055176,26.6801584 C304.27384,26.5332997 304.487295,26.391688 304.695547,26.2553192 C304.903799,26.1189504 305.143285,25.9983183 305.414012,25.8934192 C305.76804,25.7465604 306.200157,25.6678873 306.710374,25.6573974 C307.220591,25.6469075 307.725594,25.5892139 308.225398,25.4843148 C308.808503,25.3584359 309.54258,25.2063345 310.42765,25.028006 C311.312721,24.8496776 312.20819,24.6818415 313.114086,24.5244929 C314.019981,24.3671443 314.868595,24.2360224 315.659952,24.1311233 C316.451309,24.0262242 317.044817,23.9842652 317.440496,24.005245 C317.648748,24.005245 317.872615,24.0576938 318.112105,24.1625928 C318.351594,24.2674919 318.533812,24.4982665 318.658763,24.8549234 C318.929491,25.0437417 319.241864,25.1801085 319.595892,25.2640278 C319.94992,25.3479471 320.241468,25.4843138 320.470545,25.6731322 C320.782923,25.9458698 321.110915,26.3025214 321.45453,26.7430975 C321.798146,27.1836737 322.126137,27.5613048 322.438515,27.876002 L323.266312,28.7099456 C323.505802,28.9512135 323.703638,29.1819881 323.859827,29.4022762 C324.016016,29.6225643 324.130553,29.8533388 324.203441,30.0946067 C324.276329,30.3358746 324.312772,30.6243428 324.312772,30.9600199 C324.312772,31.631374 324.239885,32.2817386 324.094109,32.9111332 C323.948333,33.5405277 323.70364,34.1017294 323.360025,34.5947551 C323.016409,35.0877809 322.558262,35.4863914 321.98557,35.7905988 C321.412877,36.0948061 320.689213,36.2469075 319.814555,36.2469075 C319.293926,36.2469075 318.731654,36.1892139 318.127724,36.0738249 C317.523793,35.9584359 316.982347,35.8063345 316.503367,35.6175161 C316.253465,35.5335969 316.003567,35.3972301 315.753665,35.2084117 C315.503762,35.0195934 315.253864,34.825533 315.003962,34.6262247 C314.754059,34.4269164 314.493749,34.232856 314.223021,34.0440377 C313.952294,33.8552193 313.660746,33.7083628 313.348368,33.6034637 C313.03599,33.4985646 312.629905,33.398912 312.130101,33.3045028 C311.630296,33.2100936 311.114881,33.1314205 310.583838,33.068481 C310.052796,33.0055416 309.537381,32.9530928 309.037576,32.9111332 C308.537772,32.8691735 308.121274,32.848194 307.788071,32.848194 C307.350743,32.848194 306.923833,32.8744184 306.507329,32.9268679 C306.090825,32.9793175 305.721184,33.084215 305.398394,33.2415636 C305.075603,33.3989123 304.810086,33.6139522 304.601834,33.8866898 C304.393582,34.1594274 304.289458,34.516079 304.289458,34.9566552 C304.289458,35.208413 304.336314,35.4286978 304.430027,35.6175161 C304.523741,35.8063345 304.659102,35.9794154 304.836116,36.136764 C305.01313,36.2941127 305.236998,36.4567038 305.507725,36.6245424 C305.778453,36.7923809 306.090826,36.9916862 306.444854,37.2224642 C306.757232,37.4322624 307.064398,37.6630369 307.366364,37.9147947 C307.668329,38.1665525 307.970289,38.4078168 308.272255,38.6385948 C308.57422,38.8693728 308.881387,39.0896576 309.193764,39.2994558 C309.506142,39.5092539 309.828928,39.67709 310.162131,39.8029689 C310.557809,39.9288478 310.9691,40.0075209 311.396017,40.0389906 C311.822933,40.0704604 312.202987,40.1176643 312.53619,40.1806037 C313.764876,40.4743212 314.91545,40.8991561 315.987947,41.4551213 C317.060444,42.0110864 318.054831,42.6562062 318.971139,43.3904998 C319.887447,44.1247934 320.715236,44.9167697 321.45453,45.7664523 C322.193824,46.6161349 322.844601,47.4815394 323.406881,48.3626918 C323.677609,48.803268 323.89627,49.1966336 324.062871,49.5428006 C324.229473,49.8889676 324.354422,50.2351294 324.437723,50.5812964 C324.521024,50.9274634 324.573086,51.2998496 324.593911,51.6984661 C324.614736,52.0970827 324.625149,52.5796113 324.625149,53.1460663 C324.625149,53.7964407 324.687623,54.4258258 324.812574,55.0342405 C324.937525,55.6426552 325,56.1881223 325,56.6706581 Z" id="path-2"></path>
        <filter x="-1.8%" y="-8.5%" width="103.7%" height="122.6%" filterUnits="objectBoundingBox" id="filter-3">
            <feMorphology radius="3" operator="dilate" in="SourceAlpha" result="shadowSpreadOuter1"></feMorphology>
            <feOffset dx="0" dy="2" in="shadowSpreadOuter1" result="shadowOffsetOuter1"></feOffset>
            <feGaussianBlur stdDeviation="0.5" in="shadowOffsetOuter1" result="shadowBlurOuter1"></feGaussianBlur>
            <feComposite in="shadowBlurOuter1" in2="SourceAlpha" operator="out" result="shadowBlurOuter1"></feComposite>
            <feColorMatrix values="0 0 0 0 0   0 0 0 0 0   0 0 0 0 0  0 0 0 0.125 0" type="matrix" in="shadowBlurOuter1"></feColorMatrix>
        </filter>
    </defs>
    <g id="logo" stroke="none" stroke-width="1" fill="none" fill-rule="evenodd">
        <g id="SICC-PICCS">
            <use fill="black" fill-opacity="1" filter="url(#filter-3)" xlink:href="#path-2"></use>
            <use fill="url(#linearGradient-1)" fill-rule="evenodd" xlink:href="#path-2"></use>
        </g>
    </g>
</svg>